<svg xmlns="http://www.w3.org/2000/svg" viewBox="0 0 500 500"><g id="freepik--background-simple--inject-671"><path d="M475.12,253.68C492.87,140.17,398.17,25.75,273.83,11.54c-1.54-.18-3.09-.34-4.64-.5-86.88-8.63-166.3,57.74-189,108.35S-1.95,218.16,20.08,312s81.86,143.81,222.16,158.6,166.18-25.33,203.42-113A448.37,448.37,0,0,0,475.12,253.68Z" style="fill:#407BFF"></path><path d="M475.12,253.68C492.87,140.17,398.17,25.75,273.83,11.54c-1.54-.18-3.09-.34-4.64-.5-86.88-8.63-166.3,57.74-189,108.35S-1.95,218.16,20.08,312s81.86,143.81,222.16,158.6,166.18-25.33,203.42-113A448.37,448.37,0,0,0,475.12,253.68Z" style="fill:#fff;opacity:0.7000000000000001"></path></g><g id="freepik--Floor--inject-671"><path d="M466.23,367H19.46a.5.5,0,0,1-.5-.5.5.5,0,0,1,.5-.5H466.23a.51.51,0,0,1,.5.5A.5.5,0,0,1,466.23,367Z" style="fill:#263238"></path><path d="M481,367h-9.42a.5.5,0,0,1-.5-.5.51.51,0,0,1,.5-.5H481a.5.5,0,0,1,.5.5A.5.5,0,0,1,481,367Z" style="fill:#263238"></path></g><g id="freepik--Picture--inject-671"><path d="M155.57,140.87H85.41a.5.5,0,0,1-.5-.5v-95a.5.5,0,0,1,.5-.5h70.16a.5.5,0,0,1,.5.5v95A.5.5,0,0,1,155.57,140.87Zm-69.66-1h69.16v-94H85.91Z" style="fill:#263238"></path><path d="M148.44,131.22H92.54a.5.5,0,0,1-.5-.5V55a.5.5,0,0,1,.5-.5h16.12a.51.51,0,0,1,.5.5.5.5,0,0,1-.5.5H93v74.68h54.9V55.54H114a.5.5,0,0,1-.5-.5.5.5,0,0,1,.5-.5h34.44a.51.51,0,0,1,.5.5v75.68A.5.5,0,0,1,148.44,131.22Z" style="fill:#263238"></path><path d="M129.71,105.87H111.26a.5.5,0,0,1-.5-.5v-25a.5.5,0,0,1,.5-.5h18.45a.5.5,0,0,1,.5.5v25A.5.5,0,0,1,129.71,105.87Zm-18-1h17.45v-24H111.76Z" style="fill:#263238"></path></g><g id="freepik--Window--inject-671"><path d="M451.61,220.15H239a.51.51,0,0,1-.5-.5V23.72a.5.5,0,0,1,.5-.5.5.5,0,0,1,.5.5V219.15H451.11V79.78a.5.5,0,0,1,.5-.5.5.5,0,0,1,.5.5V219.65A.5.5,0,0,1,451.61,220.15Z" style="fill:#263238"></path><path d="M451.61,74.75a.5.5,0,0,1-.5-.5V30.86a.5.5,0,0,1,.5-.5.5.5,0,0,1,.5.5V74.25A.5.5,0,0,1,451.61,74.75Z" style="fill:#263238"></path><path d="M478.5,220.26H457.11a.51.51,0,0,1-.5-.5V32.8a.51.51,0,0,1,.5-.5.5.5,0,0,1,.5.5V219.26H478.5a.5.5,0,0,1,.5.5A.5.5,0,0,1,478.5,220.26Z" style="fill:#263238"></path></g><g id="freepik--device-2--inject-671"><ellipse cx="325.95" cy="380.29" rx="59.54" ry="15.19" style="fill:#263238"></ellipse><path d="M326,396c-33.67,0-60-6.89-60-15.69s26.37-15.7,60-15.7,60,6.9,60,15.7S359.61,396,326,396Zm0-30.39c-32,0-59,6.73-59,14.7s27,14.69,59,14.69,59-6.73,59-14.69S358,365.59,326,365.59Z" style="fill:#263238"></path><ellipse cx="325.95" cy="378.07" rx="59.54" ry="15.19" style="fill:#787878"></ellipse><path d="M326,393.77c-33.67,0-60-6.9-60-15.7s26.37-15.69,60-15.69,60,6.89,60,15.69S359.61,393.77,326,393.77Zm0-30.39c-32,0-59,6.73-59,14.69s27,14.7,59,14.7,59-6.73,59-14.7S358,363.38,326,363.38Z" style="fill:#263238"></path><polygon points="352.95 363 248.38 383.52 248.38 30.74 352.95 30.74 352.95 363" style="fill:#fff"></polygon><path d="M248.38,384a.54.54,0,0,1-.32-.11.52.52,0,0,1-.18-.39V30.74a.5.5,0,0,1,.5-.5H353a.5.5,0,0,1,.5.5V363a.49.49,0,0,1-.4.49L248.48,384Zm.5-352.78V382.92l103.57-20.33V31.24ZM353,363h0Z" style="fill:#263238"></path><polygon points="371.74 365.39 267.17 385.92 267.17 30.8 371.74 30.8 371.74 365.39" style="fill:#787878"></polygon><path d="M267.17,386.42a.47.47,0,0,1-.32-.12.46.46,0,0,1-.18-.38V30.8a.5.5,0,0,1,.5-.5H371.74a.5.5,0,0,1,.5.5V365.39a.49.49,0,0,1-.4.49L267.26,386.41Zm.5-355.12v354L371.24,365V31.3ZM371.74,365.39h0Z" style="fill:#263238"></path><polygon points="267.17 385.92 248.38 383.52 248.38 30.74 267.17 30.8 267.17 385.92" style="fill:#c2c2c2"></polygon><path d="M267.17,386.42h-.07L248.32,384a.5.5,0,0,1-.44-.5V30.74a.53.53,0,0,1,.15-.36.5.5,0,0,1,.35-.14h0l18.79.06a.5.5,0,0,1,.5.5V385.92a.48.48,0,0,1-.17.37A.51.51,0,0,1,267.17,386.42Zm-18.29-3.34,17.79,2.27V31.3l-17.79-.06Z" style="fill:#263238"></path><polygon points="329.1 367.87 305.2 373.59 305.2 240.32 329.1 240.32 329.1 367.87" style="fill:#407BFF"></polygon><path d="M305.2,374.09a.51.51,0,0,1-.31-.11.49.49,0,0,1-.19-.39V240.32a.5.5,0,0,1,.5-.5h23.9a.5.5,0,0,1,.5.5V367.87a.51.51,0,0,1-.38.49l-23.9,5.71Zm.5-133.27V373l22.9-5.47V240.82Zm23.4,127.05h0Z" style="fill:#263238"></path><path d="M319.08,294h0a8.31,8.31,0,0,1-10.24-8.08V242.41h16.62v43.47A8.31,8.31,0,0,1,319.08,294Z" style="fill:#263238"></path><path d="M317.13,294.69a8.8,8.8,0,0,1-8.79-8.81V242.41a.5.5,0,0,1,.5-.5h16.62a.5.5,0,0,1,.5.5v43.47a8.78,8.78,0,0,1-6.76,8.57h0A9.14,9.14,0,0,1,317.13,294.69Zm-7.79-51.78v43a7.82,7.82,0,0,0,9.63,7.6h0a7.79,7.79,0,0,0,6-7.6v-43Z" style="fill:#263238"></path><ellipse cx="327.17" cy="192.22" rx="52.85" ry="57.97" style="fill:#fff"></ellipse><path d="M327.17,250.69c-29.42,0-53.35-26.23-53.35-58.47s23.93-58.46,53.35-58.46,53.35,26.22,53.35,58.46S356.59,250.69,327.17,250.69Zm0-115.93c-28.87,0-52.35,25.78-52.35,57.46s23.48,57.47,52.35,57.47,52.35-25.78,52.35-57.47S356,134.76,327.17,134.76Z" style="fill:#263238"></path><path d="M383.32,109.94v11.42h34.26V83A7.58,7.58,0,0,0,410,75.4H342.88a28.36,28.36,0,0,0-28.36,28.36v34.46h42.15V129.5a19.56,19.56,0,0,1,19.56-19.56Z" style="fill:#787878"></path><path d="M356.67,138.72H314.52a.5.5,0,0,1-.5-.5V103.76A28.89,28.89,0,0,1,342.88,74.9H410A8.09,8.09,0,0,1,418.08,83v38.38a.5.5,0,0,1-.5.5H383.32a.5.5,0,0,1-.5-.5V110.44h-.51v-.94l-6.08.94a19.08,19.08,0,0,0-19.06,19.06v8.72A.5.5,0,0,1,356.67,138.72Zm-41.65-1h41.15V129.5a20.08,20.08,0,0,1,20.06-20.06h7.09a.5.5,0,0,1,.5.5v10.92h33.26V83A7.09,7.09,0,0,0,410,75.9H342.88A27.89,27.89,0,0,0,315,103.76Z" style="fill:#263238"></path><ellipse cx="335.78" cy="192.22" rx="44.24" ry="53.24" style="fill:#407BFF"></ellipse><path d="M335.78,246C311.11,246,291,221.86,291,192.22s20.07-53.74,44.74-53.74,44.74,24.11,44.74,53.74S360.45,246,335.78,246Zm0-106.49c-24.12,0-43.74,23.66-43.74,52.74S311.66,245,335.78,245s43.74-23.66,43.74-52.75S359.9,139.48,335.78,139.48Z" style="fill:#263238"></path><ellipse cx="335.78" cy="192.22" rx="26.05" ry="31.35" style="fill:#fff"></ellipse><path d="M335.78,224.07c-14.64,0-26.55-14.28-26.55-31.85s11.91-31.85,26.55-31.85,26.55,14.29,26.55,31.85S350.42,224.07,335.78,224.07Zm0-62.7c-14.09,0-25.55,13.84-25.55,30.85s11.46,30.85,25.55,30.85,25.55-13.84,25.55-30.85S349.87,161.37,335.78,161.37Z" style="fill:#263238"></path><rect x="353.52" y="117.7" width="21.3" height="81.83" style="fill:#787878"></rect><path d="M374.82,200h-21.3a.5.5,0,0,1-.5-.5V117.7a.5.5,0,0,1,.5-.5h21.3a.5.5,0,0,1,.5.5v81.83A.5.5,0,0,1,374.82,200ZM354,199h20.3V118.2H354Z" style="fill:#263238"></path><path d="M353.52,117.7l-.45,0A14.22,14.22,0,0,0,340,131.93v67.34h13.51Z" style="fill:#fff"></path><path d="M353.52,199.77H340a.5.5,0,0,1-.5-.5V131.93A14.78,14.78,0,0,1,353,117.22l.48,0a.46.46,0,0,1,.36.14.51.51,0,0,1,.15.36v81.57A.5.5,0,0,1,353.52,199.77Zm-13-1H353V118.23a13.76,13.76,0,0,0-12.51,13.7Z" style="fill:#263238"></path><circle cx="365.86" cy="177.32" r="6.36" style="fill:#263238"></circle><path d="M365.86,184.18a6.87,6.87,0,1,1,6.86-6.86A6.86,6.86,0,0,1,365.86,184.18Zm0-12.73a5.87,5.87,0,1,0,5.86,5.87A5.87,5.87,0,0,0,365.86,171.45Z" style="fill:#263238"></path><path d="M368.09,109.94v11.42h18.76V83a7.58,7.58,0,0,0-7.57-7.58h-43.2a28.36,28.36,0,0,0-28.36,28.36v34.46h18.22V129.5a19.56,19.56,0,0,1,19.56-19.56Z" style="fill:#407BFF"></path><path d="M325.94,138.72H307.72a.5.5,0,0,1-.5-.5V103.76A28.9,28.9,0,0,1,336.08,74.9h43.2A8.09,8.09,0,0,1,387.35,83v38.38a.5.5,0,0,1-.5.5H368.09a.5.5,0,0,1-.5-.5V110.44H345.5a19.08,19.08,0,0,0-19.06,19.06v8.72A.5.5,0,0,1,325.94,138.72Zm-17.72-1h17.22V129.5a20.08,20.08,0,0,1,20.06-20.06h22.63a.5.5,0,0,1,.5.5.52.52,0,0,1,0,.21v10.71h17.76V83a7.08,7.08,0,0,0-7.07-7.08h-43.2a27.89,27.89,0,0,0-27.86,27.86Z" style="fill:#263238"></path><path d="M384,95.41a14,14,0,0,0-11.39-5.87H350.15a35.09,35.09,0,0,0-35.09,35.09v13.59h10.88V129.5a19.56,19.56,0,0,1,19.56-19.56h22.59v11.42h18.49V103.55A14,14,0,0,0,384,95.41Z" style="fill:#fff"></path><path d="M325.94,138.72H315.06a.5.5,0,0,1-.5-.5V124.63A35.64,35.64,0,0,1,350.15,89h22.43a14.51,14.51,0,0,1,14.5,14.51v17.81a.5.5,0,0,1-.5.5H368.09a.5.5,0,0,1-.5-.5V110.44H345.5a19.08,19.08,0,0,0-19.06,19.06v8.72A.5.5,0,0,1,325.94,138.72Zm-10.38-1h9.88V129.5a20.08,20.08,0,0,1,20.06-20.06h22.59a.5.5,0,0,1,.5.5v10.92h17.49V103.55a13.46,13.46,0,0,0-2.51-7.85l.4-.29-.41.29a13.51,13.51,0,0,0-11-5.66H350.15a34.63,34.63,0,0,0-34.59,34.59Z" style="fill:#263238"></path><rect x="323.9" y="198.91" width="61.83" height="16.73" style="fill:#fff"></rect><path d="M385.73,216.14H323.9a.51.51,0,0,1-.5-.5V198.91a.5.5,0,0,1,.5-.5h61.83a.5.5,0,0,1,.5.5v16.73A.5.5,0,0,1,385.73,216.14Zm-61.33-1h60.83V199.41H324.4Z" style="fill:#263238"></path><path d="M349.88,155.24c0,3.37-1.68,6.1-3.76,6.1s-3.77-2.73-3.77-6.1,1.69-6.11,3.77-6.11S349.88,151.86,349.88,155.24Z" style="fill:#407BFF"></path><path d="M346.12,161.84c-2.4,0-4.27-2.9-4.27-6.61s1.87-6.6,4.27-6.6,4.26,2.9,4.26,6.6S348.51,161.84,346.12,161.84Zm0-12.21c-1.78,0-3.27,2.57-3.27,5.6s1.49,5.61,3.27,5.61,3.26-2.57,3.26-5.61S347.89,149.63,346.12,149.63Z" style="fill:#263238"></path><rect x="353.78" y="174.59" width="39.49" height="3.9" style="fill:#263238"></rect><path d="M393.27,179H353.78a.5.5,0,0,1-.5-.5v-3.9a.5.5,0,0,1,.5-.5h39.49a.5.5,0,0,1,.5.5v3.9A.51.51,0,0,1,393.27,179Zm-39-1h38.49v-2.9H354.28Z" style="fill:#263238"></path><rect x="353.78" y="189.4" width="39.49" height="3.9" style="fill:#fff"></rect><path d="M393.27,193.79H353.78a.5.5,0,0,1-.5-.5V189.4a.5.5,0,0,1,.5-.5h39.49a.5.5,0,0,1,.5.5v3.89A.5.5,0,0,1,393.27,193.79Zm-39-1h38.49V189.9H354.28Z" style="fill:#263238"></path><polygon points="290.65 368.65 301.56 382.68 290.62 380.89 290.65 368.65" style="fill:#787878"></polygon><path d="M301.56,383.18h-.08l-11-1.79a.49.49,0,0,1-.41-.49l0-12.24a.51.51,0,0,1,.34-.47.52.52,0,0,1,.56.16l10.91,14a.5.5,0,0,1,0,.56A.48.48,0,0,1,301.56,383.18Zm-10.44-2.72,9.26,1.52-9.23-11.88Z" style="fill:#263238"></path><polygon points="290.65 368.65 343.65 356.7 351.96 370.99 301.56 382.68 290.65 368.65" style="fill:#c2c2c2"></polygon><path d="M301.56,383.18a.49.49,0,0,1-.39-.19l-10.91-14a.49.49,0,0,1-.08-.48.51.51,0,0,1,.36-.32l53-12a.5.5,0,0,1,.54.24l8.31,14.29a.51.51,0,0,1,0,.45.52.52,0,0,1-.35.29l-50.39,11.69Zm-10-14.21,10.23,13.15,49.43-11.46-7.79-13.39Z" style="fill:#263238"></path><polygon points="314.1 367.11 318.11 372.73 327.5 370.29 323.23 364.67 314.1 367.11" style="fill:#263238"></polygon><path d="M318.11,373.22a.51.51,0,0,1-.41-.2l-4-5.62a.5.5,0,0,1,.28-.77l9.13-2.44a.51.51,0,0,1,.53.18L327.9,370a.53.53,0,0,1,.08.47.51.51,0,0,1-.35.32l-9.39,2.44Zm-3.18-5.81,3.39,4.74,8.33-2.16L323,365.24Z" style="fill:#263238"></path></g><g id="freepik--character-2--inject-671"><path d="M432.38,342.93s.31,26.57-1.07,36.24-2.15,8.76-2.15,14,2,11.36,2,13.36a4.24,4.24,0,0,1-3.37,4.3c-2.31.61-13.52.15-13.52.15s-6.75-.15-7.83-.61,1.84-2.61,3.69-3.38,5.22-7.07,5.83-8.76S419,395.76,419,386.7s-5.83-41.16-5.83-41.16Z" style="fill:#fff"></path><path d="M422,411.63c-3.61,0-7.46-.16-7.73-.17-1.13,0-6.9-.18-8-.65a.82.82,0,0,1-.53-.77c0-1.25,3-3,4.22-3.53,1.61-.67,4.92-6.69,5.56-8.47a5.73,5.73,0,0,1,.73-1.25c.92-1.31,2.31-3.28,2.31-10.09,0-8.91-5.77-40.75-5.82-41.07a.47.47,0,0,1,.08-.38.54.54,0,0,1,.34-.21l19.2-2.61a.55.55,0,0,1,.39.12.48.48,0,0,1,.17.37c0,.27.29,26.72-1.08,36.32-.63,4.4-1.12,6.61-1.49,8.22a20.55,20.55,0,0,0-.65,5.69,48.16,48.16,0,0,0,1.33,9.43,24.42,24.42,0,0,1,.67,3.93,4.71,4.71,0,0,1-3.75,4.78A32.63,32.63,0,0,1,422,411.63Zm-15.22-1.7a56.21,56.21,0,0,0,7.52.53c3.86.16,11.61.34,13.38-.14a3.71,3.71,0,0,0,3-3.81,24.19,24.19,0,0,0-.65-3.72,48.92,48.92,0,0,1-1.35-9.64,21.25,21.25,0,0,1,.68-5.91c.36-1.6.85-3.78,1.47-8.14,1.25-8.75,1.11-31.69,1.08-35.6L413.77,346c.78,4.31,5.75,32.26,5.75,40.74,0,7.12-1.5,9.26-2.49,10.67a4.21,4.21,0,0,0-.61,1c-.58,1.58-4,8.17-6.11,9A9.76,9.76,0,0,0,406.75,409.93Z" style="fill:#263238"></path><path d="M431.15,406.51a35.1,35.1,0,0,0-.9-5c-6.69,1.86-11.31.19-12.15-.22s-2.15-3.08-2.15-3.08c-.61,1.69-4,8-5.83,8.76s-4.76,2.92-3.69,3.38,7.83.61,7.83.61,11.21.46,13.52-.15A4.24,4.24,0,0,0,431.15,406.51Z" style="fill:#407BFF"></path><path d="M422,411.63c-3.61,0-7.46-.16-7.73-.17-1.13,0-6.9-.18-8-.65a.82.82,0,0,1-.53-.77c0-1.25,3-3,4.22-3.53,1.61-.67,4.92-6.69,5.56-8.47a.48.48,0,0,1,.45-.32.49.49,0,0,1,.47.28,8.33,8.33,0,0,0,1.93,2.84c1.24.62,5.77,1.86,11.79.19a.48.48,0,0,1,.39.05.46.46,0,0,1,.23.33l.25,1.17a24.42,24.42,0,0,1,.67,3.93,4.71,4.71,0,0,1-3.75,4.78A32.63,32.63,0,0,1,422,411.63Zm-15.22-1.7a56.21,56.21,0,0,0,7.52.53c3.86.16,11.61.34,13.38-.14a3.71,3.71,0,0,0,3-3.81,24.19,24.19,0,0,0-.65-3.72l-.13-.66c-7.33,1.87-11.95-.37-12-.4a6.27,6.27,0,0,1-1.89-2.35c-1.14,2.42-3.91,7.31-5.68,8.05A9.76,9.76,0,0,0,406.75,409.93Z" style="fill:#263238"></path><path d="M399.83,343.81s3.51,17.3,5.61,34.82-.93,18.7-4.44,22-14.49,5.61-14.49,7.72,3.27,3,10.29,3.5,20.57.68,23.14.22,1.63-3,1.39-5.59-2.8-14.26-2.8-14.26,1.64-16.83,2.1-23.84,1.17-21-.23-25.47S399.83,343.81,399.83,343.81Z" style="fill:#fff"></path><path d="M412.85,412.79c-5.14,0-11.75-.18-16.09-.47-6.45-.43-10.75-1.28-10.75-4,0-1.36,2.35-2.35,6.5-4,3.06-1.2,6.51-2.56,8.15-4.09.26-.25.52-.48.78-.71,3-2.72,5.42-4.87,3.51-20.84-2.08-17.3-5.57-34.61-5.61-34.78a.5.5,0,0,1,.36-.58c2-.56,19.67-5.37,21.18-.6,1.41,4.47.76,18,.25,25.65-.44,6.7-2,22.52-2.09,23.78.24,1.1,2.57,11.75,2.79,14.24.05.46.11.92.17,1.36.29,2,.61,4.3-2,4.77A60.66,60.66,0,0,1,412.85,412.79Zm-12.44-68.62c.57,2.86,3.64,18.63,5.53,34.41,2,16.48-.59,18.78-3.83,21.69l-.77.7c-1.77,1.66-5.32,3.06-8.46,4.29-2.48,1-5.87,2.32-5.87,3.06,0,1.64,2.94,2.54,9.82,3,7.16.48,20.52.68,23,.22,1.48-.27,1.49-1.26,1.15-3.64-.06-.46-.13-.93-.17-1.41-.23-2.51-2.77-14.08-2.8-14.19a.86.86,0,0,1,0-.16c0-.17,1.64-16.9,2.1-23.82.41-6.11,1.21-20.81-.21-25.29C419,340.19,407.67,342.18,400.41,344.17Z" style="fill:#263238"></path><path d="M406.12,404.2s-2.91-.3-3.38-1.53a12.28,12.28,0,0,1-.16-3.51c-.5.48-1,.94-1.58,1.44-3.5,3.28-14.49,5.61-14.49,7.72s3.27,3,10.29,3.5,20.57.68,23.14.22,1.63-3,1.39-5.59c0-.54-.19-1.47-.4-2.6-.57.08-1.15.15-1.75.2A129.24,129.24,0,0,1,406.12,404.2Z" style="fill:#407BFF"></path><path d="M412.85,412.79c-5.14,0-11.75-.18-16.09-.47-6.45-.43-10.75-1.28-10.75-4,0-1.36,2.35-2.35,6.51-4,3.05-1.2,6.5-2.57,8.14-4.09l.79-.72.79-.72a.49.49,0,0,1,.55-.09.5.5,0,0,1,.29.48,10.11,10.11,0,0,0,.13,3.3c.24.65,1.87,1.1,3,1.22.4,0,7.81.28,13-.16.6-.05,1.17-.12,1.73-.19a.5.5,0,0,1,.56.4c.23,1.24.37,2.13.41,2.64s.11.92.17,1.36c.29,2,.61,4.3-2,4.77A60.66,60.66,0,0,1,412.85,412.79ZM402,400.33l-.7.64c-1.77,1.66-5.32,3.06-8.46,4.29-2.47,1-5.87,2.32-5.87,3.06,0,1.64,2.94,2.54,9.82,3,7.16.48,20.52.68,23,.22,1.48-.27,1.49-1.26,1.15-3.64-.06-.46-.13-.93-.17-1.41s-.15-1.12-.32-2.08l-1.3.14a127.43,127.43,0,0,1-13.12.15h0c-.54-.06-3.25-.41-3.79-1.86A7.49,7.49,0,0,1,402,400.33Z" style="fill:#263238"></path><path d="M404.51,166.85s-5.95,1.26-8.66,6.49-13.16,24.88-14.24,33.89,4.33,29.21,4.33,29.21l-7.94,106s2.71,2.16,4.33,2.52a41.21,41.21,0,0,0,5.77.36s1.26,2.17,5.95,2.53,13.88.18,14.78.36a47.62,47.62,0,0,0,9.2.72c3.6-.18,6.85-2.89,6.85-2.89s7.93,1.09,12.44-1.62,5.59-4.15,5.59-4.15-4.15-25.24-4.69-37.86-.36-38.4-2.16-53.37S430.65,230,430.65,230s3.43-1.62,3.06-4.87-.72-6.67.91-18.57,3.24-22.71.54-29.21-4.33-8.65-4.33-8.65l-1.8-.54Z" style="fill:#407BFF"></path><path d="M416.8,349.48a51.42,51.42,0,0,1-8.07-.76c-.33-.07-2.35-.08-4.49-.1-3.34,0-7.5,0-10.23-.26-4-.3-5.66-1.9-6.17-2.52a38.11,38.11,0,0,1-5.62-.37c-1.72-.38-4.42-2.53-4.53-2.62a.52.52,0,0,1-.19-.43l7.93-105.93c-.43-1.61-5.38-20.51-4.32-29.32,1-8.55,10.25-26.28,13.73-33l.57-1.1c2.78-5.38,8.74-6.7,9-6.75a.3.3,0,0,1,.13,0l24.52,1.26.12,0,1.8.54a.44.44,0,0,1,.26.18c.07.09,1.69,2.29,4.39,8.76s1.27,16.45-.32,28.12l-.19,1.35c-1.62,11.92-1.25,15.24-.9,18.45.31,2.77-1.81,4.45-2.83,5.08,1,1.47,3.69,6.52,5.17,18.89,1.26,10.39,1.56,26.12,1.8,38.75.11,5.55.21,10.79.37,14.66.53,12.45,4.64,37.55,4.68,37.8a.46.46,0,0,1-.09.38c-.05.07-1.19,1.56-5.73,4.28-4.24,2.55-11.22,1.87-12.55,1.72a13.74,13.74,0,0,1-7,2.86C417.65,349.47,417.23,349.48,416.8,349.48Zm-38.28-7.25a13.78,13.78,0,0,0,3.92,2.26,40.19,40.19,0,0,0,5.66.35.5.5,0,0,1,.43.25s1.24,2,5.56,2.28c2.7.21,6.83.23,10.16.25,2.8,0,4.27,0,4.68.12a47.37,47.37,0,0,0,9.07.71c3.39-.17,6.53-2.74,6.56-2.77a.5.5,0,0,1,.39-.11c.08,0,7.81,1,12.11-1.56a25.53,25.53,0,0,0,5.32-3.87c-.42-2.58-4.15-25.83-4.66-37.69-.16-3.88-.26-9.13-.37-14.68-.24-12.61-.54-28.31-1.79-38.65-1.75-14.56-5.25-18.8-5.29-18.84a.52.52,0,0,1-.11-.43.5.5,0,0,1,.27-.35c.13-.06,3.1-1.52,2.79-4.36-.37-3.27-.74-6.66.9-18.69l.18-1.35c1.52-11,2.95-21.48.4-27.6a50.94,50.94,0,0,0-4.18-8.42l-1.58-.47-24.39-1.26c-.62.15-5.84,1.54-8.25,6.22l-.58,1.1c-3.45,6.63-12.61,24.25-13.62,32.62-1.05,8.82,4.26,28.82,4.32,29a.49.49,0,0,1,0,.17Z" style="fill:#263238"></path><path d="M415.24,233.86a10.55,10.55,0,0,1-5.42-1.14.51.51,0,0,1,.55-.85c.08,0,5.6,3.34,17.9-2.55a.5.5,0,0,1,.67.24.5.5,0,0,1-.24.66C422.74,233.08,418.31,233.86,415.24,233.86Z" style="fill:#263238"></path><path d="M415.9,237.31a42.15,42.15,0,0,1-6.61-.55.51.51,0,0,1-.41-.58.49.49,0,0,1,.57-.41C423.58,238,429,232.38,429,232.32a.5.5,0,0,1,.74.67C429.57,233.2,425.69,237.31,415.9,237.31Z" style="fill:#263238"></path><path d="M425.54,344.54h0A.5.5,0,0,1,425,344l.94-24.54a.5.5,0,1,1,1,0L426,344.06A.5.5,0,0,1,425.54,344.54Z" style="fill:#263238"></path><path d="M388.1,345.84h0a.49.49,0,0,1-.49-.51l.75-33.32a.51.51,0,0,1,.51-.48.5.5,0,0,1,.49.51l-.75,33.31A.5.5,0,0,1,388.1,345.84Z" style="fill:#263238"></path><path d="M389.08,308.79h0a.51.51,0,0,1-.48-.52l.24-6.31a.47.47,0,0,1,.51-.48.5.5,0,0,1,.49.52l-.24,6.31A.5.5,0,0,1,389.08,308.79Z" style="fill:#263238"></path><path d="M426.94,243.81a.5.5,0,0,1-.49-.4c-.88-4.65-2.86-6.48-2.88-6.5a.5.5,0,0,1,.67-.75c.09.08,2.24,2,3.2,7.06a.51.51,0,0,1-.4.59Z" style="fill:#263238"></path><path d="M416.66,242.88a.5.5,0,0,1-.5-.48l-.23-5.14a.5.5,0,0,1,.47-.52.48.48,0,0,1,.53.48l.23,5.14a.5.5,0,0,1-.48.52Z" style="fill:#263238"></path><path d="M404.25,166.92l.26-.07s10.63,4,14.42,7.57,9.38,16.59,10.28,19.83c.42,1.53.93,3.78,1.34,5.73,1-3.19,3-9.77,3-14,0-5.77-2.16-15.87-4.5-17.85s-7-5.05-7-5.05l-2-6.85s2-7.93,2-11.18-7.4-4.15-8.12-3.6-10.28,12.08-12.8,13c0,0,4.15,7.75,4,10.09A6.24,6.24,0,0,1,404.25,166.92Z" style="fill:#fff"></path><path d="M430.55,200.48h0a.52.52,0,0,1-.46-.4c-.53-2.51-1-4.43-1.33-5.69-.89-3.17-6.48-16.12-10.14-19.61-3.43-3.26-12.81-6.91-14.11-7.41l-.1,0a.53.53,0,0,1-.53-.17.5.5,0,0,1,0-.55,5.48,5.48,0,0,0,.74-2.22c.14-1.8-2.78-7.7-3.91-9.82a.49.49,0,0,1,0-.41.5.5,0,0,1,.3-.29c1.72-.62,7.55-7.22,10.36-10.39a34.09,34.09,0,0,1,2.31-2.52c.74-.56,4.32-.14,6.54,1,2,1,2.38,2.18,2.38,3,0,3.08-1.7,10.09-2,11.17l1.89,6.54c.85.56,4.8,3.19,6.93,5,2.59,2.19,4.68,12.59,4.68,18.23,0,4.25-1.88,10.7-3,14.17A.5.5,0,0,1,430.55,200.48ZM405,166.5c1.87.72,10.78,4.24,14.27,7.56,3.85,3.67,9.48,16.73,10.41,20.06.26.95.58,2.26.95,3.91,1.07-3.55,2.39-8.6,2.39-12.07,0-5.77-2.18-15.65-4.33-17.47s-6.93-5-7-5a.58.58,0,0,1-.21-.28l-2-6.85a.46.46,0,0,1,0-.26c0-.08,2-7.91,2-11.06a2.23,2.23,0,0,0-1.25-1.8,11,11,0,0,0-6.1-1.39c-.15.13-1.11,1.22-2.13,2.37-4.09,4.62-8.21,9.18-10.26,10.41.95,1.81,3.95,7.76,3.78,9.92A5.59,5.59,0,0,1,405,166.5Z" style="fill:#263238"></path><polygon points="408.4 153.29 404 160.01 401.08 154.41 408.4 153.29" style="fill:#263238"></polygon><path d="M404,160.51h0a.49.49,0,0,1-.42-.27l-2.91-5.6a.5.5,0,0,1,0-.46.56.56,0,0,1,.38-.27l7.32-1.12a.51.51,0,0,1,.5.23.5.5,0,0,1,0,.54l-4.41,6.72A.5.5,0,0,1,404,160.51Zm-2.15-5.71,2.2,4.22,3.32-5.07Z" style="fill:#263238"></path><path d="M395.47,127s-3.35-3.72-2.23-6.32,5.58-2.79,5.58-2.79,12.47-4.47,18.61-3.73,16.19,9.49,18.05,18.8-1.11,16.19-4.46,19.73-14.33,6.33-16.75,5.21-4.28-5-4.28-5l3-1.3-.37-2.23,3.35-3.54s-9.3-3.53-13.21-6.14S395.47,127,395.47,127Z" style="fill:#263238"></path><path d="M416,158.69a4.66,4.66,0,0,1-1.9-.3c-2.56-1.18-4.44-5.09-4.52-5.26a.48.48,0,0,1,0-.39.47.47,0,0,1,.27-.28l2.62-1.15-.31-1.85a.5.5,0,0,1,.13-.43l2.84-3c-2.26-.88-9.29-3.7-12.62-5.92-3.84-2.56-7-11.71-7.42-12.82-.51-.59-3.4-4.1-2.25-6.78s5.3-3,5.94-3.09c1.11-.4,12.75-4.45,18.77-3.72,6.62.8,16.65,10,18.48,19.19,2.35,11.74-2.92,18.41-4.59,20.17C428.56,156.05,420.21,158.69,416,158.69Zm-5.28-5.53c.56,1,2,3.52,3.8,4.33,2.22,1,13-1.72,16.17-5.11,1.59-1.67,6.6-8,4.34-19.28-1.9-9.51-12-17.72-17.62-18.4-5.94-.73-18.26,3.65-18.38,3.7l-.15,0s-4.17.21-5.14,2.49,2.11,5.77,2.14,5.8a.4.4,0,0,1,.1.18c0,.1,3.35,9.91,7.07,12.39s13,6.06,13.11,6.1a.48.48,0,0,1,.31.35.52.52,0,0,1-.12.46l-3.18,3.35.33,2a.49.49,0,0,1-.29.54Z" style="fill:#263238"></path><path d="M398.26,122.58s-5,4.84-5,8.93,2,3.17-.38,6.33-2.6,2.23-2.42,3.16a21.88,21.88,0,0,0,1.68,3.54s.68,8.52,1.8,10,4.16,1.34,9.18,1,9.49-6.14,9.49-6.14,3,.93,4.66-.93a6.39,6.39,0,0,0,1.67-3.91s-8.93-2.23-13.4-5.4S398.26,124.07,398.26,122.58Z" style="fill:#fff"></path><path d="M398.25,156.27c-2.38,0-3.92-.34-4.73-1.42-1.13-1.51-1.78-8.87-1.89-10.16A20.07,20.07,0,0,1,390,141.1a1,1,0,0,1,.4-1.22,13.48,13.48,0,0,0,2.12-2.34c1.28-1.69,1.18-2,.86-2.77a8,8,0,0,1-.59-3.26c0-4.26,5-9.09,5.18-9.29a.49.49,0,0,1,.54-.1.51.51,0,0,1,.3.46c0,1.44,2.76,13.12,7.05,16.15S419,144,419,144.05a.51.51,0,0,1,.38.49,6.85,6.85,0,0,1-1.8,4.24c-1.54,1.71-3.95,1.36-4.84,1.16-1,1.16-5,5.74-9.64,6.08C401.22,156.16,399.6,156.27,398.25,156.27Zm-7.35-15.54a1.64,1.64,0,0,1,0,.18,20.38,20.38,0,0,0,1.62,3.38.58.58,0,0,1,.07.21c.26,3.24.95,8.75,1.7,9.75.94,1.25,3.93,1.13,8.74.77s9.09-5.89,9.14-6a.51.51,0,0,1,.54-.17s2.7.81,4.13-.79a6.14,6.14,0,0,0,1.52-3.19c-1.84-.49-9.17-2.54-13.16-5.37s-6.7-12.41-7.33-15.87c-1.35,1.47-4.16,4.9-4.16,7.83a7,7,0,0,0,.52,2.89c.46,1.17.49,1.8-1,3.74a14.38,14.38,0,0,1-2.26,2.5Z" style="fill:#263238"></path><path d="M396.44,136.91c0,1.28-.38,2.31-.84,2.31s-.84-1-.84-2.31.37-2.31.84-2.31S396.44,135.63,396.44,136.91Z" style="fill:#263238"></path><path d="M397.28,134.68a.49.49,0,0,1-.48-.36,1.46,1.46,0,0,0-.71-1,1.15,1.15,0,0,0-.9,0,.5.5,0,0,1-.67-.23.51.51,0,0,1,.22-.67,2.21,2.21,0,0,1,1.75-.06,2.36,2.36,0,0,1,1.26,1.63.5.5,0,0,1-.33.62Z" style="fill:#263238"></path><path d="M393.68,146.71a1.58,1.58,0,0,1-.58-.1.5.5,0,0,1,.36-.93c.05,0,.83.23,2-.93a.5.5,0,0,1,.71,0,.48.48,0,0,1,0,.7A3.54,3.54,0,0,1,393.68,146.71Z" style="fill:#263238"></path><path d="M376.56,288.87a7.36,7.36,0,0,1-2.32-.92,4.4,4.4,0,0,1-3.17-2c-.18-.34-.39-.68-.59-1-.78-1.26-1.59-2.57-1.26-4,.36-1.62,2.27-8.91,2.35-9.22a.49.49,0,0,1,.25-.31.47.47,0,0,1,.4,0l8.11,2.88a.51.51,0,0,1,.34.48s0,.94-.19,3.1a7.41,7.41,0,0,1-1.37,3.66c.2.56.67,1.85.81,2.27a3.91,3.91,0,0,0,.25.44,3.24,3.24,0,0,1,.64,3,2.42,2.42,0,0,1-2.4,1.39A9.48,9.48,0,0,1,376.56,288.87Zm-4.16-16.44c-.46,1.75-1.9,7.31-2.2,8.65-.24,1.08.39,2.11,1.13,3.3.21.34.42.69.62,1a3.51,3.51,0,0,0,2.49,1.55.66.66,0,0,1,.2.06,8.07,8.07,0,0,0,1.92.84,9.52,9.52,0,0,0,1.67-.34.41.41,0,0,1,.19,0,1.46,1.46,0,0,0,1.47-.78c.29-.7-.2-1.48-.56-2.05A3.72,3.72,0,0,1,379,284c-.18-.54-.9-2.51-.9-2.51a.5.5,0,0,1,.1-.5,6.49,6.49,0,0,0,1.32-3.32c.11-1.37.15-2.24.17-2.68Z" style="fill:#263238"></path><path d="M378.8,288.19a.59.59,0,0,1-.23-.05,2.89,2.89,0,0,1-1.21-1.78l-.05-.14c-.23-.62-1.59-4.18-1.59-4.18l.94-.36s1.36,3.57,1.59,4.2l.05.14c.18.52.37,1.05.72,1.22a.49.49,0,0,1,.22.67A.48.48,0,0,1,378.8,288.19Z" style="fill:#263238"></path><path d="M376.56,288.87a.41.41,0,0,1-.19,0c-.89-.38-1.93-2.61-1.94-2.63-.28-.63-1.7-4-1.7-4l.92-.4s1.41,3.34,1.69,4a6.71,6.71,0,0,0,1.42,2.12.51.51,0,0,1,.26.66A.53.53,0,0,1,376.56,288.87Z" style="fill:#263238"></path><path d="M373,287.29a.49.49,0,0,1-.34-.14c-1.26-1.2-2.29-5.07-2.4-5.5a.5.5,0,0,1,.35-.61.49.49,0,0,1,.61.36c.29,1.11,1.24,4.18,2.13,5a.5.5,0,0,1,0,.71A.5.5,0,0,1,373,287.29Z" style="fill:#263238"></path><path d="M395.85,173.34s-6.85,18-7.57,28.67-6.67,39.3-6.67,39.3-2.89,12.26-4.51,17.13-6.67,13.88-6.67,13.88,4.87,3.07,9.56,5.41a48.72,48.72,0,0,0,9.19,3.43s11.72-20.92,15.33-30.29,5.59-26.33,6.49-29.21,4.32-10.46,3.06-19.29-3.24-21.1-3.24-22" style="fill:#407BFF"></path><path d="M389.18,281.66l-.12,0a49.59,49.59,0,0,1-9.3-3.46c-4.65-2.33-9.55-5.4-9.6-5.44a.5.5,0,0,1-.17-.66c.05-.09,5.05-9,6.64-13.8s4.46-17,4.49-17.08c.06-.28,5.95-28.75,6.66-39.23s7.54-28.63,7.6-28.81a.5.5,0,1,1,.94.36c-.07.18-6.83,18.08-7.54,28.52s-6.62,39.08-6.68,39.37-2.91,12.35-4.52,17.19c-1.44,4.31-5.46,11.7-6.48,13.55,1.26.77,5.27,3.21,9.11,5.13a49.18,49.18,0,0,0,8.72,3.3c1.52-2.73,11.81-21.31,15.11-29.89,2.47-6.42,4.17-16.39,5.29-23,.52-3,.9-5.26,1.19-6.19.13-.42.31-.94.53-1.54,1.25-3.52,3.58-10.09,2.52-17.53-.56-3.92-1.26-8.51-1.87-12.48-.88-5.78-1.38-9.08-1.38-9.59a.5.5,0,0,1,.5-.5.5.5,0,0,1,.5.5c0,.46.66,4.82,1.37,9.44.61,4,1.31,8.57,1.87,12.48,1.1,7.69-1.29,14.41-2.57,18-.21.58-.39,1.09-.52,1.5-.27.86-.66,3.15-1.15,6.06-1.13,6.64-2.85,16.67-5.35,23.18-3.57,9.3-15.24,30.14-15.35,30.35A.51.51,0,0,1,389.18,281.66Z" style="fill:#263238"></path></g><g id="freepik--device-1--inject-671"><polygon points="130.21 415.26 111.72 421.72 88.24 438.15 200.35 476.6 222.07 459.87 245.55 450.19 130.21 415.26" style="fill:#c2c2c2"></polygon><path d="M200.35,477.1a.45.45,0,0,1-.16,0L88.08,438.62a.5.5,0,0,1-.34-.4.53.53,0,0,1,.21-.48l23.48-16.43a.34.34,0,0,1,.12-.06L130,414.79a.47.47,0,0,1,.31,0L245.7,449.71a.49.49,0,0,1,.35.45.5.5,0,0,1-.31.49l-23.42,9.66L200.66,477A.57.57,0,0,1,200.35,477.1ZM89.33,438l110.93,38,21.51-16.57.11-.06,22.18-9.15L130.22,415.79,112,422.17Z" style="fill:#263238"></path><polygon points="114.06 427 100.86 435.51 194.78 467.5 207.1 456.64 114.06 427" style="fill:#263238"></polygon><path d="M194.78,468l-.17,0L100.7,436a.5.5,0,0,1-.34-.41.51.51,0,0,1,.23-.48l13.2-8.51a.54.54,0,0,1,.43-.06l93,29.65a.46.46,0,0,1,.34.37.49.49,0,0,1-.16.48l-12.32,10.86A.52.52,0,0,1,194.78,468ZM102,435.37l92.66,31.57,11.45-10.09-92-29.3Z" style="fill:#263238"></path><path d="M235.85,452l-106-31.13V93.68a13.14,13.14,0,0,1,3.85-9.29h0A13.17,13.17,0,0,1,143,80.54h77.14a15,15,0,0,1,12.17,6.21h0a15,15,0,0,1,2.85,8.79Z" style="fill:#fff;opacity:0.49"></path><path d="M235.85,452.52a.34.34,0,0,1-.14,0l-106-31.13a.5.5,0,0,1-.36-.48V93.68A13.66,13.66,0,0,1,143,80h77.13a15.52,15.52,0,0,1,15.53,15.5L236.35,452a.48.48,0,0,1-.2.4A.47.47,0,0,1,235.85,452.52Zm-105.49-32,105,30.84-.69-355.82a14.38,14.38,0,0,0-2.76-8.49,14.57,14.57,0,0,0-11.77-6H143a12.63,12.63,0,0,0-12.64,12.64Z" style="fill:#263238"></path><polygon points="94.88 327.15 179.88 344.99 204.37 337.64 126.72 320.5 94.88 327.15" style="fill:#ababab"></polygon><path d="M179.88,345.49l-.1,0-85-17.83a.51.51,0,0,1-.4-.49.5.5,0,0,1,.4-.49L126.61,320h.21l77.66,17.14a.5.5,0,0,1,0,1L180,345.46A.4.4,0,0,1,179.88,345.49ZM97.32,327.15l82.54,17.32,22.52-6.76L126.71,321Z" style="fill:#263238"></path><path d="M179.89,341.19h-.22a2.5,2.5,0,0,1-2.28-2.71c.42-4.81-1.47-11.26-3.48-18.09-1.11-3.76-2.25-7.65-3.11-11.59-2.49-11.35-2.14-28.87-2.12-29.62a2.49,2.49,0,0,1,2.49-2.44h.06a2.49,2.49,0,0,1,2.44,2.55c0,.18-.35,17.67,2,28.44.82,3.77,1.94,7.57,3,11.25,2.15,7.3,4.17,14.19,3.68,19.94A2.51,2.51,0,0,1,179.89,341.19Z" style="fill:#fff"></path><path d="M179.89,341.69h-.27a3,3,0,0,1-2.72-3.25c.41-4.72-1.48-11.12-3.47-17.91-1.11-3.76-2.25-7.65-3.12-11.62-2.5-11.43-2.15-29-2.14-29.74a3,3,0,0,1,6,.13c0,.18-.36,17.56,2,28.33.82,3.75,1.94,7.54,3,11.21,2.16,7.34,4.2,14.27,3.69,20.12A3,3,0,0,1,179.89,341.69Zm-8.67-64.46a2,2,0,0,0-2.05,2c0,.73-.36,18.18,2.11,29.5.87,3.93,2,7.81,3.11,11.55,2,6.88,3.93,13.37,3.5,18.28a2,2,0,0,0,1.82,2.16h.18a2,2,0,0,0,2-1.83c.49-5.65-1.52-12.5-3.66-19.75-1.08-3.68-2.2-7.49-3-11.28-2.38-10.88-2-28.38-2-28.56a1.93,1.93,0,0,0-.55-1.42,2,2,0,0,0-1.4-.62Z" style="fill:#263238"></path><polygon points="94.88 327.15 94.88 407.25 180.58 432.78 180.58 344.99 94.88 327.15" style="fill:#c2c2c2"></polygon><path d="M180.58,433.28a.36.36,0,0,1-.14,0l-85.7-25.53a.5.5,0,0,1-.36-.48v-80.1a.51.51,0,0,1,.61-.49l85.7,17.84a.49.49,0,0,1,.39.49v87.79a.48.48,0,0,1-.2.4A.45.45,0,0,1,180.58,433.28Zm-85.2-26.4,84.7,25.23V345.39l-84.7-17.63Z" style="fill:#263238"></path><polygon points="180.58 344.99 204.37 337.64 204.37 424.39 180.58 432.78 180.58 344.99" style="fill:#787878"></polygon><path d="M180.58,433.28a.47.47,0,0,1-.28-.09.48.48,0,0,1-.22-.41V345a.5.5,0,0,1,.36-.48l23.78-7.35a.52.52,0,0,1,.45.08.51.51,0,0,1,.2.4v86.75a.5.5,0,0,1-.33.47l-23.79,8.4Zm.5-87.93v86.73l22.79-8V338.32Z" style="fill:#263238"></path><polygon points="196.06 339.71 204.37 337.64 230.86 342.81 222.21 345.34 196.06 339.71" style="fill:#fff"></polygon><path d="M222.21,345.84h-.11L196,340.2a.5.5,0,0,1,0-1l8.31-2.07h.22L231,342.32a.5.5,0,0,1,0,1l-8.65,2.53Zm-23.93-6.17,23.91,5.15,6.56-1.91-24.37-4.76Z" style="fill:#263238"></path><rect x="192.3" y="241.32" width="5.84" height="23.64" style="fill:#263238"></rect><path d="M198.13,265.46H192.3a.5.5,0,0,1-.5-.5V241.32a.5.5,0,0,1,.5-.5h5.83a.5.5,0,0,1,.5.5V265A.5.5,0,0,1,198.13,265.46Zm-5.33-1h4.83V241.82H192.8Z" style="fill:#263238"></path><polygon points="202.27 280.27 202.27 340.79 222.21 345.34 222.21 277.13 202.27 280.27" style="fill:#c2c2c2"></polygon><path d="M222.21,345.84l-.11,0-19.94-4.54a.51.51,0,0,1-.39-.49V280.27a.5.5,0,0,1,.42-.49l19.94-3.15a.48.48,0,0,1,.4.12.46.46,0,0,1,.18.38v68.21a.5.5,0,0,1-.5.5Zm-19.44-5.45,18.94,4.32v-67l-18.94,3Z" style="fill:#263238"></path><polygon points="222.21 345.34 228.2 343.25 228.2 277.43 222.21 277.13 222.21 345.34" style="fill:#787878"></polygon><path d="M222.21,345.84a.53.53,0,0,1-.29-.1.49.49,0,0,1-.21-.4V277.13a.56.56,0,0,1,.15-.37.47.47,0,0,1,.37-.13l6,.3a.5.5,0,0,1,.47.5v65.82a.5.5,0,0,1-.33.47l-6,2.09A.45.45,0,0,1,222.21,345.84Zm.5-68.19v67l5-1.73v-65Z" style="fill:#263238"></path><polygon points="222.22 345.57 222.21 345.34 202.27 340.79 196.06 339.71 196.06 443.43 222.22 452.68 222.22 345.57" style="fill:#c2c2c2"></polygon><path d="M222.22,453.18a.47.47,0,0,1-.17,0L195.9,443.9a.51.51,0,0,1-.34-.47V339.71a.53.53,0,0,1,.18-.39.55.55,0,0,1,.41-.11l6.21,1.09,20,4.55a.5.5,0,0,1,.39.47V452.68a.49.49,0,0,1-.21.4A.46.46,0,0,1,222.22,453.18Zm-25.66-10.1L221.72,452V345.74l-19.56-4.46-5.6-1Z" style="fill:#263238"></path><polygon points="222.22 452.68 230.42 449.86 230.86 342.81 222.21 345.34 222.22 452.68" style="fill:#787878"></polygon><path d="M222.22,453.18a.43.43,0,0,1-.29-.1.49.49,0,0,1-.21-.4V345.34a.5.5,0,0,1,.36-.48l8.65-2.53a.46.46,0,0,1,.44.08.48.48,0,0,1,.2.4l-.44,107.05a.51.51,0,0,1-.34.47l-8.2,2.82A.45.45,0,0,1,222.22,453.18Zm.49-107.47V452l7.2-2.48.44-106Z" style="fill:#263238"></path><polygon points="158.87 179.87 143.29 243.74 199.23 251.92 215.3 184.41 158.87 179.87" style="fill:#787878"></polygon><path d="M199.23,252.42h-.08l-55.93-8.18a.47.47,0,0,1-.34-.22.49.49,0,0,1-.08-.39l15.58-63.88a.52.52,0,0,1,.53-.38l56.43,4.54a.46.46,0,0,1,.36.2.51.51,0,0,1,.09.41L199.71,252A.49.49,0,0,1,199.23,252.42Zm-55.32-9.09,54.94,8,15.83-66.5-55.43-4.46Z" style="fill:#263238"></path><polygon points="161.51 184.53 147.94 240.15 196.65 247.27 210.65 188.47 161.51 184.53" style="fill:#263238"></polygon><path d="M196.65,247.77h-.07l-48.71-7.12a.51.51,0,0,1-.34-.21.48.48,0,0,1-.07-.4L161,184.41a.51.51,0,0,1,.53-.38L210.69,188a.47.47,0,0,1,.36.2.47.47,0,0,1,.08.41l-14,58.79A.51.51,0,0,1,196.65,247.77Zm-48.09-8,47.71,7L210,188.93l-48.14-3.87Z" style="fill:#263238"></path><path d="M151.7,241.71a.5.5,0,0,1-.5-.47l-.32-4.52a.48.48,0,0,1,.1-.35c.12-.14,2.82-3.46,6.94-2.77s7.56-.19,12.94-3.18c5-2.77,7.54-6.62,7.18-10.84-.29-3.57-4.31-11.25-7.95-15.23s-3.69-18.17-3.69-18.77a.5.5,0,0,1,.5-.5.5.5,0,0,1,.5.5c0,.14,0,14.4,3.43,18.09s7.86,11.65,8.21,15.83c.39,4.63-2.35,8.82-7.69,11.8-5.61,3.11-9.29,4-13.59,3.29a6.81,6.81,0,0,0-5.87,2.26l.31,4.32a.5.5,0,0,1-.47.54Z" style="fill:#407BFF"></path><path d="M151.52,234.25a.5.5,0,0,1-.43-.76,8,8,0,0,1,2.3-2.12c1.19-.79,2.52-.51,4.06-.19a18.41,18.41,0,0,0,3.05.46c3.15.17,9.35-2.2,12-4.19s3.56-3.86,3.92-8c.27-3.08-2.7-7-4.47-9.33-.49-.65-.91-1.21-1.18-1.63l-5-7.88.85-.53,5,7.87c.25.39.66.93,1.14,1.56,2,2.62,5,6.57,4.67,10-.39,4.48-1.44,6.61-4.32,8.77s-9.27,4.58-12.67,4.39a20.94,20.94,0,0,1-3.2-.48c-1.43-.3-2.46-.52-3.29,0a7,7,0,0,0-2,1.81A.49.49,0,0,1,151.52,234.25Z" style="fill:#407BFF"></path><path d="M151.88,231a.47.47,0,0,1-.35-.15.48.48,0,0,1,0-.7,9.5,9.5,0,0,1,2.65-1.72c.94-.41,2.21-.08,3.81.33a15.47,15.47,0,0,0,5.29.71,12.29,12.29,0,0,0,9.26-6.51c1.53-3.4.64-7-1-8.56-1.82-1.82-7.36-11.33-7.6-11.74a.5.5,0,0,1,.18-.68.51.51,0,0,1,.69.18c0,.1,5.71,9.81,7.43,11.53,1.9,1.89,2.91,5.83,1.18,9.68a13.15,13.15,0,0,1-10.07,7.09,16.42,16.42,0,0,1-5.64-.73c-1.36-.35-2.54-.65-3.15-.38a8.42,8.42,0,0,0-2.36,1.51A.5.5,0,0,1,151.88,231Z" style="fill:#407BFF"></path><path d="M163.24,227.29a25.64,25.64,0,0,1-5.21-.56,4.82,4.82,0,0,0-3.55.46.5.5,0,0,1-.55-.83,5.8,5.8,0,0,1,4.33-.61c2.3.53,6.64.85,8.44,0a8.34,8.34,0,0,0,4.18-7.91c-.33-4.06-6.22-9.64-6.28-9.7a.5.5,0,1,1,.68-.72c.26.24,6.23,5.9,6.6,10.34a9.28,9.28,0,0,1-4.76,8.9A10.11,10.11,0,0,1,163.24,227.29Z" style="fill:#407BFF"></path><path d="M163.87,225.31a20.77,20.77,0,0,1-3-.3,13.56,13.56,0,0,0-3.07-.24l-1.61.18a.51.51,0,0,1-.55-.45.5.5,0,0,1,.44-.55l1.61-.18a14.41,14.41,0,0,1,3.33.25,20.63,20.63,0,0,0,2.81.29,5.5,5.5,0,0,0,3.7-1.74,4.57,4.57,0,0,0,1.17-3.62c-.34-3.84-4.24-6.77-4.27-6.8a.5.5,0,0,1-.11-.7.51.51,0,0,1,.7-.11c.18.13,4.3,3.23,4.67,7.52a5.54,5.54,0,0,1-1.43,4.38A6.4,6.4,0,0,1,163.87,225.31Z" style="fill:#407BFF"></path><path d="M156.53,223.52a.5.5,0,0,1-.47-.34.51.51,0,0,1,.31-.64c.17-.06,4.23-1.46,6.64-1.27,1.27.09,2.21.13,2.73-.32a3,3,0,0,0,.67-2.08c.16-2.72-3.5-5.25-3.54-5.28a.49.49,0,0,1-.13-.69.5.5,0,0,1,.69-.14c.17.12,4.17,2.89,4,6.17a3.77,3.77,0,0,1-1,2.77c-.81.71-1.94.68-3.45.56-2.19-.16-6.2,1.22-6.24,1.23A.51.51,0,0,1,156.53,223.52Z" style="fill:#407BFF"></path><path d="M178.54,223.55a1.26,1.26,0,0,1,1.07,1.79c-.53,1.61-2.14,1.43-2.32.72Z" style="fill:#407BFF"></path><path d="M178.14,227.08h-.07a1.29,1.29,0,0,1-1.27-.9.53.53,0,0,1,0-.35l1.25-2.5a.48.48,0,0,1,.5-.27,2,2,0,0,1,1.39.81,1.86,1.86,0,0,1,.11,1.63A2.1,2.1,0,0,1,178.14,227.08Zm-.28-1.06a.57.57,0,0,0,.25.06c.35,0,.8-.21,1-.89a.94.94,0,0,0,0-.78.73.73,0,0,0-.34-.26Z" style="fill:#407BFF"></path><polygon points="215.3 184.41 217.94 187.19 202.73 252.62 199.23 251.92 215.3 184.41" style="fill:#787878"></polygon><path d="M202.73,253.12h-.1l-3.5-.7a.45.45,0,0,1-.32-.22.47.47,0,0,1-.07-.38l16.07-67.52a.5.5,0,0,1,.85-.23l2.64,2.78a.5.5,0,0,1,.13.46l-15.21,65.43A.51.51,0,0,1,202.73,253.12Zm-2.9-1.59,2.52.5,15-64.69-1.82-1.92Z" style="fill:#263238"></path><polygon points="197.94 187.45 184.06 245.43 196.65 247.27 210.65 188.47 197.94 187.45" style="fill:#407BFF"></polygon><path d="M196.65,247.77h-.07L184,245.92a.51.51,0,0,1-.34-.21.47.47,0,0,1-.07-.4l13.88-58A.49.49,0,0,1,198,187l12.71,1a.47.47,0,0,1,.36.2.47.47,0,0,1,.08.41l-14,58.79A.51.51,0,0,1,196.65,247.77Zm-12-2.76,11.59,1.7L210,188.93l-11.7-.94Z" style="fill:#263238"></path><polygon points="129.97 253.84 239.48 268.97 174.44 282.88 75.52 266.25 129.97 253.84" style="fill:#c2c2c2"></polygon><path d="M174.44,283.39h-.08L75.44,266.74a.5.5,0,0,1,0-1l54.45-12.4a.37.37,0,0,1,.18,0l109.51,15.12a.5.5,0,0,1,0,1l-65,13.92ZM78.1,266.17l96.33,16.21,62.17-13.3L130,254.35Z" style="fill:#263238"></path><polygon points="126.24 258.3 157.48 264.55 140.94 272.26 107.5 266.38 126.24 258.3" style="fill:#263238"></polygon><path d="M140.94,272.76h-.08l-33.44-5.88a.5.5,0,0,1-.41-.44.47.47,0,0,1,.3-.51l18.74-8.09a.48.48,0,0,1,.29,0l31.24,6.25a.5.5,0,0,1,.4.43.5.5,0,0,1-.29.51l-16.54,7.72A.46.46,0,0,1,140.94,272.76Zm-31.7-6.58,31.63,5.57,15-7-29.59-5.92Z" style="fill:#263238"></path><polygon points="174.44 282.88 174.44 286.51 239.48 276.23 239.48 268.97 174.44 282.88" style="fill:#787878"></polygon><path d="M174.44,287a.51.51,0,0,1-.5-.5v-3.63a.5.5,0,0,1,.4-.49l65-13.92a.53.53,0,0,1,.42.1.53.53,0,0,1,.18.39v7.26a.49.49,0,0,1-.42.49l-65,10.29Zm.5-3.73v2.64l64-10.13v-6.21Z" style="fill:#263238"></path><path d="M182.27,266.11a2.68,2.68,0,0,0,.18,1.88c.47,1.17.93,1.63-1.16,2.33s-7.23,1.63-10.49,2.33-5.36.93-6.52,0,.23-2.56.93-2.79,8.39-4.2,10.72-4.9S182.27,266.11,182.27,266.11Z" style="fill:#263238"></path><path d="M166.52,273.77A3.94,3.94,0,0,1,164,273a1.62,1.62,0,0,1-.6-1.6,3,3,0,0,1,1.69-2.06c.2-.06,1.31-.61,2.49-1.18a88,88,0,0,1,8.24-3.72c2.48-.74,6.52,1.1,6.7,1.17a.5.5,0,0,1,.25.63,2.35,2.35,0,0,0,.19,1.53l.13.32a1.82,1.82,0,0,1,.2,1.51c-.21.46-.73.8-1.81,1.16-1.54.51-4.72,1.16-7.52,1.72l-3,.62A22.07,22.07,0,0,1,166.52,273.77Zm10.64-8.47a3.78,3.78,0,0,0-1.09.14c-1.52.46-5.48,2.39-8.1,3.66-1.54.75-2.35,1.15-2.6,1.23a2.12,2.12,0,0,0-1,1.29.6.6,0,0,0,.25.64c1,.8,3,.57,6.11-.1l3-.62c2.77-.56,5.92-1.2,7.41-1.69,1-.33,1.17-.55,1.21-.62s-.09-.41-.21-.71l-.14-.34a3.71,3.71,0,0,1-.29-1.77A13.59,13.59,0,0,0,177.16,265.3Z" style="fill:#263238"></path></g><g id="freepik--character-1--inject-671"><path d="M83.8,444.06a16.21,16.21,0,0,0,3.71,2.65c1.33.45,5.3.67,5.74,2.43s.44,4.19-4.85,7.05-11.25,4.19-13,5.08a7.57,7.57,0,0,1-3.75.66L71,457.8s5.23-2.71,7.43-6.9A25.44,25.44,0,0,1,83.8,444.06Z" style="fill:#fff"></path><path d="M72.23,462.45a4.53,4.53,0,0,1-.65,0,.49.49,0,0,1-.43-.42l-.6-4.13a.51.51,0,0,1,.26-.51s5.12-2.69,7.22-6.69a25.67,25.67,0,0,1,5.45-7,.5.5,0,0,1,.66,0,15,15,0,0,0,3.53,2.54,13.14,13.14,0,0,0,1.32.3c1.83.36,4.33.84,4.74,2.48.5,2,.37,4.65-5.1,7.61a58.79,58.79,0,0,1-10,4,28.85,28.85,0,0,0-3,1.07A7.78,7.78,0,0,1,72.23,462.45Zm-.15-1a6.91,6.91,0,0,0,3.08-.63,26.65,26.65,0,0,1,3.16-1.13,58,58,0,0,0,9.84-3.94c5.48-3,4.89-5.35,4.6-6.49s-2.48-1.45-4-1.74a12.22,12.22,0,0,1-1.44-.33,14.29,14.29,0,0,1-3.56-2.45,25.36,25.36,0,0,0-4.88,6.4c-2,3.72-6.14,6.27-7.33,6.94Z" style="fill:#263238"></path><path d="M85.77,323.35s-3.6,57.25-4.91,74.59,1,43.18,1,43.18l2,2.94a22.77,22.77,0,0,1-2.29,7.2c-2,3.93-10.47,6.54-10.47,6.54s-2.29-6.87-1.63-12.43,2.29-81.45,2.29-88.32-1-31.08-1-31.08Z" style="fill:#407BFF"></path><path d="M71,458.3a.49.49,0,0,1-.47-.34c-.09-.28-2.32-7-1.66-12.65s2.29-80.76,2.29-88.26c0-6.78-1-30.82-1-31.06a.49.49,0,0,1,.41-.51l15.05-2.62a.49.49,0,0,1,.42.12.51.51,0,0,1,.16.41c0,.57-3.61,57.44-4.9,74.59-1.25,16.48.8,41,1,43l1.89,2.84a.51.51,0,0,1,.08.32A23.14,23.14,0,0,1,82,451.48c-2,4.07-10.41,6.69-10.77,6.8A.39.39,0,0,1,71,458.3Zm.19-131.91c.14,3.31,1,24.37,1,30.66,0,7.51-1.64,82.84-2.29,88.38-.54,4.56,1,10.1,1.46,11.74,1.79-.61,8.11-3,9.7-6.13a23.41,23.41,0,0,0,2.21-6.85l-1.86-2.79a.62.62,0,0,1-.08-.24c0-.26-2.28-26.08-1-43.26,1.22-16.15,4.47-67.63,4.87-73.94Z" style="fill:#263238"></path><path d="M43.57,323.68l5.88,60.52s-2.29,29.44-.65,39.25,3.6,39.91,3.6,39.91-.33,13.74-.33,15.38,1,3.27,5.56,3.27h8.51s11.77,2.29,16,2.29,10.14-2.62,11.77-3.93,1-4.58-4.9-6.87-10.14-5.23-10.8-6.21,1.64-8.18,1.64-8.18-3.6-4.25-3.6-5.23v-9.82S77.91,413,77.59,399.9s4.9-72,4.9-72l-.32-4.58Z" style="fill:#407BFF"></path><path d="M82.17,484.8c-4.26,0-15.65-2.21-16.13-2.3H57.63c-4,0-6.06-1.27-6.06-3.77,0-1.62.32-14.83.33-15.39,0-.25-2-30.14-3.59-39.81s.55-38.17.65-39.38l-5.89-60.43a.47.47,0,0,1,.12-.38.5.5,0,0,1,.37-.17l38.6-.33a.48.48,0,0,1,.51.47L83,327.9c0,.67-5.23,59.08-4.9,72s-1.3,43.89-1.31,44.2v9.79c0,.53,1.83,3,3.48,4.91a.47.47,0,0,1,.09.47c-1,3.26-2,7.15-1.69,7.76.58.87,4.84,3.8,10.56,6,3.48,1.35,5.66,3.27,6,5.26a2.57,2.57,0,0,1-.92,2.46C92.52,482.15,86.47,484.8,82.17,484.8ZM44.12,324.18l5.83,60c0,.38-2.26,29.58-.66,39.22s3.59,39.66,3.61,40-.33,13.8-.33,15.41c0,1.19.53,2.77,5.06,2.77h8.51c.21,0,11.87,2.29,16,2.29S92,481.29,93.63,480a1.55,1.55,0,0,0,.56-1.53c-.24-1.6-2.24-3.27-5.33-4.48-5.66-2.2-10.24-5.21-11-6.4-.69-1,.75-6,1.49-8.35-1.2-1.42-3.54-4.34-3.54-5.34v-9.82c0-.33,1.63-31.23,1.31-44.15s4.85-71.43,4.91-72l-.3-4Z" style="fill:#263238"></path><path d="M69.46,457.63a.48.48,0,0,1-.38-.17.49.49,0,0,1,0-.7c.78-.69,1.53-1.36,2.21-2a.5.5,0,0,1,.68.74c-.68.64-1.44,1.32-2.23,2A.52.52,0,0,1,69.46,457.63Z" style="fill:#263238"></path><path d="M57.18,467.49a.5.5,0,0,1-.3-.9s4.68-3.51,9.2-7.25a.52.52,0,0,1,.71.07.5.5,0,0,1-.07.7c-4.54,3.75-9.19,7.25-9.24,7.28A.47.47,0,0,1,57.18,467.49Z" style="fill:#263238"></path><path d="M62.32,456.45a.45.45,0,0,1-.31-.11.5.5,0,0,1-.08-.7c3.59-4.49,9.78-15.49,10.9-38.76a.49.49,0,0,1,.52-.47.5.5,0,0,1,.48.52c-1.13,23.55-7.45,34.75-11.12,39.33A.48.48,0,0,1,62.32,456.45Z" style="fill:#263238"></path><path d="M59.16,459.58a.49.49,0,0,1-.42-.23.5.5,0,0,1,.15-.69,7.14,7.14,0,0,0,.83-.65.5.5,0,0,1,.66.74,9.12,9.12,0,0,1-1,.76A.54.54,0,0,1,59.16,459.58Z" style="fill:#263238"></path><path d="M44.33,330.58s13.51,6.26,22.41,6.59a97.24,97.24,0,0,0,14.17-.33l4-2,.91-5.29L43,326.29Z" style="fill:#263238"></path><path d="M71.58,337.76q-2.2,0-4.86-.09c-8.89-.33-22-6.38-22.6-6.64a.52.52,0,0,1-.27-.31l-1.31-4.28a.5.5,0,0,1,.08-.46.52.52,0,0,1,.43-.19l42.75,3.28a.52.52,0,0,1,.36.19.51.51,0,0,1,.1.39l-.91,5.29a.48.48,0,0,1-.26.37l-4,2a.3.3,0,0,1-.16.05A82.68,82.68,0,0,1,71.58,337.76Zm-26.84-7.55c1.72.78,13.91,6.16,22,6.46a100.1,100.1,0,0,0,14-.32l3.65-1.82.77-4.5-41.47-3.18Z" style="fill:#263238"></path><path d="M66.14,482s11.77,2.29,16,2.29,10.14-2.62,11.77-3.93,1-4.58-4.9-6.87-10.14-5.23-10.8-6.21c0,0-10.47,4.91-16.35,5.89a46.54,46.54,0,0,1-9.72,0c-.05,2.63-.1,4.91-.1,5.52,0,1.63,1,3.27,5.56,3.27Z" style="fill:#fff"></path><path d="M82.17,484.8c-4.16,0-15.15-2.11-16.08-2.29H57.63c-4,0-6.06-1.27-6.06-3.77,0-.61,0-2.9.1-5.53a.53.53,0,0,1,.17-.36.5.5,0,0,1,.37-.13,43.91,43.91,0,0,0,9.59,0c5.76-.95,16.12-5.8,16.23-5.84a.5.5,0,0,1,.63.17c.58.88,4.84,3.81,10.56,6,3.48,1.35,5.66,3.27,6,5.26a2.57,2.57,0,0,1-.92,2.46C92.52,482.15,86.47,484.8,82.17,484.8Zm-29.51-11c0,2.39-.09,4.41-.09,5,0,1.19.53,2.77,5.06,2.77h8.6c.12,0,11.78,2.28,15.94,2.28S92,481.29,93.63,480a1.55,1.55,0,0,0,.56-1.53c-.24-1.6-2.24-3.27-5.33-4.48-5.18-2-9.46-4.71-10.76-6.07-1.89.88-10.78,4.88-16.13,5.77A44.08,44.08,0,0,1,52.66,473.76Z" style="fill:#263238"></path><path d="M56.75,172.34s-13.18,17.22-14.49,31,3.27,46.12,3.27,47.43-9.81,36.64-10.14,49.73a178.64,178.64,0,0,0,1.31,25.18s9.81,5.57,24.53,6.22,24.54-2.29,24.54-2.29l7.85-2.29s2-31.73,2-59.86,0-46.46-3.27-56.6-11.12-26.49-11.12-26.49Z" style="fill:#fff"></path><path d="M65.44,332.45q-2,0-4.23-.09a60.38,60.38,0,0,1-24.76-6.28.49.49,0,0,1-.25-.37,180.09,180.09,0,0,1-1.31-25.27c.25-9.86,5.9-32.48,8.61-43.35.81-3.23,1.51-6,1.53-6.36s-.18-1.71-.41-3.62c-1.08-8.92-3.93-32.64-2.86-43.86,1.31-13.72,14.05-30.5,14.59-31.21a.5.5,0,0,1,.62-.14l24.44,12a.51.51,0,0,1,.23.23c.07.16,7.9,16.5,11.14,26.56,3.3,10.22,3.3,28.73,3.3,56.75,0,27.82-2,59.57-2,59.89a.52.52,0,0,1-.36.45l-7.85,2.29A79.05,79.05,0,0,1,65.44,332.45Zm-28.28-7.12a60.31,60.31,0,0,0,24.09,6c14.46.64,24.27-2.24,24.37-2.27l7.52-2.19c.21-3.55,1.94-33.27,1.94-59.48,0-27.93,0-46.38-3.25-56.44-3-9.47-10.21-24.58-11-26.28L56.9,173c-1.8,2.43-13,18-14.14,30.37-1.06,11.11,1.78,34.74,2.85,43.64.29,2.41.42,3.48.42,3.74s-.38,1.91-1.55,6.61c-2.71,10.83-8.35,33.37-8.59,43.13A180.29,180.29,0,0,0,37.16,325.33Z" style="fill:#263238"></path><path d="M91,127.72a13.87,13.87,0,0,1,2.08,4.6c.36,2.13,0,5.5.89,6.74s4.26,3.55,3.2,5-2,2.84-2,2.84-.71,6.92-1.06,9.4-.36,3.55-2.66,4.08-8.16.18-8.16.18a48.7,48.7,0,0,1-2,9.05c-1.42,4.08-3,8.87-3,8.87l-18.45-8.7a38.11,38.11,0,0,0,1.24-8,15.17,15.17,0,0,0-.71-5.15s-3-9.4,5.68-17.74S91,127.72,91,127.72Z" style="fill:#fff"></path><path d="M78.31,179a.5.5,0,0,1-.21,0l-18.45-8.69a.5.5,0,0,1-.27-.59,38.06,38.06,0,0,0,1.22-7.85,15.29,15.29,0,0,0-.67-5c0-.13-3-9.83,5.79-18.29s24.48-11.18,25.14-11.3a.51.51,0,0,1,.5.21,14.32,14.32,0,0,1,2.17,4.81,22.53,22.53,0,0,1,.2,2.72c.06,1.47.12,3.14.6,3.81a11.27,11.27,0,0,0,1.13,1.2c1.37,1.33,3.08,3,2.06,4.36-.89,1.17-1.65,2.36-1.87,2.7-.1.93-.73,7-1.06,9.31l-.06.45c-.3,2.16-.48,3.47-3,4.05a40.45,40.45,0,0,1-7.83.21,47,47,0,0,1-1.92,8.69c-1.42,4.08-3,8.86-3,8.86a.49.49,0,0,1-.27.31A.71.71,0,0,1,78.31,179Zm-17.86-9.47L78,177.75c.46-1.36,1.71-5.07,2.84-8.34a47.62,47.62,0,0,0,1.93-8.94.49.49,0,0,1,.53-.44c.06,0,5.81.34,8-.17,1.82-.42,1.91-1.07,2.21-3.21l.06-.45c.35-2.45,1.06-9.32,1.07-9.38a.44.44,0,0,1,.07-.22c0-.06.91-1.45,2-2.87.49-.67-1-2.1-2-3a10.13,10.13,0,0,1-1.24-1.33c-.66-.91-.72-2.58-.79-4.36a20.16,20.16,0,0,0-.19-2.59,13,13,0,0,0-1.82-4.13c-2.31.45-16.49,3.48-24.31,11-8.35,8-5.57,17.14-5.54,17.23a15.61,15.61,0,0,1,.73,5.3A36.84,36.84,0,0,1,60.45,169.48Z" style="fill:#263238"></path><path d="M92.89,138.19c0,1.16-.41,2.11-.91,2.11s-.91-1-.91-2.11.41-2.12.91-2.12S92.89,137,92.89,138.19Z" style="fill:#263238"></path><path d="M90.43,135.62a.54.54,0,0,1-.21-.05.49.49,0,0,1-.24-.66c.06-.15.69-1.43,1.66-1.63a1.36,1.36,0,0,1,1.2.35.5.5,0,1,1-.65.75.42.42,0,0,0-.35-.13c-.34.08-.77.68-1,1.08A.49.49,0,0,1,90.43,135.62Z" style="fill:#263238"></path><path d="M93.69,150.41a6.09,6.09,0,0,1-3.11-1.11.5.5,0,0,1-.16-.68.51.51,0,0,1,.69-.17c2.44,1.52,3.26.79,3.27.78a.52.52,0,0,1,.7,0,.5.5,0,0,1,0,.68A1.87,1.87,0,0,1,93.69,150.41Z" style="fill:#263238"></path><path d="M63.66,114.87s-9.31,1-13.17,9.31-4.81,17-1,25.69,9.31,13.48,16,11.24,9.64-9,9-11.56-1-4.82-1-4.82l4.82-3.53s2.24,3.53,3.85,1.61.64-5.14.64-5.14l3.53-3.85a7.35,7.35,0,0,0,4.5-6.1c.64-4.82.64-12.2-3.21-12.85a8.24,8.24,0,0,0-6.42,1.61S67.51,112.63,63.66,114.87Z" style="fill:#263238"></path><path d="M62.4,162.15c-5.17,0-9.81-4.17-13.33-12.08-3.6-8.11-3.28-16.89,1-26.09,3.7-8,12.39-9.44,13.46-9.59,3.84-2.08,15.77,1,17.7,1.54a8.81,8.81,0,0,1,6.62-1.55c4.91.82,4,10.47,3.62,13.4a7.81,7.81,0,0,1-4.7,6.46l-3.27,3.57c.21.87.68,3.53-.81,5.32a1.87,1.87,0,0,1-1.59.75c-1.18-.08-2.25-1.29-2.76-2L74.15,145c.11.68.41,2.49.91,4.47.72,2.86-2.35,9.83-9.32,12.15A10.47,10.47,0,0,1,62.4,162.15Zm5.07-47.48a7.42,7.42,0,0,0-3.56.64.66.66,0,0,1-.2.06c-.09,0-9.08,1-12.76,9-4.12,8.93-4.45,17.44-1,25.28,2.84,6.4,7.83,13.49,15.44,11,6.55-2.18,9.23-8.68,8.66-11-.64-2.56-1-4.84-1-4.87a.49.49,0,0,1,.2-.47l4.81-3.53a.49.49,0,0,1,.39-.09.53.53,0,0,1,.33.22c.31.49,1.4,1.89,2.29,1.95a.88.88,0,0,0,.76-.39c1.41-1.7.55-4.65.54-4.68a.5.5,0,0,1,.11-.48l3.53-3.85a.6.6,0,0,1,.21-.14,6.78,6.78,0,0,0,4.16-5.69c.71-5.33.41-11.75-2.79-12.28a7.69,7.69,0,0,0-6,1.49.5.5,0,0,1-.47.1C78.37,116.18,71.86,114.67,67.47,114.67Zm-3.81.2h0Z" style="fill:#263238"></path><ellipse cx="49.02" cy="141.43" rx="6.85" ry="7.81" style="fill:#263238"></ellipse><path d="M49,149.74c-4.06,0-7.35-3.73-7.35-8.31S45,133.12,49,133.12s7.34,3.73,7.34,8.31S53.07,149.74,49,149.74Zm0-15.62c-3.5,0-6.35,3.28-6.35,7.31s2.85,7.31,6.35,7.31,6.34-3.28,6.34-7.31S52.52,134.12,49,134.12Z" style="fill:#263238"></path><path d="M82,144.21s-3.38-5.33-6.57-3.91-2.31,5.86.53,9,5.68,3.73,6.39,2.31" style="fill:#fff"></path><path d="M81,152.9c-1.55,0-3.57-1.2-5.36-3.22-2-2.26-3-5.06-2.58-7.13a3.73,3.73,0,0,1,2.22-2.7c3.55-1.58,7,3.86,7.19,4.09a.49.49,0,0,1-.16.69.5.5,0,0,1-.69-.16c0-.05-3.17-4.93-5.94-3.71a2.73,2.73,0,0,0-1.64,2c-.38,1.77.54,4.22,2.35,6.26,2.06,2.32,3.9,3,4.85,2.87a.84.84,0,0,0,.71-.46.51.51,0,0,1,.67-.22.5.5,0,0,1,.23.67,1.87,1.87,0,0,1-1.48,1Z" style="fill:#263238"></path><path d="M58.68,166s21.74,12.39,22.84,13.77.28,8.53.28,8.53l-25-16Z" style="fill:#fff"></path><path d="M81.8,188.81a.5.5,0,0,1-.27-.08l-25.05-16a.51.51,0,0,1-.21-.57l1.93-6.33a.49.49,0,0,1,.29-.32.47.47,0,0,1,.43,0c2.24,1.27,21.86,12.47,23,13.88s.52,7.67.38,8.9a.49.49,0,0,1-.28.4A.54.54,0,0,1,81.8,188.81ZM57.34,172.13l24,15.32c.27-2.84.36-6.6-.25-7.36-.74-.93-13.75-8.54-22.16-13.33Z" style="fill:#263238"></path><path d="M76.28,194.14c6.21,4.25,33,52.34,33,52.34l45.47,19.3s6.21-4.91,8.5-5.23,9.16-.33,10.14-.33,6.55,3.6,6.55,3.6,3.6,1.31,2.29,2.29-5.56,1.31-5.56,1.31L167.87,271s-6.54,1.64-8.83,1.64h-2.29s-51.36-7.85-53-7.85c-1.27,0-25.54-29.3-36.39-42.46" style="fill:#fff"></path><path d="M159,273.15h-2.29c-14.35-2.19-51.68-7.85-53-7.85-.5,0-1.65,0-36.78-42.65a.5.5,0,0,1,.07-.7.5.5,0,0,1,.71.07c21.09,25.61,34.55,41.37,36.09,42.28,2.91.21,50.91,7.54,53,7.86H159c2.2,0,8.65-1.6,8.71-1.62l8.77-3.58a.37.37,0,0,1,.15,0c1.14-.09,4.32-.48,5.3-1.21l.09-.09a5,5,0,0,0-2.25-1.33l-.1-.05c-2.59-1.67-5.72-3.49-6.28-3.52-1.83,0-8,0-10.07.32-1.76.25-6.56,3.79-8.26,5.13a.5.5,0,0,1-.51.07l-45.47-19.3a.51.51,0,0,1-.24-.22c-.27-.48-26.84-48-32.88-52.17a.5.5,0,0,1,.56-.82c6.13,4.19,31.17,48.88,33.11,52.36l45,19.12c1.27-1,6.34-4.85,8.51-5.16s7.84-.33,10.21-.33c1,0,5.38,2.75,6.77,3.65.7.26,2.69,1.08,2.84,2.13a1,1,0,0,1-.47,1c-1.33,1-5,1.34-5.75,1.4l-8.76,3.57C167.73,271.57,161.37,273.15,159,273.15Z" style="fill:#263238"></path><path d="M168.81,266.7a.52.52,0,0,1-.48-.37.5.5,0,0,1,.35-.61l6.23-1.78,5-.62a.5.5,0,0,1,.55.44.49.49,0,0,1-.43.55l-4.93.6L169,266.68Z" style="fill:#263238"></path><path d="M167.74,264a.5.5,0,0,1-.1-1c2-.43,5.1-1.11,5.47-1.24a16.76,16.76,0,0,1,3.4,0,.5.5,0,0,1-.07,1,16.75,16.75,0,0,0-3,0c-.55.18-5.07,1.15-5.58,1.26Z" style="fill:#263238"></path><path d="M165.78,262.07a.51.51,0,0,1-.49-.42.51.51,0,0,1,.41-.58l7.65-1.34a.49.49,0,0,1,.58.4.5.5,0,0,1-.41.58l-7.65,1.35Z" style="fill:#263238"></path><path d="M116,245l8.21-2.12,7.67,3.18,5.86,4s1.29,1.69.78,2.21-2,.13-2.47-.26a23.22,23.22,0,0,0-2.85-1.69c-.39-.13-3.12-1.43-3.12-1.43l-2.33-.26s3.63,3.64,4,3.77,3.37,2.07,3.11,2.72a1.63,1.63,0,0,1-2.2,1c-1.17-.52-3.37-1.82-4.41-2.21s-2.47-.78-3.89-1.17a18.42,18.42,0,0,1-4.15-2.46l-4.93.13-3-3.89Z" style="fill:#fff"></path><path d="M133.38,256.8a2.24,2.24,0,0,1-.88-.2c-.53-.23-1.24-.61-2-1s-1.84-1-2.39-1.18c-1-.38-2.46-.78-3.84-1.15a18.24,18.24,0,0,1-4.19-2.45l-4.75.13a.5.5,0,0,1-.41-.2l-3-3.89a.49.49,0,0,1,.2-.76l3.68-1.6.08,0,8.2-2.12a.5.5,0,0,1,.32,0l7.67,3.18.09,0,5.86,4a.38.38,0,0,1,.11.11c.47.61,1.49,2.11.74,2.86s-2.55.21-3.12-.21a26.67,26.67,0,0,0-2.71-1.62c-.38-.12-2.5-1.13-3.09-1.41l-.83-.09a36.8,36.8,0,0,0,2.86,2.65c.31.1,2.86,1.69,3.32,2.69a.85.85,0,0,1,0,.67,2.52,2.52,0,0,1-1.29,1.37A2,2,0,0,1,133.38,256.8Zm-13.12-7a.54.54,0,0,1,.3.1,17.86,17.86,0,0,0,4,2.38c1.41.39,2.86.78,3.93,1.18a25.75,25.75,0,0,1,2.51,1.24c.7.37,1.43.76,1.93,1a1,1,0,0,0,.8.05,1.45,1.45,0,0,0,.7-.73,10.31,10.31,0,0,0-2.77-2.15c-.12,0-.5-.17-4.21-3.88a.5.5,0,0,1-.1-.57.5.5,0,0,1,.5-.28l2.34.26a.47.47,0,0,1,.16,0c1,.5,2.79,1.32,3.06,1.41a22.3,22.3,0,0,1,3,1.76c.44.32,1.56.55,1.81.3a4,4,0,0,0-.77-1.48l-5.75-4-7.47-3.09-8,2.06-3.07,1.33,2.44,3.18,4.67-.12Z" style="fill:#263238"></path><path d="M58.56,223.91s40.62,41.22,45.2,40.89,45.14,11.12,45.14,11.12l2-14.06-40.56-19.3s-29.11-47.11-30.75-49.07-7.2-5.24-13.09-5.56-10.79,3.92-10.79,3.92" style="fill:#fff"></path><path d="M148.9,276.42a.34.34,0,0,1-.14,0c-.4-.11-40.55-11.44-45-11.1h-.06c-4.94,0-41.37-36.82-45.53-41a.49.49,0,0,1,0-.7.5.5,0,0,1,.71,0C75.1,240,100.29,264.3,103.68,264.3h0c4.36-.31,39.69,9.56,44.76,11l1.84-13.14L110.08,243a.55.55,0,0,1-.21-.19c-.29-.47-29.11-47.1-30.7-49s-7.17-5.08-12.73-5.39S56,192.19,56,192.23a.5.5,0,0,1-.66-.76c.21-.18,5.13-4.4,11.15-4S78.1,191,79.93,193.17c1.62,1.93,28.72,45.76,30.72,49l40.43,19.23a.52.52,0,0,1,.28.52l-2,14.07a.52.52,0,0,1-.23.35A.5.5,0,0,1,148.9,276.42Z" style="fill:#263238"></path><path d="M72.7,288.62a90.32,90.32,0,0,1-13.84-1.12.5.5,0,0,1,.17-1c.18,0,18.28,3,28.16-1.14a.5.5,0,0,1,.39.92C83.35,288.09,77.8,288.62,72.7,288.62Z" style="fill:#263238"></path><path d="M72.7,298a91.79,91.79,0,0,1-13.84-1.12.5.5,0,0,1,.17-1c.18,0,18.28,3.05,28.16-1.13a.5.5,0,0,1,.65.26.5.5,0,0,1-.26.66C83.35,297.44,77.8,298,72.7,298Z" style="fill:#263238"></path></g></svg>
