<svg xmlns="http://www.w3.org/2000/svg" viewBox="0 0 500 500"><g id="freepik--background-complete--inject-669"><rect y="382.4" width="500" height="0.25" style="fill:#ebebeb"></rect><rect x="416.78" y="398.49" width="33.12" height="0.25" style="fill:#ebebeb"></rect><rect x="322.53" y="401.21" width="8.69" height="0.25" style="fill:#ebebeb"></rect><rect x="396.59" y="389.21" width="19.19" height="0.25" style="fill:#ebebeb"></rect><rect x="52.46" y="390.89" width="43.19" height="0.25" style="fill:#ebebeb"></rect><rect x="104.56" y="390.89" width="6.33" height="0.25" style="fill:#ebebeb"></rect><rect x="131.47" y="395.11" width="93.68" height="0.25" style="fill:#ebebeb"></rect><path d="M237,337.8H43.91a5.71,5.71,0,0,1-5.7-5.71V60.66A5.71,5.71,0,0,1,43.91,55H237a5.71,5.71,0,0,1,5.71,5.71V332.09A5.71,5.71,0,0,1,237,337.8ZM43.91,55.2a5.46,5.46,0,0,0-5.45,5.46V332.09a5.46,5.46,0,0,0,5.45,5.46H237a5.47,5.47,0,0,0,5.46-5.46V60.66A5.47,5.47,0,0,0,237,55.2Z" style="fill:#ebebeb"></path><path d="M453.31,337.8H260.21a5.72,5.72,0,0,1-5.71-5.71V60.66A5.72,5.72,0,0,1,260.21,55h193.1A5.71,5.71,0,0,1,459,60.66V332.09A5.71,5.71,0,0,1,453.31,337.8ZM260.21,55.2a5.47,5.47,0,0,0-5.46,5.46V332.09a5.47,5.47,0,0,0,5.46,5.46h193.1a5.47,5.47,0,0,0,5.46-5.46V60.66a5.47,5.47,0,0,0-5.46-5.46Z" style="fill:#ebebeb"></path><polygon points="217.65 332.72 217.65 382.36 221.34 382.36 221.34 338.53 276.51 338.53 276.51 382.36 280.2 382.36 280.2 332.72 217.65 332.72" style="fill:#e0e0e0"></polygon><rect x="215.84" y="327.91" width="66.17" height="7.34" rx="2.98" style="fill:#f0f0f0"></rect><path d="M232.5,270h32.85a12,12,0,0,1,12,12v47.22a0,0,0,0,1,0,0H220.46a0,0,0,0,1,0,0V282A12,12,0,0,1,232.5,270Z" style="fill:#f0f0f0"></path><polygon points="142.4 332.72 142.4 382.36 146.09 382.36 146.09 338.53 201.26 338.53 201.26 382.36 204.96 382.36 204.96 332.72 142.4 332.72" style="fill:#e0e0e0"></polygon><rect x="140.6" y="327.91" width="66.17" height="7.34" rx="2.98" style="fill:#f0f0f0"></rect><path d="M157.25,270h32.85a12,12,0,0,1,12,12v47.22a0,0,0,0,1,0,0H145.21a0,0,0,0,1,0,0V282A12,12,0,0,1,157.25,270Z" style="fill:#f0f0f0"></path><polygon points="67.15 332.72 67.15 382.36 70.85 382.36 70.85 338.53 126.02 338.53 126.02 382.36 129.71 382.36 129.71 332.72 67.15 332.72" style="fill:#e0e0e0"></polygon><rect x="65.35" y="327.91" width="66.17" height="7.34" rx="2.98" style="fill:#f0f0f0"></rect><path d="M82,270h32.85a12,12,0,0,1,12,12v47.22a0,0,0,0,1,0,0H70a0,0,0,0,1,0,0V282A12,12,0,0,1,82,270Z" style="fill:#f0f0f0"></path><rect x="326.94" y="132.64" width="107.64" height="249.71" transform="translate(761.52 514.99) rotate(180)" style="fill:#ebebeb"></rect><rect x="405.08" y="160.1" width="21.32" height="93.17" transform="translate(831.48 413.38) rotate(180)" style="fill:#fafafa"></rect><path d="M419.18,272.1a4.25,4.25,0,1,0,4.25-4.25A4.26,4.26,0,0,0,419.18,272.1Z" style="fill:#e0e0e0"></path><rect x="355.48" y="115.51" width="50.56" height="8.39" transform="translate(761.52 239.42) rotate(180)" style="fill:#f5f5f5"></rect><rect x="179.31" y="120.18" width="104.7" height="82.41" transform="translate(393.05 -70.28) rotate(90)" style="fill:#e6e6e6"></rect><rect x="192.34" y="110.91" width="78.66" height="100.95" style="fill:#f0f0f0"></rect><rect x="194" y="114.38" width="75.28" height="40.77" style="fill:#e6e6e6"></rect><path d="M231.08,125s-3.68-6.46-4.68-6.77-8.6-.62-9.4-.93,0-2.93,0-2.93h-8.92s.81,2.62,0,2.93-8.41.62-9.4.93S194,125,194,125V136.5l4.74-4.6s-1.43,4.12.93,7.15a15.18,15.18,0,0,1,2.55,10.3,33.09,33.09,0,0,1-2.05,5.8h24.74a33.09,33.09,0,0,1-2-5.8,15.18,15.18,0,0,1,2.55-10.3c2.36-3,.93-7.15.93-7.15l4.74,4.6Z" style="fill:#fafafa"></path><path d="M219,128.12c-4.91.93-7.2,8.88-3.73,11.42s9.87.41,10.5-3.6S223.24,127.31,219,128.12Z" style="fill:#e6e6e6;opacity:0.1"></path><path d="M206.56,128.12c-4.28-.81-7.4,3.81-6.77,7.82s7,6.15,10.5,3.6S211.47,129.05,206.56,128.12Z" style="fill:#e6e6e6;opacity:0.1"></path><rect x="231.3" y="114.38" width="37.99" height="40.77" style="fill:#f5f5f5"></rect><rect x="236.16" y="120.08" width="28.26" height="1.46" style="fill:#e6e6e6"></rect><rect x="236.16" y="125.78" width="28.26" height="1.46" style="fill:#e6e6e6"></rect><rect x="236.16" y="131.48" width="28.26" height="1.46" style="fill:#e6e6e6"></rect><rect x="236.16" y="137.18" width="28.26" height="1.46" style="fill:#e6e6e6"></rect><rect x="236.16" y="142.88" width="28.26" height="1.46" style="fill:#e6e6e6"></rect><rect x="194" y="164.67" width="75.28" height="40.77" transform="translate(463.28 370.11) rotate(180)" style="fill:#e6e6e6"></rect><rect x="194" y="164.67" width="37.99" height="40.77" transform="translate(425.99 370.11) rotate(180)" style="fill:#f5f5f5"></rect><rect x="198.86" y="170.38" width="28.26" height="1.46" transform="translate(425.99 342.22) rotate(180)" style="fill:#e6e6e6"></rect><rect x="198.86" y="176.08" width="28.26" height="1.46" transform="translate(425.99 353.62) rotate(180)" style="fill:#e6e6e6"></rect><rect x="198.86" y="181.78" width="28.26" height="1.46" transform="translate(425.99 365.02) rotate(180)" style="fill:#e6e6e6"></rect><rect x="198.86" y="187.48" width="28.26" height="1.46" transform="translate(425.99 376.42) rotate(180)" style="fill:#e6e6e6"></rect><rect x="198.86" y="193.18" width="28.26" height="1.46" transform="translate(425.99 387.82) rotate(180)" style="fill:#e6e6e6"></rect><path d="M261.31,164.72l0-.05H259.1l0,.05c-.44.68-5.83,9.17-10.35,11.69a22.53,22.53,0,0,0-6.93,5.78s-1.84-.76-2.55.76,1.28,2.35,1.28,2.35a27.78,27.78,0,0,0,.79,9.81c2.43,7.42,12.28,7.58,12.28,7.58s-.08,1-.06,2.64H271V164.72Z" style="fill:#fafafa"></path><rect x="87.31" y="120.18" width="104.7" height="82.41" transform="translate(301.05 21.73) rotate(90)" style="fill:#e6e6e6"></rect><rect x="100.33" y="110.91" width="78.66" height="100.95" transform="translate(279.32 322.77) rotate(180)" style="fill:#f0f0f0"></rect><path d="M120.59,158.24c3,3.37,3.81-3.32,3.81-3.32l8.72-14.81,1.9,15.2-6.55,47.11s-6,1.78-6.39,2.8,10.28,1.27,11.43,0-1.15-2.8-1.15-2.8l8.25-38.94.13.62,8.12,38.32s-2.28,1.52-1.14,2.8,11.81,1,11.42,0-6.38-2.8-6.38-2.8l-6.55-47.11,1.89-15.2,8.72,14.81s.76,6.69,3.81,3.32-2.29-6.41-2.29-6.41l-9.48-16.44-5.23-1.81-1.15-1.46s6.71-12-1.74-12.27v0h-.25v0c-8.45.23-1.75,12.27-1.75,12.27l-1.15,1.46-5.23,1.81-9.48,16.44S117.55,154.88,120.59,158.24Z" style="fill:#fafafa"></path><path d="M140.74,119.85V164.1l8.12,38.32s-2.28,1.52-1.14,2.8,11.81,1,11.42,0-6.38-2.8-6.38-2.8l-6.55-47.11,1.89-15.2,8.72,14.81s.76,6.69,3.81,3.32-2.29-6.41-2.29-6.41l-9.48-16.44-5.23-1.81-1.15-1.46S149.19,120.08,140.74,119.85Z" style="fill:#e6e6e6"></path><rect x="112.46" y="122.67" width="10.89" height="4.24" transform="translate(235.81 249.58) rotate(180)" style="fill:#e6e6e6"></rect><rect x="108.77" y="141.75" width="10.89" height="4.24" transform="translate(228.42 287.74) rotate(180)" style="fill:#e6e6e6"></rect><rect x="160.47" y="161.78" width="10.89" height="4.24" transform="translate(331.84 327.81) rotate(180)" style="fill:#e6e6e6"></rect><rect x="156.12" y="122.51" width="10.89" height="4.24" transform="translate(323.14 249.26) rotate(180)" style="fill:#e6e6e6"></rect><rect x="112.46" y="168.82" width="10.89" height="4.24" transform="translate(235.81 341.89) rotate(180)" style="fill:#e6e6e6"></rect><rect x="157.49" y="185.06" width="10.89" height="4.24" transform="translate(325.87 374.36) rotate(180)" style="fill:#e6e6e6"></rect><rect x="107.01" y="189.3" width="10.89" height="4.24" transform="translate(224.92 382.84) rotate(180)" style="fill:#e6e6e6"></rect></g><g id="freepik--Shadow--inject-669"><ellipse id="freepik--path--inject-669" cx="250" cy="416.24" rx="193.89" ry="11.32" style="fill:#f5f5f5"></ellipse></g><g id="freepik--speech-bubble--inject-669"><path d="M403.77,143.16h-23.1A7.64,7.64,0,0,0,373,150.8v21.61a7.64,7.64,0,0,0,7.64,7.65h9l2.59,6.82,2.6-6.82h8.95a7.65,7.65,0,0,0,7.65-7.65V150.8A7.65,7.65,0,0,0,403.77,143.16Z" style="fill:#407BFF"></path><path d="M390.81,167.78a1.22,1.22,0,0,1-.94-.44l-5.27-6.21a1.23,1.23,0,0,1,1.88-1.6l4.33,5.11,7.16-8.43a1.23,1.23,0,1,1,1.88,1.59l-8.1,9.54A1.22,1.22,0,0,1,390.81,167.78Z" style="fill:#fff"></path><circle cx="392.22" cy="161.77" r="13.44" transform="translate(92.66 462.23) rotate(-67.5)"></circle></g><g id="freepik--device-2--inject-669"><polygon points="293.32 282.23 293.32 273.81 250 273.81 250 416.26 321.06 416.26 321.06 282.23 293.32 282.23" style="fill:#407BFF"></polygon><polygon points="293.32 282.23 293.32 273.81 250 273.81 250 416.26 321.06 416.26 321.06 282.23 293.32 282.23" style="fill:#fff;opacity:0.6000000000000001"></polygon><rect x="250" y="273.81" width="20.49" height="142.45" style="opacity:0.1"></rect><polygon points="305.2 268.98 234.19 268.98 233.97 274.19 282.09 288.91 353.09 288.91 353.31 283.7 305.2 268.98" style="fill:#263238"></polygon><polygon points="282.09 288.91 233.97 274.19 234.19 268.98 282.31 283.7 282.09 288.91" style="opacity:0.1"></polygon><polygon points="282.31 283.7 353.31 283.7 305.2 268.98 234.19 268.98 282.31 283.7" style="fill:#fff;opacity:0.2"></polygon><polygon points="271.55 248.03 262.36 270.28 268.23 272.2 293 272.2 287.51 270.28 288.79 248.03 271.55 248.03" style="fill:#263238"></polygon><path d="M335.77,199.7v62.09a1.85,1.85,0,0,1-1.86,1.85H223.49a1.85,1.85,0,0,1-1.85-1.85V199.7a1.85,1.85,0,0,1,1.85-1.85H333.91A1.85,1.85,0,0,1,335.77,199.7Z" style="fill:#263238"></path><path d="M335.77,199.7v62.09a1.85,1.85,0,0,1-1.86,1.85H226.49a1.85,1.85,0,0,1-1.85-1.85V199.7a1.85,1.85,0,0,1,1.85-1.85H333.91A1.85,1.85,0,0,1,335.77,199.7Z" style="fill:#fff;opacity:0.2"></path><rect x="227.61" y="201.33" width="105.19" height="58.83" style="fill:#407BFF"></rect><polygon points="264.79 275.47 265.55 273.69 305.38 273.69 315.28 278.24 315.61 279.49 277.68 279.49 264.79 275.47" style="fill:#fff;opacity:0.30000000000000004"></polygon><polygon points="266.77 273.94 277.26 278.24 314.6 278.24 305.13 273.94 266.77 273.94" style="fill:#fff;opacity:0.30000000000000004"></polygon><path d="M325.68,279c-.79.54-1.94.84-4.6.45-2.33-.35-5.35-2.07-4.68-2.81a2.77,2.77,0,0,1,.44-.58,3.55,3.55,0,0,1,1.71-1,7.69,7.69,0,0,1,5.51.7,3,3,0,0,1,1.75,2.51A1,1,0,0,1,325.68,279Z" style="fill:#fff;opacity:0.30000000000000004"></path><path d="M325.81,278.23c-.85,1-4.71,1.64-6.21-.23-1.31-1.63-2.34-1.94-2.76-2a3.55,3.55,0,0,1,1.71-1,7.69,7.69,0,0,1,5.51.7A3,3,0,0,1,325.81,278.23Z" style="fill:#fff;opacity:0.30000000000000004"></path><path d="M245.86,414.92l1.72-9.06a2.16,2.16,0,0,1,2.12-1.75h74.17a2.15,2.15,0,0,1,2.12,1.75l1.73,9.06h14a1.89,1.89,0,0,1,1.89,1.89v2H245.11Z" style="fill:#407BFF"></path><path d="M245.86,414.92l1.72-9.06a2.16,2.16,0,0,1,2.12-1.75h74.17a2.15,2.15,0,0,1,2.12,1.75l1.73,9.06h14a1.89,1.89,0,0,1,1.89,1.89v2H245.11Z" style="fill:#fff;opacity:0.7000000000000001"></path><g style="isolation:isolate;opacity:0.1"><path d="M278.42,404.11l1.56,6.35a2.69,2.69,0,0,0,2.61,2h30a2.69,2.69,0,0,0,2.69-2.68v-5.71h-.54v5.71a2.15,2.15,0,0,1-2.15,2.15h-30a2.15,2.15,0,0,1-2.09-1.64L279,404.11Z"></path></g><path d="M245.86,414.92l1.72-9.06a2.16,2.16,0,0,1,2.12-1.75h15.17a2.15,2.15,0,0,1,2.12,1.75l1.73,9.06h15.06a1.1,1.1,0,0,0-1.1,1.1v2.83H245.11Z" style="fill:#fff;opacity:0.30000000000000004"></path><rect x="280.69" y="202.81" width="50.82" height="55.87" style="opacity:0.2"></rect><rect x="229.04" y="202.81" width="50.82" height="55.87" transform="translate(508.89 461.49) rotate(180)" style="opacity:0.2"></rect><path d="M279.86,217.38s-5.05-8.85-6.41-9.27-11.79-.85-12.9-1.28,0-4,0-4H248.34s1.11,3.59,0,4-11.53.85-12.89,1.28-6.41,9.27-6.41,9.27v15.75l6.49-6.3s-2,5.64,1.28,9.8,4.08,11,3.49,14.11a45,45,0,0,1-2.81,7.94H271.4a44.38,44.38,0,0,1-2.8-7.94c-.6-3.14.25-10,3.49-14.11s1.27-9.8,1.27-9.8l6.5,6.3Z" style="fill:#fff;opacity:0.2"></path><path d="M263.26,221.64c5.86-1.11,10.14,5.23,9.28,10.72s-9.62,8.43-14.39,4.94S256.54,222.91,263.26,221.64Z" style="opacity:0.2"></path><path d="M264.26,228.68c1.23.32,1.34,2.28-.51,2.06S262.78,228.3,264.26,228.68Z" style="fill:#fff;opacity:0.2"></path><path d="M264.26,224.83c.49,0,.23,1.53,0,1.49S263.76,224.79,264.26,224.83Z" style="fill:#fff;opacity:0.1"></path><path d="M267.22,224.53c.51.17.17,1.7-.47,1.24S266.71,224.36,267.22,224.53Z" style="fill:#fff;opacity:0.1"></path><path d="M266.79,229.26c-.1-.34,1-.69,1.24-.35S267,229.81,266.79,229.26Z" style="fill:#fff;opacity:0.1"></path><path d="M265.73,233c.15-.78,1.3.68,1,.89S265.6,233.64,265.73,233Z" style="fill:#fff;opacity:0.1"></path><path d="M262.41,233.36c.66,0-.09,1.9-.43,1.68S261.69,233.34,262.41,233.36Z" style="fill:#fff;opacity:0.1"></path><path d="M264.79,236c.38-.34.84.89.38.89A.51.51,0,0,1,264.79,236Z" style="fill:#fff;opacity:0.1"></path><path d="M259.34,233.68c.64.13-.51,1.32-.63.92S258.92,233.6,259.34,233.68Z" style="fill:#fff;opacity:0.1"></path><path d="M257.39,230.16c.11-.47,1.05-.27,1.29.2S257.17,231.07,257.39,230.16Z" style="fill:#fff;opacity:0.1"></path><path d="M260.66,231.43c-.08-.43.64-.56.68,0S260.75,231.85,260.66,231.43Z" style="fill:#fff;opacity:0.1"></path><path d="M269.9,232.28c-.17-.22.81-.34.89,0S270.2,232.66,269.9,232.28Z" style="fill:#fff;opacity:0.1"></path><path d="M270.15,228.45c.09-.3.78-.35.65.19S270.07,228.74,270.15,228.45Z" style="fill:#fff;opacity:0.1"></path><path d="M260.11,225.57c.34-.27,1.23.79.89,1.05S259.77,225.85,260.11,225.57Z" style="fill:#fff;opacity:0.1"></path><path d="M262.7,223.34c.44-.05.23.81,0,.72S262.36,223.38,262.7,223.34Z" style="fill:#fff;opacity:0.1"></path><path d="M259.54,228.56c.23-.49,1.16-.2,1,.08S259.45,228.74,259.54,228.56Z" style="fill:#fff;opacity:0.1"></path><path d="M268.79,235.06c-.13-.23.68-.41.55,0S268.92,235.29,268.79,235.06Z" style="fill:#fff;opacity:0.1"></path><path d="M246.25,221.64c-5.86-1.11-10.14,5.23-9.28,10.72s9.62,8.43,14.39,4.94S253,222.91,246.25,221.64Z" style="opacity:0.2"></path><path d="M245.25,228.68c-1.24.32-1.34,2.28.51,2.06S246.73,228.3,245.25,228.68Z" style="fill:#fff;opacity:0.2"></path><path d="M245.25,224.83c-.49,0-.23,1.53,0,1.49S245.75,224.79,245.25,224.83Z" style="fill:#fff;opacity:0.1"></path><path d="M242.29,224.53c-.51.17-.17,1.7.47,1.24S242.8,224.36,242.29,224.53Z" style="fill:#fff;opacity:0.1"></path><path d="M242.72,229.26c.1-.34-1-.69-1.24-.35S242.55,229.81,242.72,229.26Z" style="fill:#fff;opacity:0.1"></path><path d="M243.78,233c-.15-.78-1.3.68-1.06.89S243.91,233.64,243.78,233Z" style="fill:#fff;opacity:0.1"></path><path d="M247.1,233.36c-.66,0,.09,1.9.43,1.68S247.82,233.34,247.1,233.36Z" style="fill:#fff;opacity:0.1"></path><path d="M244.72,236c-.38-.34-.84.89-.38.89A.51.51,0,0,0,244.72,236Z" style="fill:#fff;opacity:0.1"></path><path d="M250.16,233.68c-.63.13.52,1.32.64.92S250.59,233.6,250.16,233.68Z" style="fill:#fff;opacity:0.1"></path><path d="M252.12,230.16c-.11-.47-1.05-.27-1.29.2S252.34,231.07,252.12,230.16Z" style="fill:#fff;opacity:0.1"></path><path d="M248.85,231.43c.08-.43-.64-.56-.69,0S248.76,231.85,248.85,231.43Z" style="fill:#fff;opacity:0.1"></path><path d="M239.61,232.28c.17-.22-.81-.34-.89,0S239.31,232.66,239.61,232.28Z" style="fill:#fff;opacity:0.1"></path><path d="M239.36,228.45c-.09-.3-.78-.35-.65.19S239.44,228.74,239.36,228.45Z" style="fill:#fff;opacity:0.1"></path><path d="M249.4,225.57c-.34-.27-1.23.79-.89,1.05S249.74,225.85,249.4,225.57Z" style="fill:#fff;opacity:0.1"></path><path d="M246.81,223.34c-.44-.05-.23.81,0,.72S247.15,223.38,246.81,223.34Z" style="fill:#fff;opacity:0.1"></path><path d="M250,228.56c-.23-.49-1.16-.2-1,.08S250.06,228.74,250,228.56Z" style="fill:#fff;opacity:0.1"></path><path d="M240.72,235.06c.13-.23-.68-.41-.56,0S240.59,235.29,240.72,235.06Z" style="fill:#fff;opacity:0.1"></path><path d="M331.51,202.81v55.87H307.56c0-2.25.08-3.64.08-3.64s-13.55-.22-16.89-10.43c-1.92-5.87-1.09-13.49-1.09-13.49s-2.75-1.14-1.76-3.23,3.51-1,3.51-1a30.7,30.7,0,0,1,9.53-7.95c6.22-3.47,13.63-15.15,14.23-16.09l0-.06h3.07l0,.06Z" style="opacity:0.2"></path><path d="M304.68,218c8.29-4,13.16-14.33,13.57-15.21l0-.06H315.2l0,.06c-.6.94-8,12.62-14.23,16.09a30.7,30.7,0,0,0-9.53,7.95s-2.53-1-3.51,1,1.76,3.23,1.76,3.23-.83,7.62,1.09,13.49c3.34,10.21,16.89,10.43,16.89,10.43s-.11,1.39-.08,3.64h1.72c-.23-2.74-.32-4.7-.32-4.7s-12.17-1.42-15.58-7.34c-3.77-6.54-2.73-14.21-2.26-16.65h0l.09,0a7.65,7.65,0,0,1,2.2,3.8c.08.47.14,1,.21,1.54.32,2.5.72,5.54,2.69,7.74.68,1.25,1.85,3.15,2.22,2.3.46-1-1.73-2.62-2.49-3.13a11.71,11.71,0,0,1-1.8-4.86,35.67,35.67,0,0,1,3.42,4.78,15.86,15.86,0,0,0,4.49,4.43c1.22,1.15,3.26,2.93,3.46,2.21.41-1.5-2.93-2.66-4-3a15.32,15.32,0,0,1-3.66-3.82c-2.26-3.42-3.11-4.62-3.76-5.08-.09-.55-.16-1.09-.23-1.61s-.13-1.08-.21-1.55a7.43,7.43,0,0,0-1.75-3.39c.5.24,1,.5,1.53.77a18.77,18.77,0,0,1,1.25,2.64c.62,1.5,1.2,2.93,2.35,3.65a25.24,25.24,0,0,1,3.74,3c.68,1,2.64,3.87,3.28,3.26s-1.09-1.83-2.29-2.74a27.54,27.54,0,0,0-4.56-3.79c-1.06-.67-1.62-2.05-2.22-3.5a22.9,22.9,0,0,0-1-2.21,7.22,7.22,0,0,1,1.62,1.18,7.15,7.15,0,0,0,3.85,2.4c1.21.52,3.2,1.24,3.46.54s-2.45-.92-3.74-1a6.75,6.75,0,0,1-3.33-2.2,7.52,7.52,0,0,0-1.68-1.24,13.44,13.44,0,0,1,2.24.74,14.91,14.91,0,0,0,5.18,1.31,5.24,5.24,0,0,0,.79-.05c1.05-.13,2-.21,2.85-.25,1.67.51,6.17,1.74,5.64-.2s-4.88-.54-6-.11c-.77.05-1.62.13-2.54.24-2,.26-4.1-.57-5.81-1.24a8.11,8.11,0,0,0-2.91-.79,6.05,6.05,0,0,0-2.12-2s0,0,0,0h0c.14,0,.27,0,.43,0a6.14,6.14,0,0,0,1.55-.22,3.75,3.75,0,0,0,1.72.35,12.51,12.51,0,0,0,3.55-.65c1.61-.25,4.65-.82,4.17-1.45-.9-1.18-3.6.51-4.67,1.26a8.37,8.37,0,0,1-4.29.35,13,13,0,0,0,3.94-2.25,28.91,28.91,0,0,1,4.42-2.89c1.87-.27,8.51-2.09,7.87-3-.86-1.23-6.1,1.54-7.83,2.62a29.4,29.4,0,0,0-4.66,3c-2.61,2.07-4.58,2.6-6,2.54h0A37.73,37.73,0,0,1,304.68,218Zm-11.56,12.57c-.58-.3-1.18-.58-1.7-.82l-.21-.21h0c.05-.23.08-.35.08-.35l.08-.12A5.37,5.37,0,0,1,293.12,230.59Z" style="fill:#fff;opacity:0.2"></path></g><g id="freepik--device-1--inject-669"><path d="M140.34,254.75h-3.49a3.77,3.77,0,0,1-3.77-3.77V245.2a278.94,278.94,0,0,0-8-65.93,1.5,1.5,0,1,1,2.89-.8,282.16,282.16,0,0,1,8.13,66.73V251a.78.78,0,0,0,.77.77h3.49a1.5,1.5,0,1,1,0,3Z" style="fill:#407BFF"></path><g style="opacity:0.8"><path d="M140.34,254.75h-3.49a3.77,3.77,0,0,1-3.77-3.77V245.2a278.94,278.94,0,0,0-8-65.93,1.5,1.5,0,1,1,2.89-.8,282.16,282.16,0,0,1,8.13,66.73V251a.78.78,0,0,0,.77.77h3.49a1.5,1.5,0,1,1,0,3Z" style="fill:#fff"></path></g><rect x="152.87" y="318.95" width="27.83" height="88.85" style="fill:#407BFF"></rect><rect x="152.87" y="318.95" width="27.83" height="88.85" style="fill:#fff;opacity:0.5"></rect><rect x="169.34" y="318.95" width="11.36" height="88.85" style="fill:#fff;opacity:0.30000000000000004"></rect><path d="M180.78,328.87h-6.23a1.23,1.23,0,0,0-1.17.81L170.31,338a1.38,1.38,0,0,1-1.3.91H153.06a1,1,0,0,1-1-1V243.42h27.54a1.82,1.82,0,0,1,1.82,1.83v82.94A.68.68,0,0,1,180.78,328.87Z" style="fill:#407BFF"></path><path d="M180.78,328.87h-6.23a1.23,1.23,0,0,0-1.17.81L170.31,338a1.38,1.38,0,0,1-1.3.91H153.06a1,1,0,0,1-1-1V243.42h27.54a1.82,1.82,0,0,1,1.82,1.83v82.94A.68.68,0,0,1,180.78,328.87Z" style="fill:#fff;opacity:0.6000000000000001"></path><path d="M179.64,243.42H169a.69.69,0,0,0-.69.69v94.07a.69.69,0,0,0,.69.69h0a1.38,1.38,0,0,0,1.3-.91l3.07-8.28a1.23,1.23,0,0,1,1.17-.81h6.23a.68.68,0,0,0,.68-.68V245.25A1.82,1.82,0,0,0,179.64,243.42Z" style="fill:#fff;opacity:0.30000000000000004"></path><path d="M193.87,414.92l-1.72-9.06a2.16,2.16,0,0,0-2.12-1.75H140.87a2.15,2.15,0,0,0-2.12,1.75L137,414.92H123a1.89,1.89,0,0,0-1.89,1.89v2h73.51Z" style="fill:#407BFF"></path><path d="M193.87,414.92l-1.72-9.06a2.16,2.16,0,0,0-2.12-1.75H140.87a2.15,2.15,0,0,0-2.12,1.75L137,414.92H123a1.89,1.89,0,0,0-1.89,1.89v2h73.51Z" style="fill:#fff;opacity:0.7000000000000001"></path><g style="isolation:isolate;opacity:0.1"><path d="M171.32,404.11l-1.56,6.35a2.69,2.69,0,0,1-2.61,2h-15a2.69,2.69,0,0,1-2.69-2.68v-5.71H150v5.71a2.15,2.15,0,0,0,2.15,2.15h15a2.15,2.15,0,0,0,2.09-1.64l1.53-6.22Z"></path></g><path d="M193.87,414.92l-1.72-9.06a2.16,2.16,0,0,0-2.12-1.75h-5.16a2.15,2.15,0,0,0-2.12,1.75L181,414.92H166a1.1,1.1,0,0,1,1.1,1.1v2.83h27.56Z" style="fill:#fff;opacity:0.30000000000000004"></path><path d="M168.06,269.15H137.68c0-73.47-10-92.72-10-92.72h30.38S168.06,196.64,168.06,269.15Z" style="fill:#407BFF"></path><path d="M168.06,269.15H137.68c0-42.82-3.4-67.22-6.23-80.12-2-9.24-3.77-12.59-3.77-12.59h30.38s2.09,4.22,4.36,15.75C165.11,205.86,168.06,229.8,168.06,269.15Z" style="fill:#fff;opacity:0.6000000000000001"></path><path d="M168.06,269.15h-6.38c0-73.46-10-92.71-10-92.71h6.38S168.06,196.65,168.06,269.15Z" style="fill:#fff;opacity:0.30000000000000004"></path><path d="M152.06,269.15h-.38c0-73.46-10-92.71-10-92.71h.38S152.06,196.65,152.06,269.15Z" style="opacity:0.1"></path><path d="M146.06,269.15h-.38c0-73.46-10-92.71-10-92.71h.38S146.06,196.65,146.06,269.15Z" style="opacity:0.1"></path><rect x="135.68" y="237.13" width="22.53" height="6.29" style="fill:#407BFF"></rect><rect x="135.68" y="237.13" width="22.53" height="6.29" style="fill:#fff;opacity:0.8"></rect><path d="M134.57,237.13s-7.42,0-17.89,4a.37.37,0,0,0-.24.34v1.6a.37.37,0,0,0,.37.36H136.2a.36.36,0,0,0,.37-.36v-5.57a.36.36,0,0,0-.37-.36Z" style="fill:#407BFF"></path><path d="M134.57,237.13s-7.42,0-17.89,4a.37.37,0,0,0-.24.34v1.6a.37.37,0,0,0,.37.36H136.2a.36.36,0,0,0,.37-.36v-5.57a.36.36,0,0,0-.37-.36Z" style="fill:#fff;opacity:0.8"></path><path d="M136.19,237.13a57.62,57.62,0,0,0-17.51,4,.37.37,0,0,0-.24.34v1.6a.37.37,0,0,0,.37.36H136.2a.36.36,0,0,0,.37-.36V237.5A.37.37,0,0,0,136.19,237.13Z" style="fill:#fff;opacity:0.30000000000000004"></path><path d="M156.55,243.1v.64a.6.6,0,0,1-.6.6H115.22a.6.6,0,0,1-.6-.6v-.64a.6.6,0,0,1,.6-.61H156A.6.6,0,0,1,156.55,243.1Z" style="fill:#407BFF"></path><path d="M156.55,243.1v.64a.6.6,0,0,1-.6.6H115.22a.6.6,0,0,1-.6-.6v-.64a.6.6,0,0,1,.6-.61H156A.6.6,0,0,1,156.55,243.1Z" style="fill:#fff;opacity:0.7000000000000001"></path><path d="M156.55,243.1v.64a.6.6,0,0,1-.6.6H137.22a.6.6,0,0,1-.6-.6v-.64a.6.6,0,0,1,.6-.61H156A.6.6,0,0,1,156.55,243.1Z" style="fill:#fff;opacity:0.30000000000000004"></path><path d="M152.7,233.78v6.76a1.05,1.05,0,0,1-1,1.06h-9.26a1.05,1.05,0,0,1-1-1.06v-6.76a1,1,0,0,1,1-1.05h9.26A1,1,0,0,1,152.7,233.78Z" style="fill:#263238"></path><path d="M150.7,233.78v6.76a1.05,1.05,0,0,1-1,1.06h-7.26a1.05,1.05,0,0,1-1-1.06v-6.76a1,1,0,0,1,1-1.05h7.26A1,1,0,0,1,150.7,233.78Z" style="fill:#fff;opacity:0.2"></path><path d="M156.57,237.13s-7.42,0-17.89,4a.37.37,0,0,0-.24.34v1.6a.37.37,0,0,0,.37.36H158.2a.36.36,0,0,0,.37-.36v-5.57a.36.36,0,0,0-.37-.36Z" style="fill:#407BFF"></path><path d="M156.57,237.13s-7.42,0-17.89,4a.37.37,0,0,0-.24.34v1.6a.37.37,0,0,0,.37.36H158.2a.36.36,0,0,0,.37-.36v-5.57a.36.36,0,0,0-.37-.36Z" style="fill:#fff;opacity:0.8"></path><path d="M158.19,237.13a57.62,57.62,0,0,0-17.51,4,.37.37,0,0,0-.24.34v1.6a.37.37,0,0,0,.37.36H158.2a.36.36,0,0,0,.37-.36V237.5A.37.37,0,0,0,158.19,237.13Z" style="fill:#fff;opacity:0.30000000000000004"></path><path d="M168.06,264.06H126.91V268a1.14,1.14,0,0,0,1.14,1.14h40Z" style="fill:#407BFF"></path><path d="M168.06,264.07H126.91V268a1.14,1.14,0,0,0,1.14,1.14h40Z" style="fill:#fff;opacity:0.7000000000000001"></path><path d="M168.06,264.07H137.92V268a1.14,1.14,0,0,0,1.13,1.14h29Z" style="fill:#fff;opacity:0.7000000000000001"></path><path d="M161.94,257.65v9.75H141a1.59,1.59,0,0,1-.74-.18l-2.4-1.24H126.91v1.42h-2a4.72,4.72,0,0,1-2.32-.6l-9.1-5a1.36,1.36,0,0,1-.71-1.2V259a1.38,1.38,0,0,1,1.38-1.38Z" style="fill:#263238"></path><path d="M161.93,267.4H145a4.9,4.9,0,0,1-2.33-.6l-9.09-5a1.38,1.38,0,0,1-.71-1.21V259a1.37,1.37,0,0,1,1.37-1.37h27.73Z" style="fill:#fff;opacity:0.2"></path><path d="M162.42,192.19c-6.21.56-12.91-3.11-31-3.16-2-9.24-3.77-12.59-3.77-12.59h30.38S160.15,180.66,162.42,192.19Z" style="opacity:0.05"></path><path d="M163.79,150.53v30.93a2.48,2.48,0,0,1-2.47,2.47h-12a1.47,1.47,0,0,0-1,.44l-3.14,3.25a1.47,1.47,0,0,1-1,.44H112.7a2.85,2.85,0,0,1-2.85-2.85v-34.3a2.84,2.84,0,0,1,2.85-2.84h48.62A2.47,2.47,0,0,1,163.79,150.53Z" style="fill:#407BFF"></path><path d="M163.79,150.53v30.93a2.48,2.48,0,0,1-2.47,2.47h-12a1.47,1.47,0,0,0-1,.44l-3.14,3.25a1.47,1.47,0,0,1-1,.44H141.3a2.08,2.08,0,0,1-2.08-2.08V150.15a2.08,2.08,0,0,1,2.08-2.08h20A2.47,2.47,0,0,1,163.79,150.53Z" style="fill:#fff;opacity:0.30000000000000004"></path><path d="M163.79,150.53v30.93a2.48,2.48,0,0,1-2.47,2.47h-12a1.47,1.47,0,0,0-1,.44l-3.14,3.25a1.47,1.47,0,0,1-1,.44H112.7a2.85,2.85,0,0,1-2.85-2.85v-34.3a2.84,2.84,0,0,1,2.85-2.84h48.62A2.47,2.47,0,0,1,163.79,150.53Z" style="fill:#fff;opacity:0.5"></path><path d="M171.59,254.66h-6.08a1.5,1.5,0,0,1,0-3h6.08a.58.58,0,0,0,.58-.58c-.21-41.31-6.67-64-8.65-70a.92.92,0,0,0-.88-.63H146.87a1.5,1.5,0,0,1,0-3h15.77a3.92,3.92,0,0,1,3.73,2.69c2,6.08,8.59,29.15,8.8,70.9a3.57,3.57,0,0,1-3.58,3.6Z" style="fill:#407BFF"></path><g style="opacity:0.8"><path d="M171.59,254.66h-6.08a1.5,1.5,0,0,1,0-3h6.08a.58.58,0,0,0,.58-.58c-.21-41.31-6.67-64-8.65-70a.92.92,0,0,0-.88-.63H146.87a1.5,1.5,0,0,1,0-3h15.77a3.92,3.92,0,0,1,3.73,2.69c2,6.08,8.59,29.15,8.8,70.9a3.57,3.57,0,0,1-3.58,3.6Z" style="fill:#fff"></path></g><g style="opacity:0.30000000000000004"><path d="M166.37,180.16a3.92,3.92,0,0,0-3.73-2.69h-9.29a1.5,1.5,0,0,0,0,3h9.29a.92.92,0,0,1,.88.63c2,6,8.44,28.66,8.65,70v.53a1.6,1.6,0,0,0,2.29,1.46.47.47,0,0,0,.21-.16,3.52,3.52,0,0,0,.5-1.85C175,209.31,168.38,186.24,166.37,180.16Z" style="fill:#fff"></path></g><path d="M199.29,269.4H174.52a1.7,1.7,0,0,1-1.66-2.09L178,245.1a2.18,2.18,0,0,1,2.12-1.69h19.18a2.6,2.6,0,0,1,2.6,2.6V266.8A2.6,2.6,0,0,1,199.29,269.4Z" style="fill:#407BFF"></path><path d="M201.89,246V266.8a2.59,2.59,0,0,1-2.6,2.6H174.52a1.71,1.71,0,0,1-1.66-2.08L178,245.1a2.18,2.18,0,0,1,2.12-1.69h19.18A2.6,2.6,0,0,1,201.89,246Z" style="fill:#fff;opacity:0.6000000000000001"></path><path d="M201.89,246V266.8a2.59,2.59,0,0,1-2.6,2.6h-8.77a1.71,1.71,0,0,1-1.66-2.08L194,245.1a2.18,2.18,0,0,1,2.12-1.69h3.18A2.6,2.6,0,0,1,201.89,246Z" style="fill:#fff;opacity:0.30000000000000004"></path><polygon points="186.49 263.64 176.47 263.64 179.98 247.53 190 247.53 186.49 263.64" style="opacity:0.1"></polygon><g style="opacity:0.4"><polygon points="180.12 249.66 181.79 249.66 182.15 248.03 180.48 248.03 180.12 249.66" style="fill:#fff"></polygon><polygon points="182.5 249.66 184.17 249.66 184.53 248.03 182.86 248.03 182.5 249.66" style="fill:#fff"></polygon><polygon points="184.88 249.66 186.55 249.66 186.91 248.03 185.24 248.03 184.88 249.66" style="fill:#fff"></polygon><polygon points="187.62 248.03 187.26 249.66 188.93 249.66 189.29 248.03 187.62 248.03" style="fill:#fff"></polygon><polygon points="179.63 251.9 181.3 251.9 181.66 250.28 179.99 250.28 179.63 251.9" style="fill:#fff"></polygon><polygon points="182.01 251.9 183.68 251.9 184.04 250.28 182.37 250.28 182.01 251.9" style="fill:#fff"></polygon><polygon points="184.4 251.9 186.06 251.9 186.42 250.28 184.75 250.28 184.4 251.9" style="fill:#fff"></polygon><polygon points="186.78 251.9 188.44 251.9 188.8 250.28 187.13 250.28 186.78 251.9" style="fill:#fff"></polygon><polygon points="179.14 254.15 180.81 254.15 181.17 252.53 179.5 252.53 179.14 254.15" style="fill:#fff"></polygon><polygon points="181.52 254.15 183.19 254.15 183.55 252.53 181.88 252.53 181.52 254.15" style="fill:#fff"></polygon><polygon points="183.91 254.15 185.57 254.15 185.93 252.53 184.26 252.53 183.91 254.15" style="fill:#fff"></polygon><polygon points="186.28 254.15 187.95 254.15 188.31 252.53 186.64 252.53 186.28 254.15" style="fill:#fff"></polygon><polygon points="178.65 256.4 180.32 256.4 180.68 254.78 179.01 254.78 178.65 256.4" style="fill:#fff"></polygon><polygon points="181.03 256.4 182.7 256.4 183.06 254.78 181.39 254.78 181.03 256.4" style="fill:#fff"></polygon><polygon points="183.41 256.4 185.08 256.4 185.44 254.78 183.77 254.78 183.41 256.4" style="fill:#fff"></polygon><polygon points="185.79 256.4 187.46 256.4 187.82 254.78 186.15 254.78 185.79 256.4" style="fill:#fff"></polygon><polygon points="178.16 258.65 179.83 258.65 180.19 257.02 178.52 257.02 178.16 258.65" style="fill:#fff"></polygon><polygon points="180.54 258.65 182.21 258.65 182.57 257.02 180.9 257.02 180.54 258.65" style="fill:#fff"></polygon><polygon points="182.93 258.65 184.59 258.65 184.95 257.02 183.28 257.02 182.93 258.65" style="fill:#fff"></polygon><polygon points="185.31 258.65 186.97 258.65 187.33 257.02 185.66 257.02 185.31 258.65" style="fill:#fff"></polygon><polygon points="177.67 260.9 179.34 260.9 179.7 259.27 178.03 259.27 177.67 260.9" style="fill:#fff"></polygon><polygon points="180.06 260.9 181.72 260.9 182.08 259.27 180.41 259.27 180.06 260.9" style="fill:#fff"></polygon><polygon points="182.44 260.9 184.1 260.9 184.46 259.27 182.79 259.27 182.44 260.9" style="fill:#fff"></polygon><polygon points="184.81 260.9 186.48 260.9 186.84 259.27 185.17 259.27 184.81 260.9" style="fill:#fff"></polygon><polygon points="177.18 263.14 178.85 263.14 179.21 261.52 177.54 261.52 177.18 263.14" style="fill:#fff"></polygon><polygon points="179.56 263.14 181.23 263.14 181.59 261.52 179.92 261.52 179.56 263.14" style="fill:#fff"></polygon><polygon points="181.94 263.14 183.61 263.14 183.97 261.52 182.3 261.52 181.94 263.14" style="fill:#fff"></polygon><polygon points="184.32 263.14 185.99 263.14 186.35 261.52 184.68 261.52 184.32 263.14" style="fill:#fff"></polygon></g></g><g id="freepik--character-2--inject-669"><path d="M403.2,195.49c9.5,2,9.84,9.28,10.69,16s1.68,20.35-2.73,25.8-21.54,17-25.06-4.65.14-32.24,2.95-35.16S403.2,195.49,403.2,195.49Z" style="fill:#263238"></path><path d="M365.77,418.53h-1.23L364.2,417l-4.07,1.84h-10.3s-1.64-1.65,3.26-3a3.59,3.59,0,0,0,.7-.27c2.62-1.23,6.34-5.37,6.34-5.37h5.65a7,7,0,0,1,.47.81A7.24,7.24,0,0,1,365.77,418.53Z" style="fill:#407BFF"></path><path d="M366.25,411.06v0c-.75-.83-4.15,2.82-6.64,4.07-2.22,1.1-4.71,1.59-5.82.47,2.62-1.23,6.73-6.58,6.73-6.58h4.55S366,410.53,366.25,411.06Z" style="fill:#eec1bb"></path><path d="M377.35,272.2s-6.29,43-7.09,64.43c-.85,22.49-7.17,57.63-10.76,71.75,1.09.95,5.39,2.67,7.94,2.38,0,0,19.9-42,17.27-69.11,16.62-49.22,10.06-68.77,10.06-68.77Z" style="fill:#263238"></path><path d="M389.26,326.1c2.47-8.16,4.25-15.22,5.51-21.28-1.25-4.74-3-8.79-5.43-11.23C389.34,293.59,385.87,306.79,389.26,326.1Z" style="opacity:0.2"></path><path d="M404.29,418.53h-1.23l-.34-1.52-4.06,1.84H388.35s-1.64-1.65,3.27-3a3.85,3.85,0,0,0,.7-.27c2.61-1.23,6.34-5.37,6.34-5.37h5.65a6.3,6.3,0,0,1,.46.81A7.19,7.19,0,0,1,404.29,418.53Z" style="fill:#407BFF"></path><path d="M404.77,411.06v0c-.74-.83-4.14,2.82-6.63,4.07-2.22,1.1-4.72,1.59-5.82.47,2.61-1.23,6.73-6.58,6.73-6.58h4.54S404.51,410.53,404.77,411.06Z" style="fill:#eec1bb"></path><path d="M385.2,271.36s5.69,44,8.95,65.2c3.42,22.25,3.86,57.95,3,72.5,1.25.72,5.79,1.6,8.25.83,0,0,11.6-45,3.89-71.13,7-51.48-3.14-64.08-3.14-64.08Z" style="fill:#263238"></path><path d="M352.94,236.63l-6.54-.88,4-6.11s5.78,1.13,5.08,4.08Z" style="fill:#eec1bb"></path><polygon points="341.33 231.65 346.55 227.56 350.4 229.63 346.4 235.75 341.33 231.65" style="fill:#eec1bb"></polygon><path d="M382.71,229.54l-2.37,17.38s-1.26,1.53-3,3.6c-.95,1.12-2.05,2.38-3.21,3.65h0c-2.89,3.18-6,6.33-7.6,6.92-5.9,2.19-15.1-23.68-15.47-24.73h0v0l4.47-2.72.17-.09,10.46,15.33S378.43,229.36,382.71,229.54Z" style="fill:#407BFF"></path><path d="M382.71,229.54l-2.37,17.38s-1.26,1.53-3,3.6c-.95,1.12-2.05,2.38-3.21,3.65h0c-2.89,3.18-6,6.33-7.6,6.92-5.9,2.19-15.1-23.68-15.47-24.73h0v0l4.47-2.72.17-.09,10.46,15.33S378.43,229.36,382.71,229.54Z" style="fill:#fff;opacity:0.7000000000000001"></path><path d="M377.78,245.12s-.18,2.42-.48,5.4c-.95,1.12-2.05,2.38-3.21,3.65C374.5,248.07,377.78,245.12,377.78,245.12Z" style="opacity:0.1"></path><path d="M387.1,243.65A92.16,92.16,0,0,1,406,230.49c-.62-.07-1.25-.14-1.89-.19a91.24,91.24,0,0,0-13-.44c-1.07.06-2.18.15-3.27.24h0C385.08,236.29,387.1,243.65,387.1,243.65Z" style="fill:#fff;opacity:0.7000000000000001"></path><path d="M406,271.36c.6-6.68,3-18.91,7.1-31.77,1.34-4.18-.93-8.9-.93-8.9s-5.6-.14-6.17-.2-1.25-.14-1.89-.19a91.24,91.24,0,0,0-13-.44c-1.07.06-2.18.15-3.27.24-.35,0-4.29.07-4.63.11,0,0-5.45,6.24-5.78,11.29a87.36,87.36,0,0,0-.45,11.7c0,4.58.35,10.63.66,17.08Z" style="fill:#407BFF"></path><polygon points="405.71 271.83 377.57 270.28 377.57 272.94 405.97 274.46 405.71 271.83"></polygon><path d="M389.87,274h0l-3-.16a.74.74,0,0,1-.7-.74v-1.65a.75.75,0,0,1,.24-.54.74.74,0,0,1,.56-.2l3.08.24a.74.74,0,0,1,.68.8l-.12,1.57A.75.75,0,0,1,389.87,274Zm-3-2.88a.34.34,0,0,0-.34.33v1.65a.34.34,0,0,0,.32.34l3,.16a.36.36,0,0,0,.36-.31l.12-1.57a.32.32,0,0,0-.31-.36l-3.08-.24Z" style="fill:#fff"></path><path d="M388.83,229.55s-6.16,10.74-7.59,18.68-7.46,67.92-7.46,67.92l-4-2.16,7-45.25s-1.07-23.36-.24-28.16,6.2-11,6.2-11Z" style="fill:#407BFF"></path><path d="M388.83,229.55s-6.16,10.74-7.59,18.68-7.46,67.92-7.46,67.92l-4-2.16,7-45.25s-1.07-23.36-.24-28.16,6.2-11,6.2-11Z" style="fill:#fff;opacity:0.7000000000000001"></path><path d="M391.89,229l-.42-.38s-6,.73-11.53,7.62l2.13,2.09-3.64,2.93,1.73,14.16s5.56-18.87,8-23.41A16.73,16.73,0,0,1,391.89,229Z" style="fill:#407BFF"></path><path d="M391.89,229l-.42-.35s-6,.7-11.53,7.59l2.13,2.09-3.64,2.93,1.73,14.16s5.56-18.87,8-23.41A16.73,16.73,0,0,1,391.89,229Z" style="fill:#fff;opacity:0.9"></path><path d="M410.85,256.71c-1.62,6-3.08,11.26-3.08,11.26a189.33,189.33,0,0,1,9.05,46.2l-10.85,2s-8.24-52.09-7.82-65.78S405,229.54,405,229.54l7.1,1.15s3,5.45,2.82,8.83a27.63,27.63,0,0,1-.65,3.53c-.3,1.38-.71,3-1.16,4.85-.27,1-.55,2.14-.84,3.25C411.83,253,411.34,254.88,410.85,256.71Z" style="fill:#407BFF"></path><path d="M416.82,314.17l-10.84,2s-8.25-52.09-7.83-65.78S405,229.54,405,229.54l7.1,1.15s3,5.46,2.82,8.82a9.12,9.12,0,0,1-.18,1.29c-.11.62-.27,1.37-.47,2.24-.3,1.39-.71,3.06-1.17,4.86-.26,1-.54,2.14-.83,3.25-.1.36-.18.72-.28,1.08-.39,1.49-.79,3-1.18,4.47-.3,1.13-.6,2.22-.88,3.26-1.23,4.54-2.19,8-2.19,8s.36,1,1,2.95A192.26,192.26,0,0,1,416.82,314.17Z" style="fill:#fff;opacity:0.7000000000000001"></path><path d="M403.66,229.55s-6.87,7.57-5.34,27.48L405,242.72l-2.43-3.91,5.69-5.33s-3-5.66-5.1-5.1Z" style="fill:#407BFF"></path><path d="M403.66,229.55s-6.87,7.57-5.34,27.48L405,242.72l-2.43-3.91,5.69-5.33s-3-5.66-5.1-5.1Z" style="fill:#fff;opacity:0.9"></path><path d="M410,260c-1.23,4.54-2.19,8-2.19,8s.36,1,1,2.95a20.14,20.14,0,0,1-5.08-1.93L400,263Z" style="opacity:0.1"></path><path d="M414.78,240.8c-.11.62-.27,1.37-.47,2.24-.3,1.39-.71,3.06-1.17,4.86-.26,1-.54,2.14-.83,3.25-.1.36-.18.72-.28,1.08a24.64,24.64,0,0,1-.48-10.77Z" style="opacity:0.1"></path><path d="M389.36,231.7l1.58,9.44,12.42-10.86c-2.63-2.9-1-10.53.3-14.69l-3.51,2.63-5.23,3.91a9.73,9.73,0,0,1-.25,3.22c-.4,1.67-1.11,3.23-1.89,3.56Z" style="fill:#eec1bb"></path><path d="M394.67,225.35c2.08-.47,4.81-2.62,5.25-4.75a10.51,10.51,0,0,0,.23-2.38l-5.23,3.91A9.73,9.73,0,0,1,394.67,225.35Z" style="opacity:0.2"></path><path d="M402.74,227.89s-5.31,4.1-11.54,12.76c0,0-.56-8.64,1.58-11.74l-.45-.53a20.7,20.7,0,0,0-8.21,6.52l4.12-1.31,2.81,7.62,8.48-7,5.7,1S404.94,229.58,402.74,227.89Z" style="fill:#407BFF"></path><path d="M402.74,227.89s-5.31,4.1-11.54,12.76c0,0-.56-8.64,1.58-11.74l-.45-.53a20.7,20.7,0,0,0-8.21,6.52l4.12-1.31,2.81,7.62,8.48-7,5.7,1S404.94,229.58,402.74,227.89Z" style="fill:#fff;opacity:0.2"></path><path d="M392.34,197.49c-3,1.92-7,8.32-2.22,16.48s16.16,7.59,20.84-2.07S404.65,189.74,392.34,197.49Z" style="fill:#263238"></path><path d="M407,208.05c-1.4,6.54-1.85,9.34-5.67,12.4-5.76,4.61-13.45,1.91-14-4.81-.52-6,1.84-15.73,8.67-17.74A8.57,8.57,0,0,1,407,208.05Z" style="fill:#eec1bb"></path><path d="M398.61,208.94c-.1.56-.46,1-.82.94s-.57-.51-.47-1.06.45-1,.81-.94S398.7,208.39,398.61,208.94Z" style="fill:#263238"></path><path d="M391.7,208.05c-.09.56-.45,1-.81.94s-.57-.51-.47-1.06.45-1,.81-.94S391.8,207.5,391.7,208.05Z" style="fill:#263238"></path><path d="M391.38,207l-1.24-.51S390.63,207.63,391.38,207Z" style="fill:#263238"></path><path d="M393.61,209.48a16.63,16.63,0,0,1-2.53,3.35,2.23,2.23,0,0,0,1.87.56Z" style="fill:#d4827d"></path><path d="M395.74,215.74a5.82,5.82,0,0,1-.93,0,.15.15,0,0,1-.13-.18.18.18,0,0,1,.19-.14,4.68,4.68,0,0,0,3.8-1.38.16.16,0,0,1,.23,0,.17.17,0,0,1,0,.23A5,5,0,0,1,395.74,215.74Z" style="fill:#263238"></path><path d="M400.21,205.57a.34.34,0,0,1-.23-.1,2.39,2.39,0,0,0-2.1-.87.31.31,0,0,1-.36-.27.35.35,0,0,1,.29-.38,3,3,0,0,1,2.68,1.07.33.33,0,0,1-.05.46A.35.35,0,0,1,400.21,205.57Z" style="fill:#263238"></path><path d="M389.48,204.13a.29.29,0,0,1-.23-.07.32.32,0,0,1,0-.45,3.46,3.46,0,0,1,2.72-1.37.3.3,0,0,1,.28.35.36.36,0,0,1-.37.3,2.78,2.78,0,0,0-2.14,1.11A.39.39,0,0,1,389.48,204.13Z" style="fill:#263238"></path><path d="M398.28,207.92l-1.24-.51S397.54,208.52,398.28,207.92Z" style="fill:#263238"></path><path d="M397.52,199.09s2.46,11.35,8.78,12.35,5.3-10.91,1.36-13.59-9-3.19-12.48-3c-8.35.56-8.87,7.59-7.29,12.87C387.89,207.75,390,199.68,397.52,199.09Z" style="fill:#263238"></path><path d="M408.39,213.68a5.43,5.43,0,0,1-3.52,2.12c-1.8.23-2.34-1.59-1.53-3.27.73-1.52,2.54-3.46,4.2-2.92S409.47,212.23,408.39,213.68Z" style="fill:#eec1bb"></path><path d="M402.82,278.28l-17.88,4.09a1.46,1.46,0,0,1-1.59-.76l-10.56-23a.89.89,0,0,1,.65-1.28l17.88-4.09a1.46,1.46,0,0,1,1.59.76l10.56,23A.89.89,0,0,1,402.82,278.28Z" style="fill:#263238"></path><path d="M402.82,278.28l-17.88,4.09a1.46,1.46,0,0,1-1.59-.76l-10.56-23a.89.89,0,0,1,.65-1.28l17.88-4.09a1.46,1.46,0,0,1,1.59.76l10.56,23A.89.89,0,0,1,402.82,278.28Z" style="fill:#fff;opacity:0.5"></path><path d="M388.09,256.41l-9.36,2.15a1.07,1.07,0,0,1-1.17-.57l-.78-1.7,11-2.52.78,1.7A.65.65,0,0,1,388.09,256.41Z" style="fill:#263238"></path><path d="M382.38,255.94a1.2,1.2,0,0,1-1.08-.67.84.84,0,0,1,0-.74.86.86,0,0,1,.6-.46,1.2,1.2,0,0,1,1.33.65.83.83,0,0,1-.6,1.19A1.07,1.07,0,0,1,382.38,255.94Zm-.23-1.36-.13,0a.31.31,0,0,0-.24.17.32.32,0,0,0,0,.27.68.68,0,0,0,.72.35.4.4,0,0,0,.24-.17.39.39,0,0,0,0-.28h0A.68.68,0,0,0,382.15,254.58Z" style="fill:#263238"></path><path d="M397.45,261.34l5.66,2.23.85,4c-.86,3.07-6.76,1.16-6.76,1.16l-1.31.65a1.67,1.67,0,0,1-2.42-1.36l-.29-3.71a1.7,1.7,0,0,1,.77-1.54l2-1.26A1.68,1.68,0,0,1,397.45,261.34Z" style="fill:#eec1bb"></path><path d="M412.14,230.74c3.84-.81,19.75,23,17.42,30.84-1.81,6.15-25.9,7.4-25.9,7.4l-1.58-6.51L420,258.09l-6.87-10.15a13.65,13.65,0,0,1-2.57-8.8A33.58,33.58,0,0,1,412.14,230.74Z" style="fill:#407BFF"></path><path d="M412.14,230.74c3.84-.81,19.75,23,17.42,30.84-1.81,6.15-25.9,7.4-25.9,7.4l-1.58-6.51L420,258.09l-6.87-10.15a13.65,13.65,0,0,1-2.57-8.8A33.58,33.58,0,0,1,412.14,230.74Z" style="fill:#fff;opacity:0.7000000000000001"></path></g><g id="freepik--character-1--inject-669"><path d="M105.93,238.69c-1.15,9.18-3,21.87-4.38,29.24-.26,10.45-.74,21.42-1.55,31.86a1.9,1.9,0,0,1-3.79,0c-.23-2.66-.38-5.31-.56-8-.43-7.72-.82-16.2-1-23.89,1-10.11,2.21-20.21,3.68-30.26a3.83,3.83,0,0,1,7.59,1Z" style="fill:#e4897b"></path><path d="M105.3,243.5c-.44,3.36-.93,6.71-1.43,10.06l-.27,1.84c-2-5.62-.92-14.27-.92-14.27A6.79,6.79,0,0,1,105.3,243.5Z" style="opacity:0.1"></path><polygon points="103.88 397.19 105.29 414.11 110.85 414.11 111.23 395.6 103.88 397.19" style="fill:#e4897b"></polygon><path d="M104.4,410.33c0-.55,6.84-.12,6.84-.12s4.19,4.27,8.27,5.23,1.8,3.41-2.76,3.41H105.48C102.25,418.85,104.27,416.09,104.4,410.33Z" style="fill:#263238"></path><path d="M114.83,412a8.31,8.31,0,0,1-2.83-.87l-.06,0h0l0,0a.22.22,0,0,1,0-.14c0-.07.6-1.66,1.52-2a1,1,0,0,1,.88,0c.31.15.46.34.45.58s-.51.71-1.06,1a2.73,2.73,0,0,1,1.53.17.72.72,0,0,1,.36.46.66.66,0,0,1-.16.73A1,1,0,0,1,114.83,412Zm-2.21-1c1,.43,2.26.8,2.58.54,0,0,.11-.1,0-.36a.39.39,0,0,0-.2-.24A4.49,4.49,0,0,0,112.62,411Zm1.22-1.88a.66.66,0,0,0-.27.06,2.93,2.93,0,0,0-1.17,1.47c1-.39,2-.92,2-1.22,0-.1-.15-.19-.24-.23A.76.76,0,0,0,113.84,409.1Z" style="fill:#407BFF"></path><path d="M135.23,254.4c0,1-.07,2.2-.08,3.6-.05,4.32-.05,10.21-.39,14.36-1.27.07-2.57.12-3.88.15-9.18.22-18.66-.4-23-.15-.42-10.41-1.51-15.9-8.28-36.93,0,0,.87-1.41,4.64-2.29.51-.11,1-.21,1.61-.31s1-.17,1.47-.25c.75-.11,1.52-.22,2.3-.31.27,0,.55-.07.83-.09,4.33-.45,7.88-.59,11.72-.65,2.27.09,2.62.09,4.35.27l.36,0a33.45,33.45,0,0,1,8,2.35s.29-.72.5,6.72c0,.64,0,1.34.05,2.11s0,1.55,0,2.42C135.45,247.91,135.38,250.86,135.23,254.4Z" style="fill:#e4897b"></path><path d="M126.92,213c0,.51.26.93.59.95s.61-.39.62-.9-.26-.93-.59-.94S126.92,212.52,126.92,213Z" style="fill:#263238"></path><path d="M127.39,212.16l1.24-.3S128,212.78,127.39,212.16Z" style="fill:#263238"></path><path d="M127.34,213.54a13.77,13.77,0,0,0,1.79,3.32,2.22,2.22,0,0,1-1.84.27Z" style="fill:#de5753"></path><path d="M127.65,209.67a.24.24,0,0,1-.14,0,2.46,2.46,0,0,0-2.2.2.31.31,0,0,1-.42-.07.29.29,0,0,1,.07-.42,3.1,3.1,0,0,1,2.75-.27.29.29,0,0,1,.18.38A.31.31,0,0,1,127.65,209.67Z" style="fill:#263238"></path><path d="M112.1,219.86c1.05,3.69,1,10.08-1.48,12.71,0,0-2,3.57,5,3.19,7.71-.42,8.26-4,8.26-4-4.29-.76-4.44-3.85-3.94-6.79Z" style="fill:#e4897b"></path><path d="M96.2,299.45l-1.66,6.94,6.34.2s2.72-6.44-1.91-8.27Z" style="fill:#e4897b"></path><polygon points="95.39 309.58 100.49 310.98 100.88 306.58 94.54 306.39 95.39 309.58" style="fill:#e4897b"></polygon><path d="M109.76,210.92c.3,6.26.29,8.91,3.43,12.25,4.72,5,12.41,3.5,14-2.67,1.43-5.55.7-14.86-5.43-17.6A8.38,8.38,0,0,0,109.76,210.92Z" style="fill:#e4897b"></path><path d="M123.82,215.35s-2.08,5.72-6.34,8c-1.75.94-6.58,1.12-8.17.27-4.79-2.55-8.47-13.85-7.9-17.08.91-5.13,7.28-7.63,10.44-7.08,0,0,10.77-2,13.26,1.62C132.13,211.23,123.82,215.35,123.82,215.35Z" style="fill:#263238"></path><path d="M121.76,214.36a5.7,5.7,0,0,0,1.6,3c1.15,1.16,2.23.65,2.32-.59a4.2,4.2,0,0,0-1.76-3.79C122.59,212.29,121.58,213.07,121.76,214.36Z" style="fill:#e4897b"></path><path d="M107,203.25s-4.1-7.46-11.52-4.34-.88,8.46-.55,16.47-5.65,5.25-5.65,5.25,1.11,2.55,3.66,1.88c0,0-3.1,2.88-5.65,1.11,0,0,.44,5.82,7.42,3.74s8.86-14.78,9.08-17.46S107,203.25,107,203.25Z" style="fill:#263238"></path><path d="M111.85,200.37s8.55-4.39,13.84,0a10,10,0,0,1,3.44,10.3s.75-7.6-4.9-10.36S111.85,202,111.85,202Z" style="fill:#263238"></path><path d="M105.67,201.21a11.92,11.92,0,0,0-3.42-2.45,8.87,8.87,0,0,0-4.09-.91,8.61,8.61,0,0,0-4,1.21,10,10,0,0,0-1.69,1.21,3.54,3.54,0,0,0-1.1,1.83,8.34,8.34,0,0,0,.49,4.1c.41,1.3.89,2.57,1.3,3.85a14.71,14.71,0,0,1,.73,8,14.8,14.8,0,0,0-.53-8c-.38-1.3-.83-2.58-1.2-3.88a8,8,0,0,1-.38-3.91c.3-1.27,1.5-2,2.64-2.69a8,8,0,0,1,3.75-1,9.68,9.68,0,0,1,6.86,3.29Z" style="fill:#263238"></path><path d="M107.84,272.36c-4.81,17.17-12,29.11-4.43,70.35-6.91,26.24.84,63.16.51,63.13,2.37.75,7-.15,8.33-.88.91-14.49,3.44-42.23,6.27-64.54,3-17.8,7.92-56.06,9.46-68.06Z" style="fill:#407BFF"></path><path d="M138.42,251.44a8,8,0,0,1-3.27,6.56,11.5,11.5,0,0,1-2.64,1.62s-1.87-14.18,1.36-18.49a16.63,16.63,0,0,1,1.49,1.89A16.11,16.11,0,0,1,138.42,251.44Z" style="fill:#e4897b"></path><g style="opacity:0.2"><path d="M128,272.36c-1.06,8.28-3.74,29.06-6.28,47-1.13,8.06-2.25,15.55-3.17,21.07-.42,3.29-.83,6.71-1.23,10.18-2.32,20-4.27,42-5,54.36-1.32.73-6,1.63-8.33.88.33,0-7.42-36.89-.51-63.13-7.57-41.24-.38-53.18,4.43-70.35Z" style="fill:#fff"></path></g><path d="M121.7,319.35c-1.13,8.06-2.25,15.55-3.17,21.07-.42,3.29-.83,6.71-1.23,10.18-3.76-15.1-4-43-4-43-4.44-7.63-2-13.28-2-13.28-.19,2.25,0,10.54,6.22,12.07C117.49,306.39,120.69,315.79,121.7,319.35Z" style="opacity:0.2"></path><polygon points="122.88 397.19 124.3 414.11 129.85 414.11 130.23 395.6 122.88 397.19" style="fill:#e4897b"></polygon><path d="M123.41,410.33c0-.55,6.83-.12,6.83-.12s4.2,4.27,8.27,5.23,1.8,3.41-2.76,3.41H124.48C121.25,418.85,123.27,416.09,123.41,410.33Z" style="fill:#263238"></path><path d="M133.83,412a8.38,8.38,0,0,1-2.83-.87l-.06,0h0l0,0a.17.17,0,0,1,0-.14c0-.07.6-1.66,1.52-2a1,1,0,0,1,.88,0c.31.15.47.34.45.58s-.5.71-1.06,1a2.73,2.73,0,0,1,1.53.17.69.69,0,0,1,.36.46.66.66,0,0,1-.16.73A1,1,0,0,1,133.83,412Zm-2.2-1c1,.43,2.25.8,2.57.54,0,0,.11-.1.05-.36a.39.39,0,0,0-.2-.24A4.46,4.46,0,0,0,131.63,411Zm1.22-1.88a.67.67,0,0,0-.28.06,3,3,0,0,0-1.17,1.47c1-.39,2-.92,2-1.22,0-.1-.15-.19-.24-.23A.75.75,0,0,0,132.85,409.1Z" style="fill:#407BFF"></path><path d="M115.8,272.36c-1.43,4.8-5.25,26.33,3.52,71-5.91,26.49,3.53,63.08,3.2,63.06,2.4.66,7-.41,8.29-1.19.36-14.52,1.54-42.33,3.54-64.73,2.24-17.41,1.09-54.83.4-68.1Z" style="fill:#407BFF"></path><g style="opacity:0.2"><path d="M115.8,272.36c-1.43,4.8-5.25,26.33,3.52,71-5.91,26.49,3.53,63.08,3.2,63.06,2.4.66,7-.41,8.29-1.19.36-14.52,1.54-42.33,3.54-64.73,2.24-17.41,1.09-54.83.4-68.1Z" style="fill:#fff"></path></g><polygon points="107.26 272.91 114.07 272.91 113.72 276.17 106.39 276.17 107.26 272.91" style="fill:#263238"></polygon><path d="M115.36,272.91h10.57v3.26H115.1C115.18,275.19,115.29,273.87,115.36,272.91Z" style="fill:#263238"></path><polygon points="135.2 272.91 135.2 276.17 127.26 276.17 127.11 272.91 135.2 272.91" style="fill:#263238"></polygon><path d="M117.78,281.68c-1,3.06-1.14,9.53-1.14,9.53l4.12,2.22,6.09-2.13.64-9.32C125,281.43,117.78,281.68,117.78,281.68Zm2.75,10.55-3.69-2s.11-5.73,1-8.44c0,0,6.48-.22,8.69.27l-.1,1.45a48.51,48.51,0,0,0-8.64-.3,71.87,71.87,0,0,1,8.61.73l-.44,6.36Z" style="opacity:0.2"></path><path d="M105.49,281.53a70.62,70.62,0,0,0-2.14,8.93l2.1,2.19,3.91-1.84,1.8-8.74C109.79,281.48,105.49,281.53,105.49,281.53Zm0,10-1.88-1.94a61.26,61.26,0,0,1,1.89-7.9s3.85,0,5.08.47l-.28,1.36a18.23,18.23,0,0,0-5-.51,25.56,25.56,0,0,1,5,.92l-1.23,6Z" style="opacity:0.2"></path><path d="M138.42,251.44a8,8,0,0,1-3.27,6.56c-.05,4.32-.05,10.21-.39,14.36-1.27.07-2.57.12-3.88.15-5.19-23.32-.87-32.06-.87-32.06h-.35a13,13,0,0,1,5.65.46c0,.64,0,1.34.05,2.11A16.11,16.11,0,0,1,138.42,251.44Z" style="opacity:0.1"></path><path d="M136.91,237.31c.76,10,1.18,20,1.55,30,.56,2.74,1.81,10.75,2.52,15.26s1.67,11.23,2.19,15.81a1.9,1.9,0,0,1-3.72.75c-.74-2.56-1.42-5.13-2.12-7.7-2-7.48-4-15.72-5.69-23.22-1-10.11-1.82-20.25-2.37-30.4a3.83,3.83,0,0,1,7.64-.49Z" style="fill:#e4897b"></path><path d="M143.15,298.79l.26,7.13-6.26-1.06s-1.39-6.84,3.51-7.72Z" style="fill:#e4897b"></path><polygon points="141.94 308.88 136.67 309.25 137.15 304.86 143.41 305.92 141.94 308.88" style="fill:#e4897b"></polygon><polygon points="121.89 404.54 131.13 403.64 131.13 406.12 122.19 407.02 121.89 404.54" style="fill:#407BFF"></polygon><polygon points="103.39 404.12 112.62 403.22 112.62 405.71 103.69 406.61 103.39 404.12" style="fill:#407BFF"></polygon></g></svg>
