<svg xmlns="http://www.w3.org/2000/svg" viewBox="0 0 635.38 475.81"><g id="freepik--background-complete--inject-673"><g><g><rect x="453.91" y="44.26" width="171.17" height="205.67" transform="translate(1078.98 294.2) rotate(180)" style="fill:#fff;"></rect><path d="M453.64,43.99h171.71V250.2h-171.71V43.99Zm171.17,.54h-170.63V249.66h170.63V44.53Z" style="fill:#dbdbdb;"></path></g><rect x="461.21" y="51.77" width="156.56" height="190.66" transform="translate(1078.98 294.2) rotate(180)" style="fill:#ebebeb;"></rect><g><path d="M491.27,242.5h-30.06V51.77h35.49c0,17.43,12.67,40.44,24.22,51.79,11.54,11.35,34.54,37.32,34.54,55.57s-27.55,51.84-63.54,51.84l-.65,31.53Z" style="fill:#fff;"></path><g style="opacity: .3;"><circle cx="492.01" cy="61.74" r="2.96" style="fill:#ebebeb;"></circle><path d="M480.16,61.74c0,1.64,1.33,2.96,2.96,2.96s2.96-1.33,2.96-2.96-1.33-2.96-2.96-2.96-2.96,1.33-2.96,2.96Z" style="fill:#ebebeb;"></path><path d="M471.27,61.74c0,1.64,1.33,2.96,2.96,2.96s2.96-1.33,2.96-2.96-1.33-2.96-2.96-2.96-2.96,1.33-2.96,2.96Z" style="fill:#ebebeb;"></path><path d="M462.39,61.74c0,1.64,1.33,2.96,2.96,2.96s2.96-1.33,2.96-2.96-1.33-2.96-2.96-2.96-2.96,1.33-2.96,2.96Z" style="fill:#ebebeb;"></path><path d="M493.48,55.07c0,1.64,1.33,2.96,2.97,2.96,.25,0,.5-.03,.72-.1-.29-1.99-.45-3.93-.46-5.81-.09-.01-.17-.01-.26-.01-1.64,0-2.97,1.32-2.97,2.96Z" style="fill:#ebebeb;"></path><path d="M484.6,55.07c0,1.64,1.33,2.96,2.96,2.96s2.96-1.33,2.96-2.96-1.33-2.96-2.96-2.96-2.96,1.33-2.96,2.96Z" style="fill:#ebebeb;"></path><path d="M475.72,55.07c0,1.64,1.33,2.96,2.96,2.96s2.96-1.33,2.96-2.96-1.33-2.96-2.96-2.96-2.96,1.33-2.96,2.96Z" style="fill:#ebebeb;"></path><path d="M466.83,55.07c0,1.64,1.33,2.96,2.96,2.96s2.96-1.33,2.96-2.96-1.33-2.96-2.96-2.96-2.96,1.33-2.96,2.96Z" style="fill:#ebebeb;"></path><path d="M461.21,52.12v5.89c1.49-.15,2.66-1.4,2.66-2.95s-1.17-2.8-2.66-2.95Z" style="fill:#ebebeb;"></path><path d="M497.93,75.09c0,1.63,1.33,2.96,2.96,2.96,.89,0,1.67-.39,2.22-.99-.73-1.63-1.43-3.27-2.05-4.91-.05-.01-.12-.01-.17-.01-1.63,0-2.96,1.32-2.96,2.96Z" style="fill:#ebebeb;"></path><path d="M489.04,75.09c0,1.64,1.33,2.96,2.96,2.96s2.96-1.33,2.96-2.96-1.33-2.96-2.96-2.96-2.96,1.33-2.96,2.96Z" style="fill:#ebebeb;"></path><path d="M480.16,75.09c0,1.64,1.33,2.96,2.96,2.96s2.96-1.33,2.96-2.96-1.33-2.96-2.96-2.96-2.96,1.33-2.96,2.96Z" style="fill:#ebebeb;"></path><path d="M471.27,75.09c0,1.64,1.33,2.96,2.96,2.96s2.96-1.33,2.96-2.96-1.33-2.96-2.96-2.96-2.96,1.33-2.96,2.96Z" style="fill:#ebebeb;"></path><path d="M462.39,75.09c0,1.64,1.33,2.96,2.96,2.96s2.96-1.33,2.96-2.96-1.33-2.96-2.96-2.96-2.96,1.33-2.96,2.96Z" style="fill:#ebebeb;"></path><path d="M493.49,68.41c0,1.64,1.33,2.96,2.96,2.96s2.96-1.33,2.96-2.96-1.33-2.96-2.96-2.96-2.96,1.33-2.96,2.96Z" style="fill:#ebebeb;"></path><path d="M484.6,68.41c0,1.64,1.33,2.96,2.96,2.96s2.96-1.33,2.96-2.96-1.33-2.96-2.96-2.96-2.96,1.33-2.96,2.96Z" style="fill:#ebebeb;"></path><path d="M475.72,68.41c0,1.64,1.33,2.96,2.96,2.96s2.96-1.33,2.96-2.96-1.33-2.96-2.96-2.96-2.96,1.33-2.96,2.96Z" style="fill:#ebebeb;"></path><path d="M466.83,68.41c0,1.64,1.33,2.96,2.96,2.96s2.96-1.33,2.96-2.96-1.33-2.96-2.96-2.96-2.96,1.33-2.96,2.96Z" style="fill:#ebebeb;"></path><path d="M461.21,65.47v5.89c1.49-.15,2.66-1.41,2.66-2.95s-1.17-2.8-2.66-2.95Z" style="fill:#ebebeb;"></path><path d="M506.82,88.43c0,1.63,1.33,2.96,2.96,2.96,.41,0,.8-.09,1.16-.24-1.07-1.6-2.09-3.26-3.09-4.97-.63,.55-1.03,1.35-1.03,2.25Z" style="fill:#ebebeb;"></path><path d="M497.93,88.43c0,1.64,1.33,2.96,2.96,2.96s2.96-1.33,2.96-2.96-1.33-2.96-2.96-2.96-2.96,1.33-2.96,2.96Z" style="fill:#ebebeb;"></path><path d="M489.04,88.43c0,1.64,1.33,2.96,2.96,2.96s2.96-1.33,2.96-2.96-1.33-2.96-2.96-2.96-2.96,1.33-2.96,2.96Z" style="fill:#ebebeb;"></path><path d="M480.16,88.43c0,1.64,1.33,2.96,2.96,2.96s2.96-1.33,2.96-2.96-1.33-2.96-2.96-2.96-2.96,1.33-2.96,2.96Z" style="fill:#ebebeb;"></path><path d="M471.27,88.43c0,1.64,1.33,2.96,2.96,2.96s2.96-1.33,2.96-2.96-1.33-2.96-2.96-2.96-2.96,1.33-2.96,2.96Z" style="fill:#ebebeb;"></path><path d="M462.39,88.43c0,1.64,1.33,2.96,2.96,2.96s2.96-1.33,2.96-2.96-1.33-2.96-2.96-2.96-2.96,1.33-2.96,2.96Z" style="fill:#ebebeb;"></path><path d="M502.37,81.76c0,1.63,1.33,2.96,2.97,2.96,.53,0,1.03-.14,1.45-.39-.95-1.72-1.87-3.47-2.71-5.24-1.01,.46-1.71,1.48-1.71,2.67Z" style="fill:#ebebeb;"></path><path d="M493.49,81.76c0,1.64,1.33,2.96,2.96,2.96s2.96-1.33,2.96-2.96-1.33-2.96-2.96-2.96-2.96,1.33-2.96,2.96Z" style="fill:#ebebeb;"></path><path d="M484.6,81.76c0,1.64,1.33,2.96,2.96,2.96s2.96-1.33,2.96-2.96-1.33-2.96-2.96-2.96-2.96,1.33-2.96,2.96Z" style="fill:#ebebeb;"></path><path d="M475.72,81.76c0,1.64,1.33,2.96,2.96,2.96s2.96-1.33,2.96-2.96-1.33-2.96-2.96-2.96-2.96,1.33-2.96,2.96Z" style="fill:#ebebeb;"></path><path d="M466.83,81.76c0,1.64,1.33,2.96,2.96,2.96s2.96-1.33,2.96-2.96-1.33-2.96-2.96-2.96-2.96,1.33-2.96,2.96Z" style="fill:#ebebeb;"></path><path d="M461.21,78.81v5.89c1.49-.15,2.66-1.41,2.66-2.95s-1.17-2.8-2.66-2.95Z" style="fill:#ebebeb;"></path><path d="M515.7,101.78c0,1.63,1.33,2.96,2.96,2.96,.94,0,1.77-.43,2.32-1.11l-.05-.05c-1.3-1.27-2.61-2.71-3.92-4.25-.79,.53-1.31,1.44-1.31,2.46Z" style="fill:#ebebeb;"></path><path d="M506.82,101.77c0,1.64,1.33,2.96,2.96,2.96s2.96-1.33,2.96-2.96-1.33-2.96-2.96-2.96-2.96,1.33-2.96,2.96Z" style="fill:#ebebeb;"></path><path d="M497.93,101.77c0,1.64,1.33,2.96,2.96,2.96s2.96-1.33,2.96-2.96-1.33-2.96-2.96-2.96-2.96,1.33-2.96,2.96Z" style="fill:#ebebeb;"></path><path d="M489.04,101.77c0,1.64,1.33,2.96,2.96,2.96s2.96-1.33,2.96-2.96-1.33-2.96-2.96-2.96-2.96,1.33-2.96,2.96Z" style="fill:#ebebeb;"></path><path d="M480.16,101.77c0,1.64,1.33,2.96,2.96,2.96s2.96-1.33,2.96-2.96-1.33-2.96-2.96-2.96-2.96,1.33-2.96,2.96Z" style="fill:#ebebeb;"></path><path d="M471.27,101.77c0,1.64,1.33,2.96,2.96,2.96s2.96-1.33,2.96-2.96-1.33-2.96-2.96-2.96-2.96,1.33-2.96,2.96Z" style="fill:#ebebeb;"></path><path d="M462.39,101.77c0,1.64,1.33,2.96,2.96,2.96s2.96-1.33,2.96-2.96-1.33-2.96-2.96-2.96-2.96,1.33-2.96,2.96Z" style="fill:#ebebeb;"></path><path d="M511.25,95.1c0,1.63,1.33,2.96,2.97,2.96,.53,0,1.01-.14,1.45-.38-1.19-1.48-2.36-3.07-3.51-4.72-.56,.55-.91,1.31-.91,2.14Z" style="fill:#ebebeb;"></path><path d="M502.37,95.1c0,1.64,1.33,2.96,2.96,2.96s2.96-1.33,2.96-2.96-1.33-2.96-2.96-2.96-2.96,1.33-2.96,2.96Z" style="fill:#ebebeb;"></path><path d="M493.49,95.1c0,1.64,1.33,2.96,2.96,2.96s2.96-1.33,2.96-2.96-1.33-2.96-2.96-2.96-2.96,1.33-2.96,2.96Z" style="fill:#ebebeb;"></path><path d="M484.6,95.1c0,1.64,1.33,2.96,2.96,2.96s2.96-1.33,2.96-2.96-1.33-2.96-2.96-2.96-2.96,1.33-2.96,2.96Z" style="fill:#ebebeb;"></path><path d="M475.72,95.1c0,1.64,1.33,2.96,2.96,2.96s2.96-1.33,2.96-2.96-1.33-2.96-2.96-2.96-2.96,1.33-2.96,2.96Z" style="fill:#ebebeb;"></path><path d="M466.83,95.1c0,1.64,1.33,2.96,2.96,2.96s2.96-1.33,2.96-2.96-1.33-2.96-2.96-2.96-2.96,1.33-2.96,2.96Z" style="fill:#ebebeb;"></path><path d="M461.21,92.15v5.91c1.49-.15,2.66-1.41,2.66-2.95s-1.17-2.81-2.66-2.96Z" style="fill:#ebebeb;"></path><path d="M524.59,115.12c0,1.64,1.33,2.96,2.96,2.96s2.96-1.33,2.96-2.96-1.33-2.96-2.96-2.96-2.96,1.33-2.96,2.96Z" style="fill:#ebebeb;"></path><path d="M515.7,115.12c0,1.64,1.33,2.96,2.96,2.96s2.96-1.33,2.96-2.96-1.33-2.96-2.96-2.96-2.96,1.33-2.96,2.96Z" style="fill:#ebebeb;"></path><path d="M506.82,115.12c0,1.64,1.33,2.96,2.96,2.96s2.96-1.33,2.96-2.96-1.33-2.96-2.96-2.96-2.96,1.33-2.96,2.96Z" style="fill:#ebebeb;"></path><path d="M497.93,115.12c0,1.64,1.33,2.96,2.96,2.96s2.96-1.33,2.96-2.96-1.33-2.96-2.96-2.96-2.96,1.33-2.96,2.96Z" style="fill:#ebebeb;"></path><path d="M489.04,115.12c0,1.64,1.33,2.96,2.96,2.96s2.96-1.33,2.96-2.96-1.33-2.96-2.96-2.96-2.96,1.33-2.96,2.96Z" style="fill:#ebebeb;"></path><path d="M480.16,115.12c0,1.64,1.33,2.96,2.96,2.96s2.96-1.33,2.96-2.96-1.33-2.96-2.96-2.96-2.96,1.33-2.96,2.96Z" style="fill:#ebebeb;"></path><path d="M471.27,115.12c0,1.64,1.33,2.96,2.96,2.96s2.96-1.33,2.96-2.96-1.33-2.96-2.96-2.96-2.96,1.33-2.96,2.96Z" style="fill:#ebebeb;"></path><path d="M462.39,115.12c0,1.64,1.33,2.96,2.96,2.96s2.96-1.33,2.96-2.96-1.33-2.96-2.96-2.96-2.96,1.33-2.96,2.96Z" style="fill:#ebebeb;"></path><path d="M520.14,108.45c0,1.63,1.33,2.96,2.97,2.96,1.51,0,2.76-1.14,2.94-2.61-1.12-1.19-2.19-2.29-3.2-3.3-1.52,.13-2.71,1.4-2.71,2.96Z" style="fill:#ebebeb;"></path><circle cx="514.22" cy="108.45" r="2.96" style="fill:#ebebeb;"></circle><circle cx="505.33" cy="108.45" r="2.96" style="fill:#ebebeb;"></circle><path d="M493.49,108.45c0,1.64,1.33,2.96,2.96,2.96s2.96-1.33,2.96-2.96-1.33-2.96-2.96-2.96-2.96,1.33-2.96,2.96Z" style="fill:#ebebeb;"></path><path d="M484.6,108.45c0,1.64,1.33,2.96,2.96,2.96s2.96-1.33,2.96-2.96-1.33-2.96-2.96-2.96-2.96,1.33-2.96,2.96Z" style="fill:#ebebeb;"></path><path d="M475.72,108.45c0,1.64,1.33,2.96,2.96,2.96s2.96-1.33,2.96-2.96-1.33-2.96-2.96-2.96-2.96,1.33-2.96,2.96Z" style="fill:#ebebeb;"></path><path d="M466.83,108.45c0,1.64,1.33,2.96,2.96,2.96s2.96-1.33,2.96-2.96-1.33-2.96-2.96-2.96-2.96,1.33-2.96,2.96Z" style="fill:#ebebeb;"></path><path d="M461.21,105.49v5.91c1.49-.15,2.66-1.41,2.66-2.95s-1.17-2.81-2.66-2.96Z" style="fill:#ebebeb;"></path><path d="M542.36,128.53c.03,1.21,.79,2.25,1.85,2.67-.6-.89-1.22-1.78-1.85-2.67Z" style="fill:#ebebeb;"></path><path d="M533.47,128.46c0,1.64,1.33,2.96,2.96,2.96s2.96-1.33,2.96-2.96-1.33-2.96-2.96-2.96-2.96,1.33-2.96,2.96Z" style="fill:#ebebeb;"></path><path d="M524.59,128.46c0,1.64,1.33,2.96,2.96,2.96s2.96-1.33,2.96-2.96-1.33-2.96-2.96-2.96-2.96,1.33-2.96,2.96Z" style="fill:#ebebeb;"></path><path d="M515.7,128.46c0,1.64,1.33,2.96,2.96,2.96s2.96-1.33,2.96-2.96-1.33-2.96-2.96-2.96-2.96,1.33-2.96,2.96Z" style="fill:#ebebeb;"></path><path d="M506.82,128.46c0,1.64,1.33,2.96,2.96,2.96s2.96-1.33,2.96-2.96-1.33-2.96-2.96-2.96-2.96,1.33-2.96,2.96Z" style="fill:#ebebeb;"></path><path d="M497.93,128.46c0,1.64,1.33,2.96,2.96,2.96s2.96-1.33,2.96-2.96-1.33-2.96-2.96-2.96-2.96,1.33-2.96,2.96Z" style="fill:#ebebeb;"></path><path d="M489.04,128.46c0,1.64,1.33,2.96,2.96,2.96s2.96-1.33,2.96-2.96-1.33-2.96-2.96-2.96-2.96,1.33-2.96,2.96Z" style="fill:#ebebeb;"></path><path d="M480.16,128.46c0,1.64,1.33,2.96,2.96,2.96s2.96-1.33,2.96-2.96-1.33-2.96-2.96-2.96-2.96,1.33-2.96,2.96Z" style="fill:#ebebeb;"></path><path d="M471.27,128.46c0,1.64,1.33,2.96,2.96,2.96s2.96-1.33,2.96-2.96-1.33-2.96-2.96-2.96-2.96,1.33-2.96,2.96Z" style="fill:#ebebeb;"></path><path d="M462.39,128.46c0,1.64,1.33,2.96,2.96,2.96s2.96-1.33,2.96-2.96-1.33-2.96-2.96-2.96-2.96,1.33-2.96,2.96Z" style="fill:#ebebeb;"></path><path d="M538.12,122.83c.21,.57,.59,1.06,1.08,1.39-.37-.46-.72-.93-1.08-1.39Z" style="fill:#ebebeb;"></path><path d="M529.03,121.79c0,1.64,1.33,2.96,2.96,2.96s2.96-1.33,2.96-2.96-1.33-2.96-2.96-2.96-2.96,1.33-2.96,2.96Z" style="fill:#ebebeb;"></path><path d="M520.14,121.79c0,1.64,1.33,2.96,2.96,2.96s2.96-1.33,2.96-2.96-1.33-2.96-2.96-2.96-2.96,1.33-2.96,2.96Z" style="fill:#ebebeb;"></path><path d="M511.26,121.79c0,1.64,1.33,2.96,2.96,2.96s2.96-1.33,2.96-2.96-1.33-2.96-2.96-2.96-2.96,1.33-2.96,2.96Z" style="fill:#ebebeb;"></path><path d="M502.37,121.79c0,1.64,1.33,2.96,2.96,2.96s2.96-1.33,2.96-2.96-1.33-2.96-2.96-2.96-2.96,1.33-2.96,2.96Z" style="fill:#ebebeb;"></path><path d="M493.49,121.79c0,1.64,1.33,2.96,2.96,2.96s2.96-1.33,2.96-2.96-1.33-2.96-2.96-2.96-2.96,1.33-2.96,2.96Z" style="fill:#ebebeb;"></path><path d="M484.6,121.79c0,1.64,1.33,2.96,2.96,2.96s2.96-1.33,2.96-2.96-1.33-2.96-2.96-2.96-2.96,1.33-2.96,2.96Z" style="fill:#ebebeb;"></path><path d="M475.72,121.79c0,1.64,1.33,2.96,2.96,2.96s2.96-1.33,2.96-2.96-1.33-2.96-2.96-2.96-2.96,1.33-2.96,2.96Z" style="fill:#ebebeb;"></path><path d="M466.83,121.79c0,1.64,1.33,2.96,2.96,2.96s2.96-1.33,2.96-2.96-1.33-2.96-2.96-2.96-2.96,1.33-2.96,2.96Z" style="fill:#ebebeb;"></path><path d="M461.21,118.83v5.91c1.49-.15,2.66-1.41,2.66-2.95s-1.17-2.81-2.66-2.96Z" style="fill:#ebebeb;"></path><path d="M542.36,141.8c0,1.64,1.33,2.96,2.96,2.96s2.96-1.33,2.96-2.96-1.33-2.96-2.96-2.96-2.96,1.33-2.96,2.96Z" style="fill:#ebebeb;"></path><path d="M533.47,141.8c0,1.64,1.33,2.96,2.96,2.96s2.96-1.33,2.96-2.96-1.33-2.96-2.96-2.96-2.96,1.33-2.96,2.96Z" style="fill:#ebebeb;"></path><path d="M524.59,141.8c0,1.64,1.33,2.96,2.96,2.96s2.96-1.33,2.96-2.96-1.33-2.96-2.96-2.96-2.96,1.33-2.96,2.96Z" style="fill:#ebebeb;"></path><path d="M515.7,141.8c0,1.64,1.33,2.96,2.96,2.96s2.96-1.33,2.96-2.96-1.33-2.96-2.96-2.96-2.96,1.33-2.96,2.96Z" style="fill:#ebebeb;"></path><path d="M506.82,141.8c0,1.64,1.33,2.96,2.96,2.96s2.96-1.33,2.96-2.96-1.33-2.96-2.96-2.96-2.96,1.33-2.96,2.96Z" style="fill:#ebebeb;"></path><path d="M497.93,141.8c0,1.64,1.33,2.96,2.96,2.96s2.96-1.33,2.96-2.96-1.33-2.96-2.96-2.96-2.96,1.33-2.96,2.96Z" style="fill:#ebebeb;"></path><path d="M489.04,141.8c0,1.64,1.33,2.96,2.96,2.96s2.96-1.33,2.96-2.96-1.33-2.96-2.96-2.96-2.96,1.33-2.96,2.96Z" style="fill:#ebebeb;"></path><path d="M480.16,141.8c0,1.64,1.33,2.96,2.96,2.96s2.96-1.33,2.96-2.96-1.33-2.96-2.96-2.96-2.96,1.33-2.96,2.96Z" style="fill:#ebebeb;"></path><path d="M471.27,141.8c0,1.64,1.33,2.96,2.96,2.96s2.96-1.33,2.96-2.96-1.33-2.96-2.96-2.96-2.96,1.33-2.96,2.96Z" style="fill:#ebebeb;"></path><path d="M462.39,141.8c0,1.64,1.33,2.96,2.96,2.96s2.96-1.33,2.96-2.96-1.33-2.96-2.96-2.96-2.96,1.33-2.96,2.96Z" style="fill:#ebebeb;"></path><path d="M546.82,135.3c.04,1,.6,1.88,1.43,2.36-.46-.8-.94-1.57-1.43-2.36Z" style="fill:#ebebeb;"></path><path d="M537.92,135.13c0,1.64,1.33,2.96,2.96,2.96s2.96-1.33,2.96-2.96-1.33-2.96-2.96-2.96-2.96,1.33-2.96,2.96Z" style="fill:#ebebeb;"></path><path d="M529.03,135.13c0,1.64,1.33,2.96,2.96,2.96s2.96-1.33,2.96-2.96-1.33-2.96-2.96-2.96-2.96,1.33-2.96,2.96Z" style="fill:#ebebeb;"></path><path d="M520.14,135.13c0,1.64,1.33,2.96,2.96,2.96s2.96-1.33,2.96-2.96-1.33-2.96-2.96-2.96-2.96,1.33-2.96,2.96Z" style="fill:#ebebeb;"></path><circle cx="514.22" cy="135.13" r="2.96" style="fill:#ebebeb;"></circle><circle cx="505.33" cy="135.13" r="2.96" style="fill:#ebebeb;"></circle><path d="M493.49,135.13c0,1.64,1.33,2.96,2.96,2.96s2.96-1.33,2.96-2.96-1.33-2.96-2.96-2.96-2.96,1.33-2.96,2.96Z" style="fill:#ebebeb;"></path><path d="M484.6,135.13c0,1.64,1.33,2.96,2.96,2.96s2.96-1.33,2.96-2.96-1.33-2.96-2.96-2.96-2.96,1.33-2.96,2.96Z" style="fill:#ebebeb;"></path><path d="M475.72,135.13c0,1.64,1.33,2.96,2.96,2.96s2.96-1.33,2.96-2.96-1.33-2.96-2.96-2.96-2.96,1.33-2.96,2.96Z" style="fill:#ebebeb;"></path><path d="M466.83,135.13c0,1.64,1.33,2.96,2.96,2.96s2.96-1.33,2.96-2.96-1.33-2.96-2.96-2.96-2.96,1.33-2.96,2.96Z" style="fill:#ebebeb;"></path><path d="M461.21,132.18v5.91c1.49-.15,2.66-1.41,2.66-2.95s-1.17-2.81-2.66-2.96Z" style="fill:#ebebeb;"></path><path d="M551.24,155.15c0,1.63,1.33,2.96,2.96,2.96,.43,0,.84-.1,1.21-.26-.1-1.82-.41-3.71-.92-5.66-.1-.01-.19-.01-.29-.01-1.63,0-2.96,1.33-2.96,2.97Z" style="fill:#ebebeb;"></path><path d="M542.36,155.15c0,1.64,1.33,2.96,2.96,2.96s2.96-1.33,2.96-2.96-1.33-2.96-2.96-2.96-2.96,1.33-2.96,2.96Z" style="fill:#ebebeb;"></path><path d="M533.47,155.15c0,1.64,1.33,2.96,2.96,2.96s2.96-1.33,2.96-2.96-1.33-2.96-2.96-2.96-2.96,1.33-2.96,2.96Z" style="fill:#ebebeb;"></path><path d="M524.59,155.15c0,1.64,1.33,2.96,2.96,2.96s2.96-1.33,2.96-2.96-1.33-2.96-2.96-2.96-2.96,1.33-2.96,2.96Z" style="fill:#ebebeb;"></path><path d="M515.7,155.15c0,1.64,1.33,2.96,2.96,2.96s2.96-1.33,2.96-2.96-1.33-2.96-2.96-2.96-2.96,1.33-2.96,2.96Z" style="fill:#ebebeb;"></path><path d="M506.82,155.15c0,1.64,1.33,2.96,2.96,2.96s2.96-1.33,2.96-2.96-1.33-2.96-2.96-2.96-2.96,1.33-2.96,2.96Z" style="fill:#ebebeb;"></path><path d="M497.93,155.15c0,1.64,1.33,2.96,2.96,2.96s2.96-1.33,2.96-2.96-1.33-2.96-2.96-2.96-2.96,1.33-2.96,2.96Z" style="fill:#ebebeb;"></path><path d="M489.04,155.15c0,1.64,1.33,2.96,2.96,2.96s2.96-1.33,2.96-2.96-1.33-2.96-2.96-2.96-2.96,1.33-2.96,2.96Z" style="fill:#ebebeb;"></path><path d="M480.16,155.15c0,1.64,1.33,2.96,2.96,2.96s2.96-1.33,2.96-2.96-1.33-2.96-2.96-2.96-2.96,1.33-2.96,2.96Z" style="fill:#ebebeb;"></path><path d="M471.27,155.15c0,1.64,1.33,2.96,2.96,2.96s2.96-1.33,2.96-2.96-1.33-2.96-2.96-2.96-2.96,1.33-2.96,2.96Z" style="fill:#ebebeb;"></path><path d="M462.39,155.15c0,1.64,1.33,2.96,2.96,2.96s2.96-1.33,2.96-2.96-1.33-2.96-2.96-2.96-2.96,1.33-2.96,2.96Z" style="fill:#ebebeb;"></path><path d="M546.8,148.48c0,1.64,1.33,2.96,2.96,2.96s2.96-1.33,2.96-2.96-1.33-2.96-2.96-2.96-2.96,1.33-2.96,2.96Z" style="fill:#ebebeb;"></path><path d="M537.92,148.48c0,1.64,1.33,2.96,2.96,2.96s2.96-1.33,2.96-2.96-1.33-2.96-2.96-2.96-2.96,1.33-2.96,2.96Z" style="fill:#ebebeb;"></path><path d="M529.03,148.48c0,1.64,1.33,2.96,2.96,2.96s2.96-1.33,2.96-2.96-1.33-2.96-2.96-2.96-2.96,1.33-2.96,2.96Z" style="fill:#ebebeb;"></path><path d="M520.14,148.48c0,1.64,1.33,2.96,2.96,2.96s2.96-1.33,2.96-2.96-1.33-2.96-2.96-2.96-2.96,1.33-2.96,2.96Z" style="fill:#ebebeb;"></path><path d="M511.26,148.48c0,1.64,1.33,2.96,2.96,2.96s2.96-1.33,2.96-2.96-1.33-2.96-2.96-2.96-2.96,1.33-2.96,2.96Z" style="fill:#ebebeb;"></path><path d="M502.37,148.48c0,1.64,1.33,2.96,2.96,2.96s2.96-1.33,2.96-2.96-1.33-2.96-2.96-2.96-2.96,1.33-2.96,2.96Z" style="fill:#ebebeb;"></path><path d="M493.49,148.48c0,1.64,1.33,2.96,2.96,2.96s2.96-1.33,2.96-2.96-1.33-2.96-2.96-2.96-2.96,1.33-2.96,2.96Z" style="fill:#ebebeb;"></path><path d="M484.6,148.48c0,1.64,1.33,2.96,2.96,2.96s2.96-1.33,2.96-2.96-1.33-2.96-2.96-2.96-2.96,1.33-2.96,2.96Z" style="fill:#ebebeb;"></path><path d="M475.72,148.48c0,1.64,1.33,2.96,2.96,2.96s2.96-1.33,2.96-2.96-1.33-2.96-2.96-2.96-2.96,1.33-2.96,2.96Z" style="fill:#ebebeb;"></path><path d="M466.83,148.48c0,1.64,1.33,2.96,2.96,2.96s2.96-1.33,2.96-2.96-1.33-2.96-2.96-2.96-2.96,1.33-2.96,2.96Z" style="fill:#ebebeb;"></path><path d="M461.21,145.52v5.91c1.49-.15,2.66-1.41,2.66-2.95s-1.17-2.81-2.66-2.96Z" style="fill:#ebebeb;"></path><path d="M551.24,168.5c0,1.03,.52,1.93,1.32,2.46,.82-1.86,1.47-3.68,1.95-5.42-.1,0-.21-.01-.31-.01-1.63,0-2.96,1.33-2.96,2.97Z" style="fill:#ebebeb;"></path><path d="M542.36,168.49c0,1.64,1.33,2.96,2.96,2.96s2.96-1.33,2.96-2.96-1.33-2.96-2.96-2.96-2.96,1.33-2.96,2.96Z" style="fill:#ebebeb;"></path><path d="M533.47,168.49c0,1.64,1.33,2.96,2.96,2.96s2.96-1.33,2.96-2.96-1.33-2.96-2.96-2.96-2.96,1.33-2.96,2.96Z" style="fill:#ebebeb;"></path><path d="M524.59,168.49c0,1.64,1.33,2.96,2.96,2.96s2.96-1.33,2.96-2.96-1.33-2.96-2.96-2.96-2.96,1.33-2.96,2.96Z" style="fill:#ebebeb;"></path><path d="M515.7,168.49c0,1.64,1.33,2.96,2.96,2.96s2.96-1.33,2.96-2.96-1.33-2.96-2.96-2.96-2.96,1.33-2.96,2.96Z" style="fill:#ebebeb;"></path><path d="M506.82,168.49c0,1.64,1.33,2.96,2.96,2.96s2.96-1.33,2.96-2.96-1.33-2.96-2.96-2.96-2.96,1.33-2.96,2.96Z" style="fill:#ebebeb;"></path><path d="M497.93,168.49c0,1.64,1.33,2.96,2.96,2.96s2.96-1.33,2.96-2.96-1.33-2.96-2.96-2.96-2.96,1.33-2.96,2.96Z" style="fill:#ebebeb;"></path><path d="M489.04,168.49c0,1.64,1.33,2.96,2.96,2.96s2.96-1.33,2.96-2.96-1.33-2.96-2.96-2.96-2.96,1.33-2.96,2.96Z" style="fill:#ebebeb;"></path><path d="M480.16,168.49c0,1.64,1.33,2.96,2.96,2.96s2.96-1.33,2.96-2.96-1.33-2.96-2.96-2.96-2.96,1.33-2.96,2.96Z" style="fill:#ebebeb;"></path><path d="M471.27,168.49c0,1.64,1.33,2.96,2.96,2.96s2.96-1.33,2.96-2.96-1.33-2.96-2.96-2.96-2.96,1.33-2.96,2.96Z" style="fill:#ebebeb;"></path><path d="M462.39,168.49c0,1.64,1.33,2.96,2.96,2.96s2.96-1.33,2.96-2.96-1.33-2.96-2.96-2.96-2.96,1.33-2.96,2.96Z" style="fill:#ebebeb;"></path><path d="M546.8,161.82c0,1.64,1.33,2.96,2.96,2.96s2.96-1.33,2.96-2.96-1.33-2.96-2.96-2.96-2.96,1.33-2.96,2.96Z" style="fill:#ebebeb;"></path><path d="M537.92,161.82c0,1.64,1.33,2.96,2.96,2.96s2.96-1.33,2.96-2.96-1.33-2.96-2.96-2.96-2.96,1.33-2.96,2.96Z" style="fill:#ebebeb;"></path><path d="M529.03,161.82c0,1.64,1.33,2.96,2.96,2.96s2.96-1.33,2.96-2.96-1.33-2.96-2.96-2.96-2.96,1.33-2.96,2.96Z" style="fill:#ebebeb;"></path><path d="M520.14,161.82c0,1.64,1.33,2.96,2.96,2.96s2.96-1.33,2.96-2.96-1.33-2.96-2.96-2.96-2.96,1.33-2.96,2.96Z" style="fill:#ebebeb;"></path><circle cx="514.22" cy="161.82" r="2.96" style="fill:#ebebeb;"></circle><circle cx="505.33" cy="161.82" r="2.96" style="fill:#ebebeb;"></circle><path d="M493.49,161.82c0,1.64,1.33,2.96,2.96,2.96s2.96-1.33,2.96-2.96-1.33-2.96-2.96-2.96-2.96,1.33-2.96,2.96Z" style="fill:#ebebeb;"></path><path d="M484.6,161.82c0,1.64,1.33,2.96,2.96,2.96s2.96-1.33,2.96-2.96-1.33-2.96-2.96-2.96-2.96,1.33-2.96,2.96Z" style="fill:#ebebeb;"></path><path d="M475.72,161.82c0,1.64,1.33,2.96,2.96,2.96s2.96-1.33,2.96-2.96-1.33-2.96-2.96-2.96-2.96,1.33-2.96,2.96Z" style="fill:#ebebeb;"></path><path d="M466.83,161.82c0,1.64,1.33,2.96,2.96,2.96s2.96-1.33,2.96-2.96-1.33-2.96-2.96-2.96-2.96,1.33-2.96,2.96Z" style="fill:#ebebeb;"></path><path d="M461.21,158.87v5.91c1.49-.15,2.66-1.41,2.66-2.95s-1.17-2.81-2.66-2.96Z" style="fill:#ebebeb;"></path><path d="M542.36,181.83c0,1.2,.7,2.22,1.72,2.69,1.24-1.53,2.41-3.09,3.45-4.64-.53-.62-1.33-1-2.21-1-1.63,0-2.96,1.33-2.96,2.96Z" style="fill:#ebebeb;"></path><path d="M533.47,181.84c0,1.64,1.33,2.96,2.96,2.96s2.96-1.33,2.96-2.96-1.33-2.96-2.96-2.96-2.96,1.33-2.96,2.96Z" style="fill:#ebebeb;"></path><path d="M524.59,181.84c0,1.64,1.33,2.96,2.96,2.96s2.96-1.33,2.96-2.96-1.33-2.96-2.96-2.96-2.96,1.33-2.96,2.96Z" style="fill:#ebebeb;"></path><path d="M515.7,181.84c0,1.64,1.33,2.96,2.96,2.96s2.96-1.33,2.96-2.96-1.33-2.96-2.96-2.96-2.96,1.33-2.96,2.96Z" style="fill:#ebebeb;"></path><circle cx="509.78" cy="181.84" r="2.96" style="fill:#ebebeb;"></circle><circle cx="500.89" cy="181.84" r="2.96" style="fill:#ebebeb;"></circle><circle cx="492.01" cy="181.84" r="2.96" style="fill:#ebebeb;"></circle><path d="M480.16,181.84c0,1.64,1.33,2.96,2.96,2.96s2.96-1.33,2.96-2.96-1.33-2.96-2.96-2.96-2.96,1.33-2.96,2.96Z" style="fill:#ebebeb;"></path><path d="M471.27,181.84c0,1.64,1.33,2.96,2.96,2.96s2.96-1.33,2.96-2.96-1.33-2.96-2.96-2.96-2.96,1.33-2.96,2.96Z" style="fill:#ebebeb;"></path><path d="M462.39,181.84c0,1.64,1.33,2.96,2.96,2.96s2.96-1.33,2.96-2.96-1.33-2.96-2.96-2.96-2.96,1.33-2.96,2.96Z" style="fill:#ebebeb;"></path><path d="M546.81,175.16c0,1.3,.83,2.41,1.99,2.81,1.08-1.71,2.04-3.41,2.86-5.09-.51-.42-1.17-.68-1.89-.68-1.64,0-2.96,1.33-2.96,2.96Z" style="fill:#ebebeb;"></path><path d="M537.92,175.16c0,1.64,1.33,2.96,2.96,2.96s2.96-1.33,2.96-2.96-1.33-2.96-2.96-2.96-2.96,1.33-2.96,2.96Z" style="fill:#ebebeb;"></path><path d="M529.03,175.16c0,1.64,1.33,2.96,2.96,2.96s2.96-1.33,2.96-2.96-1.33-2.96-2.96-2.96-2.96,1.33-2.96,2.96Z" style="fill:#ebebeb;"></path><path d="M520.14,175.16c0,1.64,1.33,2.96,2.96,2.96s2.96-1.33,2.96-2.96-1.33-2.96-2.96-2.96-2.96,1.33-2.96,2.96Z" style="fill:#ebebeb;"></path><path d="M511.26,175.16c0,1.64,1.33,2.96,2.96,2.96s2.96-1.33,2.96-2.96-1.33-2.96-2.96-2.96-2.96,1.33-2.96,2.96Z" style="fill:#ebebeb;"></path><path d="M502.37,175.16c0,1.64,1.33,2.96,2.96,2.96s2.96-1.33,2.96-2.96-1.33-2.96-2.96-2.96-2.96,1.33-2.96,2.96Z" style="fill:#ebebeb;"></path><path d="M493.49,175.16c0,1.64,1.33,2.96,2.96,2.96s2.96-1.33,2.96-2.96-1.33-2.96-2.96-2.96-2.96,1.33-2.96,2.96Z" style="fill:#ebebeb;"></path><path d="M484.6,175.16c0,1.64,1.33,2.96,2.96,2.96s2.96-1.33,2.96-2.96-1.33-2.96-2.96-2.96-2.96,1.33-2.96,2.96Z" style="fill:#ebebeb;"></path><path d="M475.72,175.16c0,1.64,1.33,2.96,2.96,2.96s2.96-1.33,2.96-2.96-1.33-2.96-2.96-2.96-2.96,1.33-2.96,2.96Z" style="fill:#ebebeb;"></path><path d="M466.83,175.16c0,1.64,1.33,2.96,2.96,2.96s2.96-1.33,2.96-2.96-1.33-2.96-2.96-2.96-2.96,1.33-2.96,2.96Z" style="fill:#ebebeb;"></path><path d="M461.21,172.21v5.91c1.49-.15,2.66-1.43,2.66-2.96s-1.17-2.8-2.66-2.95Z" style="fill:#ebebeb;"></path><path d="M533.47,195.15c1.16-.94,2.27-1.92,3.34-2.91-.12-.01-.25-.02-.38-.02-1.62,0-2.95,1.32-2.96,2.94Z" style="fill:#ebebeb;"></path><path d="M524.59,195.18c0,1.64,1.33,2.96,2.96,2.96s2.96-1.33,2.96-2.96-1.33-2.96-2.96-2.96-2.96,1.33-2.96,2.96Z" style="fill:#ebebeb;"></path><path d="M515.7,195.18c0,1.64,1.33,2.96,2.96,2.96s2.96-1.33,2.96-2.96-1.33-2.96-2.96-2.96-2.96,1.33-2.96,2.96Z" style="fill:#ebebeb;"></path><path d="M506.82,195.18c0,1.64,1.33,2.96,2.96,2.96s2.96-1.33,2.96-2.96-1.33-2.96-2.96-2.96-2.96,1.33-2.96,2.96Z" style="fill:#ebebeb;"></path><path d="M497.93,195.18c0,1.64,1.33,2.96,2.96,2.96s2.96-1.33,2.96-2.96-1.33-2.96-2.96-2.96-2.96,1.33-2.96,2.96Z" style="fill:#ebebeb;"></path><path d="M489.04,195.18c0,1.64,1.33,2.96,2.96,2.96s2.96-1.33,2.96-2.96-1.33-2.96-2.96-2.96-2.96,1.33-2.96,2.96Z" style="fill:#ebebeb;"></path><path d="M480.16,195.18c0,1.64,1.33,2.96,2.96,2.96s2.96-1.33,2.96-2.96-1.33-2.96-2.96-2.96-2.96,1.33-2.96,2.96Z" style="fill:#ebebeb;"></path><path d="M471.27,195.18c0,1.64,1.33,2.96,2.96,2.96s2.96-1.33,2.96-2.96-1.33-2.96-2.96-2.96-2.96,1.33-2.96,2.96Z" style="fill:#ebebeb;"></path><path d="M462.39,195.18c0,1.64,1.33,2.96,2.96,2.96s2.96-1.33,2.96-2.96-1.33-2.96-2.96-2.96-2.96,1.33-2.96,2.96Z" style="fill:#ebebeb;"></path><path d="M537.92,188.5c0,.76,.28,1.45,.74,1.96,1.43-1.4,2.76-2.85,4.03-4.31-.5-.38-1.13-.62-1.81-.62-1.64,0-2.96,1.33-2.96,2.96Z" style="fill:#ebebeb;"></path><path d="M529.03,188.51c0,1.64,1.33,2.96,2.96,2.96s2.96-1.33,2.96-2.96-1.33-2.96-2.96-2.96-2.96,1.33-2.96,2.96Z" style="fill:#ebebeb;"></path><path d="M520.14,188.51c0,1.64,1.33,2.96,2.96,2.96s2.96-1.33,2.96-2.96-1.33-2.96-2.96-2.96-2.96,1.33-2.96,2.96Z" style="fill:#ebebeb;"></path><circle cx="514.22" cy="188.51" r="2.96" style="fill:#ebebeb;"></circle><circle cx="505.33" cy="188.51" r="2.96" style="fill:#ebebeb;"></circle><path d="M493.49,188.51c0,1.64,1.33,2.96,2.96,2.96s2.96-1.33,2.96-2.96-1.33-2.96-2.96-2.96-2.96,1.33-2.96,2.96Z" style="fill:#ebebeb;"></path><path d="M484.6,188.51c0,1.64,1.33,2.96,2.96,2.96s2.96-1.33,2.96-2.96-1.33-2.96-2.96-2.96-2.96,1.33-2.96,2.96Z" style="fill:#ebebeb;"></path><path d="M475.72,188.51c0,1.64,1.33,2.96,2.96,2.96s2.96-1.33,2.96-2.96-1.33-2.96-2.96-2.96-2.96,1.33-2.96,2.96Z" style="fill:#ebebeb;"></path><path d="M466.83,188.51c0,1.64,1.33,2.96,2.96,2.96s2.96-1.33,2.96-2.96-1.33-2.96-2.96-2.96-2.96,1.33-2.96,2.96Z" style="fill:#ebebeb;"></path><path d="M461.21,185.56v5.91c1.49-.15,2.66-1.43,2.66-2.96s-1.17-2.8-2.66-2.95Z" style="fill:#ebebeb;"></path><path d="M506.82,208.52c0,.17,.01,.35,.05,.51,1.91-.5,3.77-1.08,5.6-1.74-.46-1.01-1.5-1.73-2.7-1.73-1.63,0-2.96,1.33-2.96,2.96Z" style="fill:#ebebeb;"></path><path d="M497.93,208.52c0,.8,.31,1.52,.82,2.05,1.63-.19,3.24-.45,4.82-.78,.18-.38,.29-.82,.29-1.27,0-1.63-1.33-2.96-2.97-2.96s-2.96,1.33-2.96,2.96Z" style="fill:#ebebeb;"></path><path d="M489.04,208.52c0,1.64,1.33,2.96,2.96,2.96s2.96-1.33,2.96-2.96-1.33-2.96-2.96-2.96-2.96,1.33-2.96,2.96Z" style="fill:#ebebeb;"></path><path d="M480.16,208.52c0,1.64,1.33,2.96,2.96,2.96s2.96-1.33,2.96-2.96-1.33-2.96-2.96-2.96-2.96,1.33-2.96,2.96Z" style="fill:#ebebeb;"></path><path d="M471.27,208.52c0,1.64,1.33,2.96,2.96,2.96s2.96-1.33,2.96-2.96-1.33-2.96-2.96-2.96-2.96,1.33-2.96,2.96Z" style="fill:#ebebeb;"></path><path d="M462.39,208.52c0,1.64,1.33,2.96,2.96,2.96s2.96-1.33,2.96-2.96-1.33-2.96-2.96-2.96-2.96,1.33-2.96,2.96Z" style="fill:#ebebeb;"></path><path d="M520.14,201.85c0,.67,.23,1.28,.59,1.78,1.75-.91,3.45-1.89,5.1-2.94-.44-1.06-1.5-1.8-2.72-1.8-1.64,0-2.97,1.33-2.97,2.96Z" style="fill:#ebebeb;"></path><path d="M511.26,201.85c0,1.64,1.33,2.96,2.96,2.96s2.96-1.33,2.96-2.96-1.33-2.96-2.96-2.96-2.96,1.33-2.96,2.96Z" style="fill:#ebebeb;"></path><path d="M502.37,201.85c0,1.64,1.33,2.96,2.96,2.96s2.96-1.33,2.96-2.96-1.33-2.96-2.96-2.96-2.96,1.33-2.96,2.96Z" style="fill:#ebebeb;"></path><path d="M493.49,201.85c0,1.64,1.33,2.96,2.96,2.96s2.96-1.33,2.96-2.96-1.33-2.96-2.96-2.96-2.96,1.33-2.96,2.96Z" style="fill:#ebebeb;"></path><path d="M484.6,201.85c0,1.64,1.33,2.96,2.96,2.96s2.96-1.33,2.96-2.96-1.33-2.96-2.96-2.96-2.96,1.33-2.96,2.96Z" style="fill:#ebebeb;"></path><path d="M475.72,201.85c0,1.64,1.33,2.96,2.96,2.96s2.96-1.33,2.96-2.96-1.33-2.96-2.96-2.96-2.96,1.33-2.96,2.96Z" style="fill:#ebebeb;"></path><path d="M466.83,201.85c0,1.64,1.33,2.96,2.96,2.96s2.96-1.33,2.96-2.96-1.33-2.96-2.96-2.96-2.96,1.33-2.96,2.96Z" style="fill:#ebebeb;"></path><path d="M461.21,198.9v5.91c1.49-.15,2.66-1.43,2.66-2.96s-1.17-2.8-2.66-2.95Z" style="fill:#ebebeb;"></path><path d="M489.05,221.86c0,1.51,1.13,2.76,2.59,2.95l.13-5.89c-1.52,.12-2.72,1.39-2.72,2.95Z" style="fill:#ebebeb;"></path><path d="M480.16,221.87c0,1.64,1.33,2.96,2.96,2.96s2.96-1.33,2.96-2.96-1.33-2.96-2.96-2.96-2.96,1.33-2.96,2.96Z" style="fill:#ebebeb;"></path><path d="M471.27,221.87c0,1.64,1.33,2.96,2.96,2.96s2.96-1.33,2.96-2.96-1.33-2.96-2.96-2.96-2.96,1.33-2.96,2.96Z" style="fill:#ebebeb;"></path><path d="M462.39,221.87c0,1.64,1.33,2.96,2.96,2.96s2.96-1.33,2.96-2.96-1.33-2.96-2.96-2.96-2.96,1.33-2.96,2.96Z" style="fill:#ebebeb;"></path><path d="M484.6,215.2c0,1.64,1.33,2.96,2.96,2.96s2.96-1.33,2.96-2.96-1.33-2.96-2.96-2.96-2.96,1.33-2.96,2.96Z" style="fill:#ebebeb;"></path><path d="M475.72,215.2c0,1.64,1.33,2.96,2.96,2.96s2.96-1.33,2.96-2.96-1.33-2.96-2.96-2.96-2.96,1.33-2.96,2.96Z" style="fill:#ebebeb;"></path><path d="M466.83,215.2c0,1.64,1.33,2.96,2.96,2.96s2.96-1.33,2.96-2.96-1.33-2.96-2.96-2.96-2.96,1.33-2.96,2.96Z" style="fill:#ebebeb;"></path><path d="M461.21,212.24v5.91c1.49-.15,2.66-1.43,2.66-2.96s-1.17-2.8-2.66-2.95Z" style="fill:#ebebeb;"></path><path d="M489.05,235.21c0,1.43,.99,2.6,2.32,2.89l.12-5.8c-1.38,.24-2.44,1.45-2.44,2.9Z" style="fill:#ebebeb;"></path><path d="M480.16,235.21c0,1.64,1.33,2.96,2.96,2.96s2.96-1.33,2.96-2.96-1.33-2.96-2.96-2.96-2.96,1.33-2.96,2.96Z" style="fill:#ebebeb;"></path><path d="M471.27,235.21c0,1.64,1.33,2.96,2.96,2.96s2.96-1.33,2.96-2.96-1.33-2.96-2.96-2.96-2.96,1.33-2.96,2.96Z" style="fill:#ebebeb;"></path><path d="M462.39,235.21c0,1.64,1.33,2.96,2.96,2.96s2.96-1.33,2.96-2.96-1.33-2.96-2.96-2.96-2.96,1.33-2.96,2.96Z" style="fill:#ebebeb;"></path><path d="M484.6,228.54c0,1.64,1.33,2.96,2.96,2.96s2.96-1.33,2.96-2.96-1.33-2.96-2.96-2.96-2.96,1.33-2.96,2.96Z" style="fill:#ebebeb;"></path><path d="M475.72,228.54c0,1.64,1.33,2.96,2.96,2.96s2.96-1.33,2.96-2.96-1.33-2.96-2.96-2.96-2.96,1.33-2.96,2.96Z" style="fill:#ebebeb;"></path><path d="M466.83,228.54c0,1.64,1.33,2.96,2.96,2.96s2.96-1.33,2.96-2.96-1.33-2.96-2.96-2.96-2.96,1.33-2.96,2.96Z" style="fill:#ebebeb;"></path><path d="M461.21,225.59v5.91c1.49-.15,2.66-1.43,2.66-2.96s-1.17-2.8-2.66-2.95Z" style="fill:#ebebeb;"></path><path d="M484.6,241.88c0,.22,.02,.43,.08,.63h5.78c.05-.19,.08-.41,.08-.63,0-1.63-1.33-2.96-2.96-2.96s-2.97,1.33-2.97,2.96Z" style="fill:#ebebeb;"></path><path d="M475.71,241.88c0,.22,.02,.43,.08,.63h5.78c.05-.19,.08-.41,.08-.63,0-1.63-1.33-2.96-2.96-2.96s-2.97,1.33-2.97,2.96Z" style="fill:#ebebeb;"></path><path d="M466.83,241.88c0,.22,.02,.43,.08,.63h5.78c.05-.19,.08-.41,.08-.63,0-1.63-1.33-2.96-2.96-2.96s-2.97,1.33-2.97,2.96Z" style="fill:#ebebeb;"></path><path d="M461.21,238.93v3.57h2.58c.05-.19,.08-.41,.08-.63,0-1.53-1.17-2.8-2.66-2.95Z" style="fill:#ebebeb;"></path></g><polygon points="473.95 242.43 473.95 51.77 461.21 51.77 461.21 242.5 473.95 242.43" style="fill:#c7c7c7;"></polygon><ellipse cx="467.58" cy="64.42" rx="3.55" ry="7.71" style="fill:#dbdbdb;"></ellipse><ellipse cx="467.58" cy="88.43" rx="3.55" ry="7.71" style="fill:#dbdbdb;"></ellipse><path d="M464.03,112.44c0,4.26,1.59,7.71,3.55,7.71s3.55-3.45,3.55-7.71-1.59-7.71-3.55-7.71-3.55,3.45-3.55,7.71Z" style="fill:#dbdbdb;"></path><ellipse cx="467.58" cy="136.45" rx="3.55" ry="7.71" style="fill:#dbdbdb;"></ellipse><path d="M464.03,160.47c0,4.26,1.59,7.71,3.55,7.71s3.55-3.45,3.55-7.71-1.59-7.71-3.55-7.71-3.55,3.45-3.55,7.71Z" style="fill:#dbdbdb;"></path><ellipse cx="467.58" cy="184.48" rx="3.55" ry="7.71" style="fill:#dbdbdb;"></ellipse><path d="M464.03,208.49c0,4.26,1.59,7.71,3.55,7.71s3.55-3.45,3.55-7.71-1.59-7.71-3.55-7.71-3.55,3.45-3.55,7.71Z" style="fill:#dbdbdb;"></path><path d="M464.03,232.51c0,4.26,1.59,7.71,3.55,7.71s3.55-3.45,3.55-7.71-1.59-7.71-3.55-7.71-3.55,3.45-3.55,7.71Z" style="fill:#dbdbdb;"></path><path d="M553.26,148.21c-6.02-16.54-22.96-35.42-32.33-44.65-11.55-11.35-24.23-34.37-24.23-51.79h-8.7c0,32.14,33.12,58.62,44.57,69.49,10.02,9.49,18.49,21.84,20.68,26.95Z" style="fill:#dbdbdb;"></path><path d="M484.54,206.13v36.37h6.73l.65-31.53c33.08,0,59.03-28.38,62.99-47.15-26.19,49.64-70.37,42.31-70.37,42.31Z" style="fill:#dbdbdb;"></path><path d="M555.21,155.72s3.26,.89,3.26,3.42-3.26,3.14-3.26,3.14c0,0,.64-3.3,0-6.56Z" style="fill:#dbdbdb;"></path><g><path d="M528.59,130.17c-1.91-7.04-8.19-12.94-12.48-9.25-2.37,2.04-.29,6.91,4.07,8.57,3.35,1.27,8.4,.68,8.4,.68Z" style="fill:#dbdbdb;"></path><path d="M537.58,149.85c-1.35-9-8.28-17.22-14.13-13.26-3.23,2.19-1.36,8.52,3.81,11.21,3.97,2.06,10.31,2.05,10.31,2.05Z" style="fill:#dbdbdb;"></path><path d="M519.08,147.9c-4.49-7.37-13.57-12-17.22-6.39-2.02,3.1,1.95,7.95,7.46,8.39,4.23,.34,9.77-2,9.77-2Z" style="fill:#dbdbdb;"></path><path d="M527.29,185.57c-1.91,7.04-8.19,12.94-12.48,9.25-2.37-2.04-.29-6.91,4.07-8.57,3.35-1.27,8.4-.68,8.4-.68Z" style="fill:#dbdbdb;"></path><path d="M536.28,167.81c-1.35,9-8.28,17.22-14.13,13.26-3.23-2.19-1.36-8.52,3.81-11.21,3.97-2.06,10.31-2.05,10.31-2.05Z" style="fill:#dbdbdb;"></path><path d="M517.78,172.36c-4.49,7.37-13.57,12-17.22,6.39-2.02-3.1,1.95-7.95,7.46-8.39,4.23-.34,9.77,2,9.77,2Z" style="fill:#dbdbdb;"></path><path d="M533.49,160.02c-7.94-6.69-20.07-8.49-22.08-.7-1.12,4.31,5.26,8.32,11.71,6.72,4.95-1.23,10.37-6.02,10.37-6.02Z" style="fill:#dbdbdb;"></path><path d="M555.33,157.95l.24-.45h0c-2.57-1.36-5.2-3.69-7.4-6.58-.4-.53-.87-1.15-1.39-1.85-3.9-5.24-11.16-15-18.83-19.6l-.26,.44c7.58,4.55,14.8,14.25,18.68,19.47,.52,.7,.99,1.33,1.39,1.86,2.24,2.94,4.93,5.33,7.57,6.72Z" style="fill:#dbdbdb;"></path><path d="M555.46,158.86l.05-.51c-15.72-1.63-31.05-7.38-36.92-10.94l-.26,.44c5.91,3.58,21.34,9.37,37.14,11.01Z" style="fill:#dbdbdb;"></path><path d="M555.39,158.43l.1-.5c-6.86-1.32-15.97-6.92-18.51-8.81l-.3,.41c3.01,2.24,11.91,7.59,18.72,8.9Z" style="fill:#dbdbdb;"></path><path d="M525.07,187.21c.25-.15,.55-.32,.89-.51,3.32-1.86,10.24-5.74,17.22-15.35,6.11-8.4,12.32-10.31,12.58-10.39l-.14-.49c-.27,.08-6.64,2.04-12.85,10.58-6.92,9.51-13.76,13.36-17.06,15.2-.34,.19-.65,.36-.9,.51l.26,.44Z" style="fill:#dbdbdb;"></path><path d="M535.15,168.98c6.27-4.2,19.18-8.64,20.36-8.74l-.04-.51c-1.2,.1-14.27,4.58-20.6,8.82l.28,.42Z" style="fill:#dbdbdb;"></path><path d="M539.06,160.34c3.63,0,8.84-.14,16.66-.78l-.04-.51c-11.65,.95-17.49,.8-20.97,.71-.77-.02-1.42-.04-1.98-.04v.51c.56,0,1.2,.02,1.97,.04,1.16,.03,2.57,.06,4.37,.06Z" style="fill:#dbdbdb;"></path><path d="M544.21,146.06c-.85-1.11,.31-3.2-4.34-5.4,0,0,.53,2.34,1.44,3.35,.91,1.02,2.9,2.05,2.9,2.05Z" style="fill:#c7c7c7;"></path></g><path d="M475.3,51.77h1.42c.75,0,1.35,.61,1.35,1.35V186.44h-4.13V53.12c0-.75,.61-1.35,1.35-1.35Z" transform="translate(952.02 238.21) rotate(180)" style="fill:#dbdbdb;"></path><g><g><path d="M564.67,111.98c-.18,1.63-.47,3.25-.88,4.83-.2,.79-.42,1.57-.65,2.36-.27,.77-.51,1.55-.81,2.3-1.16,3.03-2.66,5.93-4.56,8.55-1.88,2.62-4.05,5.06-6.59,7.08-1.19,1.11-2.58,1.96-3.92,2.89-1.36,.9-2.82,1.63-4.24,2.46l.06,.14,2.26-1c.74-.35,1.54-.62,2.23-1.09,1.41-.87,2.88-1.65,4.16-2.71,2.7-1.95,4.98-4.45,6.92-7.15,1.94-2.71,3.45-5.73,4.45-8.9,1.02-3.15,1.63-6.46,1.57-9.75Z" style="fill:#c7c7c7;"></path><polygon points="548.15 144.94 548.48 143.91 543.41 142.3 545.39 137.36 544.39 136.95 541.98 142.97 548.15 144.94" style="fill:#c7c7c7;"></polygon></g><g><path d="M545.05,221.92c-.2-1.63-.52-3.24-.95-4.81-.21-.79-.45-1.57-.68-2.35-.28-.76-.53-1.54-.84-2.29-1.21-3.01-2.74-5.89-4.68-8.48-1.92-2.59-4.12-5-6.69-6.98-1.21-1.1-2.61-1.92-3.96-2.84-1.37-.88-2.85-1.59-4.28-2.4l.06-.14,2.27,.97c.75,.34,1.55,.6,2.24,1.06,1.42,.85,2.9,1.61,4.2,2.65,2.73,1.91,5.04,4.38,7.02,7.05,1.98,2.68,3.53,5.68,4.57,8.83,1.07,3.14,1.72,6.43,1.71,9.73Z" style="fill:#c7c7c7;"></path><polygon points="528.07 189.2 528.41 190.22 523.36 191.91 525.42 196.82 524.42 197.24 521.92 191.26 528.07 189.2" style="fill:#c7c7c7;"></polygon></g><g><path d="M589.3,172.99c-.8-1.16-1.62-2.29-2.55-3.34-.89-1.07-1.84-2.09-2.84-3.05-2.01-1.91-4.19-3.63-6.58-4.99-2.36-1.41-4.98-2.36-7.67-2.91-.68-.12-1.35-.29-2.03-.37l-2.07-.13c-.69-.07-1.38-.03-2.08,.01l-2.1,.1-.03-.17c2.76-.51,5.64-.84,8.47-.32l1.06,.15,1.04,.28c.68,.21,1.4,.33,2.06,.61l1.99,.82c.65,.29,1.27,.66,1.9,1,2.47,1.44,4.71,3.25,6.62,5.36,1.91,2.1,3.59,4.41,4.81,6.95Z" style="fill:#c7c7c7;"></path><polygon points="564.34 153.45 565.18 154.14 561.79 158.25 566.13 161.32 565.51 162.2 560.22 158.45 564.34 153.45" style="fill:#c7c7c7;"></polygon></g><g><path d="M563.9,196.29c-1.34-.42-2.66-.88-3.94-1.46-1.29-.53-2.54-1.14-3.75-1.82-2.42-1.36-4.7-2.94-6.7-4.82-2.05-1.84-3.72-4.07-5.03-6.47-.31-.61-.67-1.21-.95-1.84l-.73-1.94c-.27-.64-.43-1.32-.6-1.99l-.52-2.03-.17,.02c.32,2.78,.86,5.64,2.18,8.19l.45,.97,.57,.91c.4,.59,.73,1.24,1.18,1.79l1.37,1.66c.47,.54,1.01,1.02,1.52,1.52,2.11,1.93,4.5,3.55,7.07,4.76,2.56,1.21,5.27,2.14,8.06,2.55Z" style="fill:#c7c7c7;"></path><polygon points="537.89 178.17 538.79 178.77 541.72 174.33 545.94 177.57 546.6 176.72 541.46 172.76 537.89 178.17" style="fill:#c7c7c7;"></polygon></g><g><rect x="578.66" y="175.18" width="20.18" height=".92" transform="translate(1177.51 351.28) rotate(180)" style="fill:#c7c7c7;"></rect><rect x="584.86" y="177.46" width="13.98" height=".92" transform="translate(1183.7 355.83) rotate(180)" style="fill:#c7c7c7;"></rect></g><g><rect x="552.7" y="106.17" width="20.18" height=".92" transform="translate(1125.58 213.25) rotate(180)" style="fill:#c7c7c7;"></rect><rect x="558.9" y="108.44" width="13.98" height=".92" transform="translate(1131.78 217.8) rotate(180)" style="fill:#c7c7c7;"></rect></g><g><rect x="560.37" y="197.82" width="20.18" height=".92" transform="translate(1140.92 396.56) rotate(180)" style="fill:#c7c7c7;"></rect><rect x="566.57" y="200.09" width="13.98" height=".92" transform="translate(1147.11 401.1) rotate(180)" style="fill:#c7c7c7;"></rect></g><g><rect x="533.75" y="223.98" width="20.18" height=".92" transform="translate(1087.68 448.88) rotate(180)" style="fill:#c7c7c7;"></rect><rect x="539.95" y="226.25" width="13.98" height=".92" transform="translate(1093.88 453.43) rotate(180)" style="fill:#c7c7c7;"></rect></g></g></g></g><g><g><path d="M455.5,327.06c.06,1.8,.04,3.6-.14,5.34,.07-1.18,.08-2.37,.1-3.56,.01-.59,.02-1.19,.03-1.78Z" style="fill:#ebebeb;"></path><path d="M469.09,441.76c-.25,.51,.6,.93,.88,.45,8.08-13.89,12.68-28.38,14.56-43.07,5.99-6.53,10.02-14.24,12.67-22.49,.02,0,.04,0,.07,0,7.12-1.01,14.66-2.89,18.68-9.41,3.74-6.08,4.33-14.71,5-21.6,.04-.04,.08-.07,.12-.11,.28-.26-.08-.68-.38-.45-5.39,4.17-10.79,8.9-15.24,14.09-3.96,4.63-5.43,9.96-7.66,15.43,2.86-9.84,3.88-20.35,3.92-30.47,.1-.1,.16-.23,.11-.39-.03-.1-.07-.21-.1-.31,0-.11,0-.23,0-.35,0-.04-.02-.06-.03-.08,4.64-5,8.5-8.81,8.89-15.89,.48-8.74-3.38-15.68-6.84-23.38-.14-.32-.56-.24-.69,.04-2.85,6.05-6.41,12.49-6.91,19.28-.53,7.18,2.22,14.41,4.8,20.98,.04,.1,.1,.15,.18,.2-1.9,19.13-6.16,36.81-16.38,53.14,3.23-28.51-3.7-57.73-15.51-84.85v-.05c16.76-6.3,12.24-22.51,10.05-36.63,.02-.05-.09-.58-.11-.73,0,0,0,0-.01,0h0c.02-.08-.05-.11-.11-.08-.06,0-8.87,11.66-10.61,18.16-1.42,5.3-.78,11.13-.39,16.7-2.36-5.26-4.9-10.45-7.58-15.52,0-.31,.02-.62,.03-.94,.08-.02,.13-.12,.07-.2-.02-.02-.04-.05-.06-.07,.21-6.2,.4-12.38-2.18-18.19-2.98-6.7-8.64-12.21-13.92-17.16,0-.09-.37,.06-.36,.07-.74,7-2.17,15.65,.87,22.31,2.81,6.14,9.62,9.56,14.56,13.7,.04,.03,.08,.04,.12,.06,9.26,22.26,19.07,44.44,22.71,68.34-10.94-7.12-19.74-15.61-27.24-25.31,4.2-3.91,7.02-8.27,6.68-14.25-.43-7.65-3.67-16.18-8.67-21.97,0,0-.01,0-.02,0-.04-.06-.11-.09-.18-.09-.28-.07-.6,.2-.46,.51-5,10.9-4.93,20.3-1.16,30.56-4.02-5.76-7.68-11.89-11.1-18.41,3.34-12.25-7.72-18.7-15.12-26.72-.21-.23-.64,.02-.47,.31,.06,.11,.14,.2,.2,.31-1.38,12.74,3.61,22.7,15.28,28.65,.08,.04,.16,.06,.24,.06,4.29,10.93,11.14,20.96,19.39,29.64-2.86-2.01-6.04-3.58-9.35-4.35-6.64-1.55-12.36,1.25-18.57,3.21-.06,0-.11,.03-.16,.05l-.09,.03c-.51,.16-.5,.84-.08,.98,.02,.02,.03,.03,.05,.05,9.49,6.19,22.65,14.5,32.76,4.77,.23,.14,.45,.28,.68,.41,5.41,4.99,11.26,9.43,17.31,13.19,.11,.07,.21,.09,.32,.1,.29,2.1,.55,4.21,.74,6.34,1.59,17.68-.77,34.99-6.17,51.53-8.22-11.5-13.99-22.64-16.96-36.7,2.96-11.44-3.41-20.15-11.27-28.2h0c-.12-.22-.47-.2-.53,.1-1.12,5.43-2.82,12.56-.82,17.96,1.97,5.31,7.2,8.89,11.9,11.56,.04,.02,.07,.02,.11,.03,1,6.16,2.74,12.34,5.21,18.2-2.62-4.11-5.98-7.84-10.18-10.27-5.34-3.1-10.64-2.94-16.65-2.48-.49,.04,7.38,21.12,27.5,14.92,.22,.27,.44,.54,.66,.81,2.74,5.76,6.21,11.15,10.47,15.8-2.1,6.16-4.6,12.22-7.5,18.15Zm-4.2-35.45c-5.55,.1-11.43,.54-16.34-2.52-4.54-2.82-6.4-6.54-9.72-10.79,6.04,.34,10.89-.42,16.58,3.41,3.85,2.59,6.59,6.32,9.47,9.89Zm-5.54-21.09c-4.95-2.83-9.72-6.81-10.74-12.61-.85-4.87,.13-9.85,.34-14.78,2.72,3.55,5.42,7.18,7.81,10.96,3.43,5.42,3.28,10.14,2.84,16.01-.15,.07-.28,.2-.24,.42h0Zm-20.15-71.48c-4.16-2.58-7.88-5.74-10.44-10-3.01-5.01-2.55-10.23-3.44-15.71,2.18,3.17,5.06,5.53,7.82,8.26,5,4.94,7.17,10.49,6.05,17.45Zm15.71,21.54c-.07,.08-.14,.17-.21,.25-1.35-5.34-2.52-10.75-2.85-16.26-.32-5.32,.8-10.47,1.08-15.73,1.1,5.3,1.86,10.6,2.14,16.03,.12,2.36,.35,4.93,.44,7.51,.04-2.5,.04-5.01-.08-7.51-.28-5.69-.97-11.47-2.46-16.99,0-.08,0-.16,0-.25,1.78,6.1,5.37,11.49,5.83,17.98,.37,5.28-1.02,10.27-3.73,14.7,.16-.85,.24-1.72,.29-2.59-.1,.98-.25,1.93-.46,2.86Zm-2.16-32.57c.02,.09,.04,.19,.06,.28-.85,5.52-1.63,11.16-1.25,16.75,.37,5.41,1.71,10.7,2.99,15.96-.05,.05-.09,.1-.13,.16-2.22-6.22-5.06-12.41-4.67-19.16,.28-4.7,1.95-9.36,3-13.98Zm3.39,31.07c2.13-3.69,3.11-8.02,3.04-12.28-.12-6.76-3.62-12.36-5.81-18.55,2.45,4.64,4.79,8.99,6.07,14.27,1.78,7.29,.52,11.66-3.3,16.56Zm7.22,15.98c-4.81,2.54-9.49,4.23-15.16,3.21-5.54-1-10.29-4.68-14.95-7.77,5.61-1.31,10.76-3.89,16.71-2.51,5.16,1.2,9.08,4.36,13.41,7.08Zm-4.39-61.76c-2.66-10.32-7.2-20.37-13.64-28.84,4.31,4.74,8.43,9.36,11.13,15.36,2.02,4.48,2.07,8.97,2.51,13.49Zm.17,3.53c-3.95-10.96-8.35-21.73-13.92-31.97,6.48,9.49,11.34,19.57,14.03,30.78,.08,.54,.17,1.08,.27,1.62-.13-.15-.25-.29-.38-.44Zm-10.77-14.84c-2.24-5.65-2.64-11.96-3.7-17.92,5.31,10.63,10.35,21.41,14.34,32.61-3.97-4.56-8.41-9.07-10.64-14.69Zm10.63,15.12c-4.52-3.65-9.99-6.98-12.37-12.44-2.51-5.75-2.19-14.67-2.2-20.97,.81,6.24,1.4,13.08,3.85,18.91,2.31,5.49,6.72,10.07,10.73,14.5Zm11.71,6.75s0,0,0,0c.99-7.91,5.28-14.24,8.09-21.43,.09,5.61-.9,11.71-2.36,17.03-1.61,5.88-4.65,11.17-7.11,16.7,.2-3.55,.53-7.07,1.07-10.59,0-.04-.06-.06-.07-.02-.69,3.28-1.14,6.62-1.31,9.98-.15-5.99-.26-12.84,1.52-18.34,1.93-5.97,5.53-10.48,8.22-15.8,0,.09,0,.18,0,.27-3.39,6.94-7.23,14.49-8.08,22.21Zm8.46-18.98c.42,5.62,.93,11.35-.4,16.81-1.47,6.02-4.92,10.99-9.44,15.09,2.9-5.46,5.79-11.27,7.43-17.23,.8-2.9,1.28-5.88,1.69-8.86,.26-1.9,.58-3.86,.72-5.8Zm-9.89,32.39c0-.12,.01-.24,.02-.36,4.46-3.54,7.64-8.57,9.35-13.97,1.26-3.97,1.47-8.08,1.29-12.21,.31,2.55,.55,5.09,.49,7.67-.2,8.66-4.12,14.28-11.16,18.87Zm32.2,30.73c-2.09-6.42-4.6-13.9-3.74-20.58,.36-2.77,5.37-16.38,5.72-16.58,0,0,5.64,13.43,5.53,20.28-.11,7.46-4.64,10.84-7.52,16.88Zm-3.64,32.8c2.98-5.26,4.3-10.96,8.4-15.71,4.32-5,9.4-9.27,14.27-13.73-1.37,5.62-1.92,11.53-3.99,16.94-3.22,8.44-10.61,10.78-18.68,12.49Z" style="fill:#ebebeb;"></path><path d="M438.71,312.83c.17,.4,.34,.8,.51,1.21,.04,.11,.22,.07,.18-.05-.07-.23-.15-.44-.22-.67,.11,.12,.23,.24,.34,.36,.06,.37,.12,.74,.17,1.11,0,.05,.08,.03,.07-.02-.04-.34-.1-.67-.15-1,.15,.16,.3,.32,.46,.48,.02,.02,.06-.01,.04-.04-.17-.18-.34-.35-.5-.53-1.51-9.63-7.01-17.7-13.41-24.88-.16-.27-.32-.55-.48-.81-.02-.03-.05-.03-.08-.02-.05-.06-.14-.05-.17,.02-.06-.07-.12-.14-.19-.21-.05-.05-.14,.02-.1,.08,.11,.16,.23,.32,.34,.48,1.13,4.8,2.66,9.65,4.89,14.06,2.06,4.08,5.2,7.19,8.31,10.42Zm-12.38-23.36c4.09,7.76,8.86,15.16,12.33,23.22-3.04-3.2-6.01-6.46-8-10.43-2.12-4.23-3.47-8.82-4.76-13.37,.14,.2,.29,.39,.43,.58Zm12.82,23.74c-1.32-4.1-3.6-7.83-5.69-11.57-1.98-3.54-3.92-7.1-5.96-10.6,2.34,3.03,4.84,5.93,6.94,9.14,2.67,4.09,4.27,8.63,5.06,13.42-.12-.13-.24-.25-.36-.38Z" style="fill:#ebebeb;"></path><path d="M432.09,345.55c.43-.09,.86-.19,1.29-.28,2.04,1.81,4.95,2.97,7.39,4.06,2.47,1.11,5.05,1.99,7.74,2.39,5.07,.75,10.13-.03,14.77-2.13,.2,.09,.41,.18,.61,.27,.05,.02,.1-.05,.05-.08h0s.04-.07,0-.09c-.12-.04-.24-.08-.37-.12l-.11-.06c.24-.11,.49-.22,.73-.34,.02,0,0-.04-.02-.03-.25,.12-.51,.23-.76,.34-4.62-2.52-10.09-4.82-15.27-5.58-4.98-.73-9.98,.09-14.85,1.14-.08-.05-.16-.11-.24-.16-.02-.02-.05,.02-.03,.04,.05,.05,.11,.1,.16,.15h-.06s-.1,.02-.14,.02c-.03,0-.04,.02-.05,.04-.29,.06-.58,.13-.87,.19-.16,.03-.09,.27,.06,.24Zm30.22,3.61c-8.91-2.84-18.34-4.39-27.7-4.14,4.44-.89,8.96-1.47,13.46-.8,4.94,.74,9.66,2.91,14.24,4.94Zm-28.76-3.93s.08-.02,.12-.02c10.05-.02,19.87,1.24,29.46,4.32l.07,.03c-10.07,4.33-20.76,1.67-29.65-4.32Z" style="fill:#ebebeb;"></path><path d="M459.15,386.06c0,.15,.22,.15,.23,0,.01-.23,0-.45,.01-.68,.19,.2,.38,.4,.57,.59,.08,.08,.19-.04,.12-.12-.23-.25-.46-.5-.69-.75,.18-9.66-3.84-18.22-9.46-25.81-.27-.55-.54-1.09-.83-1.63-.02-.04-.07,0-.06,.03,.13,.32,.26,.63,.4,.94-.12-.16-.23-.31-.35-.47,0-.09,0-.17-.01-.26,0-.03-.05-.03-.05,0,0,.06,0,.12,0,.17-.05-.07-.11-.14-.16-.21-.04-.05-.11,.01-.08,.06,.08,.12,.16,.23,.24,.35-.04,5.09,.1,10.28,1.91,15.11,1.67,4.45,4.82,8.17,8.07,11.59,.02,.09,.04,.18,.05,.26,0,.05,.08,.03,.07-.02,0-.05-.02-.1-.03-.15l.04,.05c0,.31,0,.62,0,.93Zm0-1.23s-.08-.09-.12-.14c-.83-3.98-1.88-7.79-3.54-11.52,0,0,0,0,0,0,1.46,3.7,2.73,7.51,3.46,11.42-3.31-3.65-6.43-7.39-7.98-12.18-1.46-4.5-1.62-9.32-1.85-14.02,.21,.3,.41,.6,.62,.9,1.47,3.43,3.05,6.81,4.39,10.29,.01,.03,.06,.02,.05-.01-1.18-3.13-2.35-6.25-3.75-9.27,2.4,3.51,4.77,7.11,6.22,11.1,1.53,4.21,2.45,8.91,2.5,13.42Z" style="fill:#ebebeb;"></path><path d="M438.59,393.16c.12,.02,.24,.04,.36,.07,6.43,7.59,16.52,13.33,26.63,13.02,.04,0,.04-.06,0-.07-5.58-.64-10.49-1.63-15.5-4.33-4.09-2.21-7.7-5.16-10.85-8.57,.22,.04,.44,.08,.66,.12,8.53,3.15,16.55,6.84,24.17,11.85,.16,.15,.32,.3,.49,.45,0,0,.02,0,.01-.01-.1-.1-.2-.21-.3-.31,.26,.17,.53,.33,.79,.51,.04,.03,.1-.04,.06-.07-.49-.38-.99-.74-1.49-1.11-3.21-3.33-6.56-6.4-10.86-8.32-4.23-1.88-8.87-2.77-13.43-3.43-.18-.05-.35-.11-.53-.16-.11-.12-.22-.24-.33-.36-.05-.06-.14,.03-.09,.09,.06,.07,.12,.15,.18,.22-.05,.03-.05,.1,0,.14-.1,.07-.12,.24,.03,.27Zm3.17,.58c3.69,.68,7.36,1.44,10.81,2.98,3.99,1.78,7.31,4.65,10.49,7.59-6.45-4.56-13.8-8.06-21.3-10.57Z" style="fill:#ebebeb;"></path><path d="M501.28,343.14c0-.09,.01-.17,.02-.25,.04,0,.08-.03,.11-.08,2.77-5.48,5.29-11.99,5.63-18.17,.17-3.08-.4-6.14-.99-9.14-.71-3.63-1.46-7.31-2.61-10.83-.06-.19-.34-.12-.3,.08,.12,.57,.25,1.14,.38,1.71,0,6.21,.2,12.41-.41,18.6-.56,5.8-1.59,11.52-1.88,17.35-.04,.08-.07,.16-.11,.24-.04,.1,0,.19,.08,.22,0,.09-.01,.18-.01,.27,0,.06,.09,.06,.09,0Zm.06-1c.35-5.73,1.49-11.37,2.04-17.08,.58-6.07,.5-12.19,.21-18.28,1.29,5.55,3.01,11.18,2.99,16.89-.03,6.32-2.73,12.74-5.23,18.46Z" style="fill:#ebebeb;"></path><path d="M501,343.32c-.25-6.23-2.67-11.94-2.11-18.25,.47-5.36,1.58-10.8,3.75-15.73,.02-.04,.09-.01,.07,.03-2.17,5.33-3.31,11.31-3.6,17.04-.29,5.75,1.82,11.21,2.03,16.92,0,.09-.13,.09-.14,0Z" style="fill:#ebebeb;"></path><path d="M495.89,375.58c.43-.03,.85-.09,1.27-.15,0,.06,.06,.12,.13,.08,.07-.04,.13-.09,.2-.13,.1-.02,.19-.03,.29-.05-.04,.06-.08,.11-.12,.17-.09,.13,.12,.24,.21,.12,.09-.12,.17-.23,.26-.35,6.37-1.2,12.26-5.29,16.17-10.37,4.16-5.41,4.6-12.83,6.68-19.14,.04-.13-.16-.21-.22-.09-.2,.43-.38,.87-.55,1.31,.08-.27,.17-.54,.25-.81,.01-.04-.05-.07-.07-.03-2.62,5.82-5.21,11.45-9.19,16.51-3.52,4.47-7.67,8.18-12.24,11.47,3.33-4.66,6.09-9.63,9.76-14.09,3.85-4.67,7.78-9.28,11.65-13.94,.03-.04-.02-.1-.06-.06-4.45,4.52-8.38,9.64-12.39,14.55-3.61,4.42-6.4,9.32-9.61,14-.16,.11-.32,.23-.48,.34-.64,.12-1.28,.21-1.92,.26-.25,.02-.25,.41,0,.39Zm2.65-.89c8.92-5.87,17.14-15.23,20.89-25.4-1.32,4.56-1.77,9.42-4.24,13.56-3.46,5.8-9.99,10.53-16.72,11.95,.03-.04,.05-.07,.08-.11Z" style="fill:#ebebeb;"></path></g><g><g><path d="M497.5,423.37s-.62,5.69-1.51,13.77c-1.21,11.11-2.92,26.74-4.12,38.2h-34.53c-1.21-11.47-2.92-27.1-4.13-38.2-.88-8.08-1.52-13.77-1.52-13.77h45.8Z" style="fill:#ebebeb;"></path><path d="M451.7,423.38s.63,5.69,1.51,13.77l43.07-2.66c.88-8.08,1.22-11.11,1.22-11.11h-45.81Z" style="fill:#dbdbdb;"></path></g><rect x="448.81" y="421.1" width="51.58" height="10.05" transform="translate(949.2 852.25) rotate(180)" style="fill:#ebebeb;"></rect></g></g><g><g><rect x="10.03" y="119.62" width="76.73" height="155.44" style="fill:#ebebeb;"></rect><rect x="13.57" y="122.75" width="69.65" height="149.18" style="fill:#fff;"></rect><rect x="26.25" y="135.08" width="44.29" height="124.52" style="fill:#ebebeb;"></rect><rect x="86.76" y="119.62" width="2.28" height="155.44" style="fill:#dbdbdb;"></rect></g><g><rect x="104.96" y="74.69" width="76.73" height="155.44" style="fill:#ebebeb;"></rect><rect x="108.5" y="77.83" width="69.65" height="149.18" style="fill:#fff;"></rect><rect x="121.18" y="90.15" width="44.29" height="124.52" style="fill:#ebebeb;"></rect><rect x="181.69" y="74.69" width="2.28" height="155.44" style="fill:#dbdbdb;"></rect></g></g></g><g id="freepik--mammography-machine--inject-673"><g><g><rect x="250.49" width="28.31" height="475.35" transform="translate(529.29 475.35) rotate(180)" style="fill:#c7c7c7;"></rect><rect x="237.83" width="20.65" height="475.35" transform="translate(496.32 475.35) rotate(180)" style="fill:#dbdbdb;"></rect></g><g><rect x="297.01" width="28.31" height="475.35" transform="translate(622.34 475.35) rotate(180)" style="fill:#c7c7c7;"></rect><rect x="284.35" width="20.65" height="475.35" transform="translate(589.36 475.35) rotate(180)" style="fill:#dbdbdb;"></rect></g><g><polygon points="247.63 0 101.43 0 101.43 55.09 114.87 82.19 247.63 82.19 247.63 0" style="fill:#dbdbdb;"></polygon><polygon points="298.67 0 224.58 0 224.58 55.09 238.03 82.19 298.67 82.19 298.67 0" style="fill:#c7c7c7;"></polygon><path d="M104.63,55.09c37.74-.66,79.69-.65,117.46,0-37.77,.65-79.71,.66-117.46,0h0Z" style="fill:#c7c7c7;"></path></g><g><g><polygon points="101.43 354.67 270.93 354.67 270.93 395.22 139.41 395.22 101.43 354.67" style="fill:#dbdbdb;"></polygon><polygon points="218.84 354.67 311.17 354.67 311.17 395.22 256.82 395.22 218.84 354.67" style="fill:#c7c7c7;"></polygon></g><g><rect x="196.72" y="337.17" width="95.39" height="17.5" transform="translate(488.83 691.84) rotate(180)" style="fill:#37474f;"></rect><rect x="108.74" y="337.17" width="87.98" height="17.5" style="fill:#455a64;"></rect><rect x="210.17" y="82.19" width="34.25" height="264.98" transform="translate(454.58 429.36) rotate(180)" style="fill:#37474f;"></rect><g><g><ellipse cx="198.34" cy="219.64" rx="6.88" ry="11.12" style="fill:#37474f;"></ellipse><ellipse cx="196.1" cy="219.64" rx="6.49" ry="10.49" style="fill:#37474f;"></ellipse></g><rect x="186.71" y="276.14" width="66.5" height="26.9" transform="translate(439.92 579.18) rotate(180)" style="fill:#c7c7c7;"></rect><rect x="136.6" y="276.14" width="52.28" height="26.9" style="fill:#dbdbdb;"></rect><g><path d="M194.68,200.17h41.82v70.14c0,3.22-2.61,5.83-5.83,5.83h-35.99v-75.97h0Z" transform="translate(431.17 476.31) rotate(180)" style="fill:#dbdbdb;"></path><path d="M228.54,200.17h15.91v69.99c0,3.3-2.68,5.98-5.98,5.98h-3.95c-3.3,0-5.98-2.68-5.98-5.98v-69.99h0Z" transform="translate(472.99 476.31) rotate(180)" style="fill:#c7c7c7;"></path></g><g><polygon points="164.74 276.14 228.54 276.14 228.54 234.63 194.68 234.63 164.74 276.14" style="fill:#c7c7c7;"></polygon><polygon points="198.6 276.14 228.54 276.14 228.54 234.63 198.6 276.14" style="fill:#a6a6a6;"></polygon></g><g><path d="M232.16,220.41c0,6.14,3.08,11.12,6.88,11.12s6.88-4.98,6.88-11.12-3.08-11.12-6.88-11.12-6.88,4.98-6.88,11.12Z" style="fill:#37474f;"></path><path d="M234.8,220.41c0,5.79,2.91,10.49,6.49,10.49s6.49-4.7,6.49-10.49-2.91-10.49-6.49-10.49-6.49,4.7-6.49,10.49Z" style="fill:#455a64;"></path></g></g></g></g><g><polygon points="319.66 141.21 319.66 152.39 335.06 160.67 335.06 331.27 319.66 339.54 319.66 350.71 344.91 337.15 344.91 154.77 319.66 141.21" style="fill:#c7c7c7;"></polygon><polygon points="319.66 147.1 319.66 157.9 329.56 163.21 329.56 328.71 319.66 334.02 319.66 344.82 339.08 334.39 339.08 157.52 319.66 147.1" style="fill:#dbdbdb;"></polygon></g><g><polygon points="244.9 82.19 196.72 82.19 196.72 148.98 244.9 82.19" style="fill:#a6a6a6;"></polygon><rect x="122.25" y="82.19" width="74.48" height="66.79" transform="translate(318.97 231.17) rotate(180)" style="fill:#c7c7c7;"></rect></g></g></g><g id="freepik--Scan--inject-673"><g><g><rect x="251.32" y="8.08" width="132.74" height="183.75" transform="translate(217.74 417.64) rotate(-90)" style="fill:#fff;"></rect><path d="M409.79,33.35V166.55H225.58V33.35h184.21Zm-.45,132.75V33.81H226.04V166.1h183.3Z" style="fill:#c7c7c7;"></path></g><rect x="257.47" y="14.4" width="120.44" height="171.11" transform="translate(217.74 417.64) rotate(-90)" style="fill:#263238;"></rect><path d="M365.47,119.31c.08,.79,2.18,11.81,2.28,13.42,.57,9.78-5.98,12.24-6.23,13.74-.15,.86,1.33,13.7,1.33,13.7h-90.33s1.47-12.84,1.33-13.7c-.25-1.49-6.8-3.96-6.23-13.74,.09-1.62,2.19-12.63,2.28-13.42,.81-8.04-.48-7.85-.7-6.28-3.08,21.68-4.82,47.14-4.82,47.14h-29.61s5.34-61.99,8.05-72.33c3.57-13.59,7.21-20.3,19.26-25.99,12.05-5.69,27.79-5.5,32.16-7.68,4.37-2.18,5.88-14.43,5.88-14.43h35.1s1.51,12.24,5.88,14.43c4.37,2.18,20.11,1.98,32.16,7.68,12.06,5.69,15.69,12.4,19.26,25.99,2.72,10.33,8.05,72.33,8.05,72.33h-29.61s-1.73-25.46-4.82-47.14c-.22-1.57-1.51-1.77-.7,6.28Z" style="fill:#37474f;"></path><g><path d="M281.46,110.01c-10.99,5.75-14.62,24.15-6.54,32.09,8.08,7.94,30.8,4.34,35.47-10.1,4.67-14.44-13.4-30.11-28.93-21.99Z" style="fill:#455a64;"></path><g><g><path d="M295.27,117.34c-.12-2.42,1.26-4.92,2.99-4.19,.96,.4,.8,2.15-.41,3.12-.93,.74-2.58,1.07-2.58,1.07Z" style="fill:#37474f;"></path><path d="M289.66,128.84l-.12-.12h0c.67-.69,1.26-1.7,1.66-2.83,.07-.21,.16-.45,.25-.73,.7-2.05,1.99-5.87,3.94-8.1l.13,.11c-1.93,2.21-3.22,6.01-3.91,8.05-.09,.28-.18,.52-.25,.73-.41,1.16-1.01,2.18-1.7,2.89Z" style="fill:#37474f;"></path></g><g><path d="M301.1,122.53c1.04-2.67,3.75-4.7,5.26-3.08,.84,.9-.18,2.71-1.95,3.17-1.36,.35-3.31-.09-3.31-.09Z" style="fill:#37474f;"></path><path d="M289.85,128.19l-.05-.16c5.04-1.43,9.72-4.19,11.43-5.69l.11,.13c-1.73,1.51-6.43,4.29-11.5,5.73Z" style="fill:#37474f;"></path></g><g><path d="M295.29,124.22c-.08-3.02,1.72-6.1,3.85-5.14,1.18,.53,.93,2.71-.6,3.88-1.18,.9-3.25,1.26-3.25,1.26Z" style="fill:#37474f;"></path><path d="M289.96,128.04l-.06-.16c2.17-.82,4.82-3.18,5.54-3.94l.12,.12c-.86,.9-3.45,3.16-5.6,3.98Z" style="fill:#37474f;"></path></g><g><path d="M293.4,133.66c-1.33,2.71-.99,6.26,1.35,6.28,1.3,.01,1.98-2.07,1.08-3.78-.69-1.31-2.42-2.51-2.42-2.51Z" style="fill:#37474f;"></path><path d="M293.49,134.19c-.92-2.33-3.6-5.98-3.9-6.22l.11-.13c.31,.25,3.03,3.94,3.95,6.29l-.16,.06Z" style="fill:#37474f;"></path></g><g><path d="M297.41,128.27c2.6-2.26,6.61-2.93,7.32-.35,.39,1.42-1.7,2.79-3.85,2.29-1.65-.38-3.47-1.94-3.47-1.94Z" style="fill:#37474f;"></path><path d="M295.56,128.41c-1.21,.02-2.93,0-5.53-.17v-.17c3.88,.25,5.81,.17,6.97,.12,.26-.01,.47-.02,.66-.02v.17c-.18,0-.4,.01-.65,.02-.38,.02-.85,.04-1.45,.05Z" style="fill:#37474f;"></path></g><g><path d="M299.74,133.76c.93,2.71,3.53,4.86,5.12,3.31,.88-.86-.06-2.71-1.81-3.25-1.34-.41-3.31-.05-3.31-.05Z" style="fill:#37474f;"></path><path d="M299.94,134.01c-.06-.05-5.1-4.19-10.31-5.79l.06-.18c5.25,1.61,10.32,5.78,10.38,5.83l-.12,.14Z" style="fill:#37474f;"></path></g><g><path d="M282.99,117.41c-.18-2.41-1.85-4.73-3.48-3.8-.9,.52-.53,2.23,.79,3.05,1.01,.63,2.69,.75,2.69,.75Z" style="fill:#37474f;"></path><path d="M289.94,128.14l.11-.13h0c-.75-.61-1.46-1.53-1.99-2.61-.1-.2-.21-.43-.33-.69-.94-1.95-2.69-5.59-4.89-7.57l-.11,.13c2.18,1.96,3.92,5.57,4.85,7.52,.13,.26,.24,.49,.34,.69,.54,1.1,1.27,2.05,2.04,2.66Z" style="fill:#37474f;"></path></g><g><path d="M288.66,119.83c2.37-2.16,3.41-5.79,1.11-6.71-1.27-.51-2.76,1.27-2.53,3.31,.17,1.56,1.42,3.41,1.42,3.41Z" style="fill:#37474f;"></path><path d="M289.63,126.7l.17-.07c-.96-2.26-1.1-6.01-1.04-7.12h-.18c-.07,1.31,.11,4.95,1.06,7.19Z" style="fill:#37474f;"></path></g><g><path d="M286.57,138.6c.73,2.31,.05,5.08-1.81,4.82-1.03-.14-1.33-1.87-.41-3.12,.71-.96,2.22-1.7,2.22-1.7Z" style="fill:#37474f;"></path><path d="M286.24,139.45c.04-.09,.1-.19,.16-.3,.59-1.12,2.12-2.18,2.34-6.12,.19-3.44,1.58-5.09,1.64-5.16l-.13-.11c-.06,.07-1.48,1.76-1.68,5.26-.22,3.89-1.74,4.94-2.32,6.05-.06,.12-.11,.22-.16,.31l.15,.08Z" style="fill:#37474f;"></path></g><g><path d="M282.36,133.3c.08,3.02-1.72,6.1-3.85,5.14-1.18-.53-.93-2.71,.6-3.88,1.18-.9,3.25-1.26,3.25-1.26Z" style="fill:#37474f;"></path><path d="M282.06,133.74c1.81-1.73,5.77-3.92,6.15-4.02l-.04-.16c-.39,.1-4.4,2.31-6.22,4.06l.12,.12Z" style="fill:#37474f;"></path></g><g><path d="M282.88,125.81c-1.73-2.98-5.31-4.9-6.82-2.69-.83,1.22,.71,3.19,2.9,3.41,1.68,.17,3.91-.72,3.91-.72Z" style="fill:#37474f;"></path><path d="M284.58,126.53c1.13,.41,2.78,.94,5.29,1.62l.04-.16c-3.74-1.01-5.55-1.71-6.63-2.13-.24-.09-.44-.17-.62-.23l-.06,.16c.17,.06,.37,.14,.61,.23,.36,.14,.79,.31,1.36,.51Z" style="fill:#37474f;"></path></g><g><path d="M278.6,129.29c-1.69,2.31-4.82,3.59-5.87,1.64-.58-1.08,.86-2.57,2.7-2.57,1.41,0,3.17,.93,3.17,.93Z" style="fill:#37474f;"></path><path d="M278.33,129.47c.08-.03,6.22-1.23,11.67-1.21v-.19c-5.49-.02-11.67,1.19-11.74,1.22l.07,.17Z" style="fill:#37474f;"></path></g><g><path d="M292.99,127.79c.37,2.13-1.05,4.15-3.17,4.52-2.13,.37-4.15-1.05-4.52-3.17-.37-2.13,1.05-4.15,3.17-4.52s4.15,1.05,4.52,3.17Z" style="fill:#37474f;"></path><path d="M291.78,128c.26,1.46-.72,2.85-2.17,3.1-1.46,.26-2.85-.72-3.1-2.18-.26-1.46,.72-2.85,2.17-3.1,1.46-.26,2.85,.72,3.1,2.18Z" style="fill:#263238;"></path></g></g></g><g><path d="M354.25,110.01c10.99,5.75,14.62,24.15,6.54,32.09-8.08,7.94-30.8,4.34-35.47-10.1-4.67-14.44,13.4-30.11,28.93-21.99Z" style="fill:#455a64;"></path><g><g><path d="M340.45,117.34c.12-2.42-1.26-4.92-2.99-4.19-.96,.4-.8,2.15,.41,3.12,.93,.74,2.58,1.07,2.58,1.07Z" style="fill:#37474f;"></path><path d="M346.06,128.84l.12-.12h0c-.67-.69-1.26-1.7-1.66-2.83-.07-.21-.16-.45-.25-.73-.7-2.05-1.99-5.87-3.94-8.1l-.13,.11c1.93,2.21,3.22,6.01,3.91,8.05,.09,.28,.18,.52,.25,.73,.41,1.16,1.01,2.18,1.7,2.89Z" style="fill:#37474f;"></path></g><g><path d="M334.61,122.53c-1.04-2.67-3.75-4.7-5.26-3.08-.84,.9,.18,2.71,1.95,3.17,1.36,.35,3.31-.09,3.31-.09Z" style="fill:#37474f;"></path><path d="M345.87,128.19l.05-.16c-5.04-1.43-9.72-4.19-11.43-5.69l-.11,.13c1.73,1.51,6.43,4.29,11.5,5.73Z" style="fill:#37474f;"></path></g><g><path d="M340.43,124.22c.08-3.02-1.72-6.1-3.85-5.14-1.18,.53-.93,2.71,.6,3.88,1.18,.9,3.25,1.26,3.25,1.26Z" style="fill:#37474f;"></path><path d="M345.76,128.04l.06-.16c-2.17-.82-4.82-3.18-5.54-3.94l-.12,.12c.86,.9,3.45,3.16,5.6,3.98Z" style="fill:#37474f;"></path></g><g><path d="M342.32,133.66c1.33,2.71,.99,6.26-1.35,6.28-1.3,.01-1.98-2.07-1.08-3.78,.69-1.31,2.42-2.51,2.42-2.51Z" style="fill:#37474f;"></path><path d="M342.23,134.19c.92-2.33,3.6-5.98,3.9-6.22l-.11-.13c-.31,.25-3.03,3.94-3.95,6.29l.16,.06Z" style="fill:#37474f;"></path></g><g><path d="M338.31,128.27c-2.6-2.26-6.61-2.93-7.32-.35-.39,1.42,1.7,2.79,3.85,2.29,1.65-.38,3.47-1.94,3.47-1.94Z" style="fill:#37474f;"></path><path d="M340.16,128.41c1.21,.02,2.93,0,5.53-.17v-.17c-3.88,.25-5.81,.17-6.97,.12-.26-.01-.47-.02-.66-.02v.17c.18,0,.4,.01,.65,.02,.38,.02,.85,.04,1.45,.05Z" style="fill:#37474f;"></path></g><g><path d="M335.98,133.76c-.93,2.71-3.53,4.86-5.12,3.31-.88-.86,.06-2.71,1.81-3.25,1.34-.41,3.31-.05,3.31-.05Z" style="fill:#37474f;"></path><path d="M335.78,134.01c.06-.05,5.1-4.19,10.31-5.79l-.06-.18c-5.25,1.61-10.32,5.78-10.38,5.83l.12,.14Z" style="fill:#37474f;"></path></g><g><path d="M352.73,117.41c.18-2.41,1.85-4.73,3.48-3.8,.9,.52,.53,2.23-.79,3.05-1.01,.63-2.69,.75-2.69,.75Z" style="fill:#37474f;"></path><path d="M345.78,128.14l-.11-.13h0c.75-.61,1.46-1.53,1.99-2.61,.1-.2,.21-.43,.33-.69,.94-1.95,2.69-5.59,4.89-7.57l.11,.13c-2.18,1.96-3.92,5.57-4.85,7.52-.13,.26-.24,.49-.34,.69-.54,1.1-1.27,2.05-2.04,2.66Z" style="fill:#37474f;"></path></g><g><path d="M347.06,119.83c-2.37-2.16-3.41-5.79-1.11-6.71,1.27-.51,2.76,1.27,2.53,3.31-.17,1.56-1.42,3.41-1.42,3.41Z" style="fill:#37474f;"></path><path d="M346.08,126.7l-.17-.07c.96-2.26,1.1-6.01,1.04-7.12h.18c.07,1.31-.11,4.95-1.06,7.19Z" style="fill:#37474f;"></path></g><g><path d="M349.15,138.6c-.73,2.31-.05,5.08,1.81,4.82,1.03-.14,1.33-1.87,.41-3.12-.7-.96-2.22-1.7-2.22-1.7Z" style="fill:#37474f;"></path><path d="M349.48,139.45c-.04-.09-.1-.19-.16-.3-.59-1.12-2.12-2.18-2.34-6.12-.19-3.44-1.58-5.09-1.64-5.16l.13-.11c.06,.07,1.48,1.76,1.68,5.26,.22,3.89,1.74,4.94,2.32,6.05,.06,.12,.11,.22,.16,.31l-.15,.08Z" style="fill:#37474f;"></path></g><g><path d="M353.36,133.3c-.08,3.02,1.72,6.1,3.85,5.14,1.18-.53,.93-2.71-.6-3.88-1.18-.9-3.25-1.26-3.25-1.26Z" style="fill:#37474f;"></path><path d="M353.66,133.74c-1.81-1.73-5.77-3.92-6.15-4.02l.04-.16c.39,.1,4.4,2.31,6.22,4.06l-.12,.12Z" style="fill:#37474f;"></path></g><g><path d="M352.84,125.81c1.73-2.98,5.31-4.9,6.82-2.69,.83,1.22-.71,3.19-2.9,3.41-1.68,.17-3.91-.72-3.91-.72Z" style="fill:#37474f;"></path><path d="M351.13,126.53c-1.13,.41-2.78,.94-5.29,1.62l-.04-.16c3.74-1.01,5.55-1.71,6.63-2.13,.24-.09,.44-.17,.61-.23l.06,.16c-.17,.06-.37,.14-.61,.23-.36,.14-.79,.31-1.36,.51Z" style="fill:#37474f;"></path></g><g><path d="M357.12,129.29c1.69,2.31,4.82,3.59,5.87,1.64,.58-1.08-.86-2.57-2.7-2.57-1.41,0-3.17,.93-3.17,.93Z" style="fill:#37474f;"></path><path d="M357.38,129.47c-.08-.03-6.22-1.23-11.67-1.21v-.19c5.49-.02,11.67,1.19,11.74,1.22l-.07,.17Z" style="fill:#37474f;"></path></g><g><path d="M342.73,127.79c-.37,2.13,1.05,4.15,3.17,4.52,2.13,.37,4.15-1.05,4.52-3.17,.37-2.13-1.05-4.15-3.17-4.52-2.13-.37-4.15,1.05-4.52,3.17Z" style="fill:#37474f;"></path><path d="M343.94,128c-.26,1.46,.72,2.85,2.17,3.1,1.46,.26,2.85-.72,3.1-2.18,.26-1.46-.72-2.85-2.17-3.1-1.46-.26-2.85,.72-3.1,2.18Z" style="fill:#263238;"></path></g></g></g></g></g><g id="freepik--character-1--inject-673"><g><g><path d="M44.59,475.35h118.87c2.89-7.12,18.24-46.54,23.1-89.75,0-.07-122.55-.01-122.55-.01h0c-.03,.06-.09,.17-.17,.34-2.22,4.34-24.89,50.14-19.25,89.42Z" style="fill:#407BFF;"></path><g style="opacity: .6;"><path d="M44.59,475.35h118.87c2.89-7.12,18.24-46.54,23.1-89.75,0-.07-122.55-.01-122.55-.01h0c-.03,.06-.09,.17-.17,.34-2.22,4.34-24.89,50.14-19.25,89.42Z"></path></g><path d="M63.83,385.6s0,.12,0,.33c.13,4.32,1.93,50.82,21.73,89.42H213.69c-5.59-32.15-12.66-63.6-21.58-89.75H63.83Z" style="fill:#407BFF;"></path><g style="opacity: .6;"><path d="M63.83,385.6s0,.12,0,.33c.13,4.32,1.93,50.82,21.73,89.42H213.69c-5.59-32.15-12.66-63.6-21.58-89.75H63.83Z"></path></g><path d="M91.71,475.35c-.03-.41-.1-.83-.22-1.21-.83-2.74-1.59-5.49-2.04-8.31-1.05-6.41-1.37-12.96-1.31-19.45-.03-15.29,2.09-33.53,3.57-48.86-.71,3.2-1.29,6.43-1.94,9.65-1.73,9.65-2.9,19.56-3.4,29.35-.35,11.45-.28,23.31,3.59,34.24,.51,1.56,1.36,3,1.75,4.59h0Z" style="fill:#263238;"></path><path d="M111.28,457.57c-.31-7.03-1.28-29.21-1.41-33.28-.07-2.04-.18-13.8,.62-13.86,4.15-.33,8.5,.37,12.65,.56,4.13,.18,8.26,.29,12.4,.32,8.37,.06,16.74-.24,25.1-.83,1.25-.09,1.37,1.65,.12,1.76-8.45,.71-16.91,1.1-25.38,1.18-4.13,.04-20.1-.12-23.76-.76-.03,1.68,.62,7.87,.71,9.26,1.75,.04,3.51,.45,5.24,.67,1.95,.25,3.9,.45,5.85,.63,4.05,.35,8.13,.56,12.21,.62,7.85,.11,15.79-.19,23.6-1.07,.25-.03,.26,.31,.02,.35-8.01,1.28-16.03,1.97-24.14,1.83-3.8-.06-7.58-.27-11.35-.63-2.05-.2-4.1-.43-6.13-.71-1.73-.23-3.58-.39-5.25-.87,.02,.27,.04,.54,.05,.82,.25,3.88,1.4,26.7,1.82,34.23,4.06,2.18,23.94,12.85,26.42,11.69,4.71-2.19,21.02-11.7,25.75-14-.22-6.75-.68-13.5-1.41-20.21-.37-3.45-.82-6.9-1.32-10.34-.5-3.46-1.35-7.08-1.28-10.58,0-.29,.46-.51,.66-.21,.09,.15,.19,.29,.28,.44,.05,.09,.03,.16-.01,.23,1.24,2.96,1.79,6.32,2.38,9.42,.66,3.51,1.24,7.04,1.73,10.58,.98,7.07,1.63,14.18,1.96,21.32,.02,.44-.2,.97-.65,1.2-7.12,3.6-26.75,14.6-28.5,14.8-3.36,.4-27.65-11.95-28.28-12.44-.76-.59-.66-1.24-.7-2.12Z" style="fill:#263238;"></path><path d="M43.77,466.16c.03,.84,.07,1.67,.13,2.51,7.89-2.42,24.65-9.96,25.17-10.34,.79-.55,.73-1.2,.81-2.08,.64-7,2.69-29.11,3.02-33.17,.16-2.03,.84-13.78,.05-13.88-4.13-.53-8.51-.04-12.66-.06-2.07,0-4.13-.03-6.2-.08h0c-.25,.71-.5,1.43-.75,2.17,6.39,.24,15.68,.48,18.39,.14-.06,1.67-1,7.83-1.16,9.22-1.75-.05-3.53,.28-5.27,.41-1.96,.15-3.92,.27-5.88,.34-3.09,.12-6.2,.16-9.31,.11-.11,.37-.22,.74-.32,1.11,3.08,.05,6.16,.01,9.23-.13,2.06-.1,4.12-.24,6.17-.42,1.73-.15,3.59-.21,5.29-.61-.03,.27-.07,.54-.1,.81-.43,3.86-2.68,26.6-3.47,34.1-3.25,1.55-16.37,7.79-23.13,9.85Z" style="fill:#263238;"></path></g><g><g><g><path d="M128.14,242.21c.29,2.61,10.49,20.56,22.18,21.39,3.81,.26,6.17-20.46,6.17-20.46l.52-1.49,7.32-20.86-23.27-19.12-3.39-2.57s-1.63,5.84-3.58,13.13c-.09,.34-.18,.68-.28,1.04-.12,.41-.24,.79-.34,1.18-.31,1.09-.61,2.2-.9,3.31-.22,.85-.44,1.67-.63,2.56-.22,.89-.42,1.77-.64,2.66-1.99,8.86-3.29,18.12-3.18,19.23Z" style="fill:#f7a9a0;"></path><path d="M134.11,212.23c4.13,17.78,16.93,26.34,22.91,29.42l7.32-20.86-23.27-19.12-3.39-2.57s-1.63,5.84-3.58,13.13Z" style="fill:#263238;"></path></g><g><path d="M187.47,187.53c6.1,38.32-16,46.67-24.42,47.61-7.55,.84-33.2,4.27-43.23-33.21-10.03-37.48,5.86-52.44,22.87-56.06,17.02-3.62,38.68,3.34,44.78,41.66Z" style="fill:#f7a9a0;"></path><path d="M123.49,212.42c6.5-.21,5.94-15.19,5.94-15.19,0,0,11.49-6.06,13.75-25.35,0,0,.67,8.79-4.09,16.2,0,0,23.37-3.65,30.98-24.02,0,0-2.8,10.26-6.05,14.16,0,0,9.92,3.46,20.62-3.19,0,0,1.82-41.54-42.08-30.42,0,0-24.16,5.09-30.55,24.55-6.38,19.46,11.49,43.27,11.49,43.27Z" style="fill:#263238;"></path></g></g><g><path d="M190.01,350.48l2.1,35.13-128.1-.02s18.35-101.45,47.52-135.3c16.28-18.89,32.82-19.26,45.47-6.43,3.2,3.25,40.54,55.75,44.57,75.03,3.51,17.01-11.55,31.59-11.55,31.59Z" style="fill:#f7a9a0;"></path><g style="opacity: .1;"><path d="M108.66,287.18c-3.34,14.36-5.87,28.84-7.8,43.44-2.04,13.57-2.42,27.84-7.54,40.76-.42,.8-.82,1.75-1.61,2.23,.73-.57,1.02-1.51,1.35-2.34,3.94-13.27,3.85-27.25,5.83-40.91,1.94-14.63,4.87-29.23,9.77-43.18h0Z"></path></g></g><g><g><path d="M143.14,259.06c12.47,39.33,62.23,110.6,79.91,113.9,27.31,5.1,78.88-68.1,89.88-81.75,4.69-5.82-49.35-34.86-54.5-28.74-4.48,5.33-31.95,36.71-35.9,38.5-2.24,1.02-24.76-24.73-56-49.86-23.93-19.25-27.09-3.69-23.4,7.95Z" style="fill:#f7a9a0;"></path><g><path d="M250.8,275.96s3.87-6.27,8.43-23.63c3.56-13.56,21.39-42.95,60.41-48.47,14.95-2.12,22.97,7.45,7.82,12.41-10.67,3.49-18.36,4.99-21.52,7.11,0,0,16.1,5.99,18.67,15.6,1.15,4.3,4.01,16.1,4.93,25.61,0,0-2.02,.76-4.71,1.35,0,0,2.84,12.21-8.46,20.63l-8.18,10.77-57.41-21.38Z" style="fill:#f7a9a0;"></path><g><path d="M265.96,241.67c5.98-4.27,18.81-13.12,31.81-16.71,14.45-3.98,43.36-7.76,46.19,2.93,2.08,7.84-8.83,10.26-8.83,10.26,0,0,12.28,.96,12.6,8.45,.3,6.83-8.25,8.19-8.25,8.19,0,0,7.35,1.86,6.37,8.49-1.18,7.98-16.39,2.77-24.57,9.82-1.84,1.58-55.32-31.44-55.32-31.44Z" style="fill:#f7a9a0;"></path><path d="M299.43,240.93c6.28-3.1,22.36-6.47,35.47-3,.3,.08,.4,.34,.11,.33-15.25-.75-29.54,1.49-35.55,2.81-.08,.02-.11-.1-.04-.14Z" style="fill:#263238;"></path><path d="M303.88,255.4c5.7-2.12,22.42-4.85,35.59-.88,.29,.09,.38,.36,.09,.34-15.9-1.44-29.58-.27-35.65,.68-.08,.01-.1-.11-.03-.14Z" style="fill:#263238;"></path></g></g></g><g><path d="M193.76,346.43c-9.13-9.64-17.26-20.18-24.78-31.11-7.46-10.97-14.23-22.5-19.34-34.75,1.71,2.85,3.21,5.79,4.99,8.59,11.78,19.91,25.35,38.7,39.14,57.27h0Z" style="fill:#263238;"></path><path d="M156.63,293.83c-2.92-2.14-5.4-5.05-6.5-8.55,2.32,2.82,4.56,5.45,6.5,8.55h0Z" style="fill:#263238;"></path></g></g><g><g><path d="M91.05,248.21c-.25,8.53-4.78,11.29-5.17,15.84,0,0,19.17,9.75,52.12,10.72,32.94,.97,52.66-7.63,52.66-7.63-.12-4.57-4.48-7.59-4.23-16.12,.29-9.85,6.9-10.38,5.78-25.35-.83-11.15-9.14-12.76-9.82-34.63-.7-22.62-9-31.96-15.48-37.28-12.59-10.34-25.07-9.16-25.07-9.16,0,0-11.71-2.7-24.89,6.88-6.78,4.93-16.29,14.55-18.33,37.09-1.97,21.8-10.35,22.92-11.84,33.99-2,14.88,4.57,15.8,4.28,25.65Z" style="fill:#263238;"></path><path d="M182.47,203.23c-2.65-6.33-2.32-13.76-1.59-20.53,.04-.33,.48-.33,.48,.01-.12,6.51-.6,13.23,1.81,19.35,2.09,5.3,6.18,9.16,9.26,13.71,2.85,4.22,4.52,9.06,4.3,14.38-.11,2.67-.68,5.31-1.68,7.75-1.06,2.59-2.78,4.57-4.18,6.92-4.23,7.1,.4,14.95,4.19,20.76,.04,.06-.06,.14-.1,.08-3.14-4.38-6.51-9.24-6.65-15.1-.07-2.89,.89-5.43,2.42-7.74,1.72-2.58,3.25-5.03,4.04-8.15,1.59-6.22,.3-12.44-3.05-17.61-3.02-4.66-7.06-8.55-9.27-13.83Z" style="fill:#263238;"></path><path d="M83.52,221.8c1.34-6.28,4.81-10.93,8.35-15.89,1.73-2.42,3.37-4.93,4.51-7.74,1.28-3.16,1.98-6.55,2.58-9.93,.67-3.7,1.25-7.41,2.28-11.03,1.03-3.65,2.46-7.07,4.06-10.45,.07-.15,.28-.01,.21,.14-2.98,6.38-4.43,13.26-5.53,20.26-.99,6.32-2.39,12.12-5.89,17.38-3.35,5.03-7.39,9.47-9.1,15.56-1.82,6.47-2.55,14.58,.58,20.65,2.56,4.97,7.68,10.81,4.68,16.93-.1,.2-.4,.05-.33-.16,2.55-7-3.43-12.25-5.86-17.97-2.29-5.39-1.75-12.1-.54-17.76Z" style="fill:#263238;"></path></g><g><path d="M186.43,194.33s-6.59-12.8-11.22-10.31c-4.63,2.49,.06,20.51,5.3,23.48,5.24,2.98,7.36-2.69,7.36-2.69l-1.44-10.48Z" style="fill:#f7a9a0;"></path><path d="M176.66,189.14c-.09-.02-.11,.12-.03,.17,3.67,2.24,5.5,6.62,6.73,11.09-1.05-1.79-2.54-2.87-4.44-1.48-.1,.07-.01,.27,.09,.25,1.54-.22,2.63,.22,3.62,1.81,.7,1.12,1.15,2.5,1.64,3.76,.16,.42,.77,.27,.66-.2,0-.04-.02-.07-.03-.11,.28-5.72-3.15-14.14-8.24-15.29Z" style="fill:#263238;"></path></g></g></g></g></g><g id="freepik--character-2--inject-673"><g><g><g><path d="M538.92,384.29h0s-.01,.02,0,.03c-.01,.03-.03,.09-.04,.16-.01,.06-.03,.14-.05,.24-.02,.07-.04,.15-.06,.25-.01,.08-.03,.18-.06,.28-.01,.02-.02,.05-.02,.08-.3,1.41-.9,4.21-1.76,8.19-.05,.27-.12,.56-.18,.85-.4,1.86-.85,3.96-1.35,6.28h0c-3.53,16.42-9.38,43.67-16.04,74.7h-104.26c7.84-29.97,14.88-56.41,19.31-72.98,.65-2.44,1.25-4.66,1.79-6.65,.6-2.26,1.12-4.21,1.56-5.83,.64-2.36,1.09-4.03,1.32-4.9,.04-.16,.08-.29,.11-.39,.04-.15,.06-.25,.07-.29,0,0,.01,0,.01-.01h99.65Z" style="fill:#263238;"></path><path d="M538.93,384.3s0,.01-.01,.02c0,.03-.01,.08-.04,.16-.01,.06-.03,.14-.05,.24-.02,.07-.04,.16-.06,.25-.02,.08-.04,.18-.06,.28-.01,.02-.02,.05-.02,.08-.33,1.41-.99,4.21-1.92,8.21-.05,.24-.11,.48-.17,.73-.43,1.85-.91,3.94-1.45,6.25h0c-3.77,16.3-9.99,43.41-16.97,74.83h-55.39l-1.52-5.91-17.55-67.87-3.08-11.93-1.21-4.68-.17-.65h99.67Z" style="fill:#37474f;"></path></g><path d="M587.15,475.35h-111.69c-5.79-2.63-10.78-4.62-14.19-5.91-3.05-1.15-4.85-1.75-4.85-1.75-9.25-23.19-13.63-49.15-15.64-65.87-.6-4.93-.99-9.06-1.23-12.08-.18-2.24-.29-3.87-.34-4.76-.01-.15-.01-.27-.02-.38-.01-.26-.02-.4-.02-.4h132.14s1.12,2.32,2.83,6.11c3.06,6.83,8.01,18.42,11.6,29.7,.19,.59,.38,1.18,.56,1.77l.12,.39v.03c2.11,6.93,3.62,13.62,3.77,18.88,.5,16.99-1.95,29.61-3.04,34.27Z" style="fill:#263238;"></path></g><g><g><g><path d="M433.49,347.26l2.9,42.74,130.97-11.39s-19.41-95.59-56.98-135.05c-19.51-20.49-39.8-16.61-52.79-1.83-3.29,3.74-32.12,54.41-35.3,75.68-2.76,18.77,11.21,29.85,11.21,29.85Z" style="fill:#407BFF;"></path><g><path d="M451.97,340.77c5.67,.48,11.37,1.15,16.92,2.46,2.76,.65,5.47,1.43,8.18,2.27,1.35,.42,2.71,.79,4.07,1.15,1.4,.37,2.9,.72,4.36,.74,.13,0,.13,.2,0,.2-1.42,.07-2.77,.12-4.19,0-1.35-.12-2.69-.38-4-.68-2.81-.64-5.58-1.4-8.38-2.07-5.65-1.34-11.29-2.68-17.03-3.61-.26-.04-.21-.49,.06-.47Z" style="fill:#263238;"></path><path d="M438.02,346.06c4.65-.56,9.4-.91,14.08-.94,2.36-.02,4.7,.11,7.04,.29,1.12,.09,2.24,.2,3.36,.32,1.23,.13,2.44,.43,3.68,.55,.13,.01,.13,.21,0,.2-1.16-.07-2.35,.04-3.51,.04-1.17,0-2.35-.02-3.52-.03-2.35-.01-4.7,0-7.04-.04-4.7-.07-9.38-.1-14.09,0-.25,0-.24-.36,0-.39Z" style="fill:#263238;"></path></g><g><g><polygon points="432.72 402.52 577.53 390.02 569.91 373.7 436.05 385.25 432.72 402.52" style="fill:#407BFF;"></polygon><polygon points="432.72 402.52 577.53 390.02 569.91 373.7 436.05 385.25 432.72 402.52" style="opacity: .3;"></polygon></g><rect x="455.62" y="381.84" width="32.28" height="17.63" transform="translate(975.35 739.32) rotate(175.07)" style="fill: none; stroke: #dbdbdb; stroke-miterlimit: 10; stroke-width: 2px;"></rect></g></g><path d="M462.12,236.93s-.11,.21-.31,.62c-.14,.26-.32,.6-.53,1.02-.33,.66-.76,1.51-1.25,2.53-.29,.56-.58,1.17-.9,1.82-.03,.07-.07,.13-.1,.2-.83,1.71-1.79,3.72-2.85,5.98-.17,.36-.34,.73-.52,1.11-.17,.37-.35,.75-.53,1.14-4.47,9.73-10.21,23.16-14.4,36.29-1.14,3.56-2.16,7.1-3.01,10.53-.45,1.79-.85,3.55-1.2,5.27,.01,.01,0,.01,0,.02-.01,.06-.02,.13-.04,.19-.13,.7-.26,1.39-.38,2.08,0,.01-.01,.03-.01,.04-.02,.11-.04,.22-.05,.33-.44,2.58-.75,5.06-.88,7.39-.1,1.7-.12,3.33-.03,4.86,.02,.43,.05,1.3,.08,2.58,.04,1.56,.08,3.74,.13,6.44,.02,1.58,.05,3.34,.08,5.27,.13,8.46,.28,20.13,.45,33.72,.07,5.96,.14,12.29,.22,18.89v.34c.04,3.31,.08,6.7,.11,10.13,.03,2.14,.05,4.31,.08,6.49,.26,23.79,.53,49.61,.77,73.14h-28.72c8.2-29.32,16.49-59.53,17.39-65.55,2.52-16.81,4.32-32.01,5.48-43.09,1.16-11.21,1.67-18.21,1.58-18.43-.23-.58-5.3-4.86-8.95-11.74-2.32-4.38-4.06-9.82-3.58-16.02h0c.11-1.64,.39-3.33,.85-5.06,.91-3.42,1.97-6.87,3.17-10.33,.8-2.32,1.66-4.65,2.57-6.96,.47-1.21,.95-2.42,1.45-3.62,.62-1.51,1.26-3.02,1.92-4.51,2.74-6.26,5.72-12.36,8.72-18.09,4.98-9.51,9.99-18,13.98-24.48,.67-1.09,1.31-2.07,1.92-2.95,.1-.16,.21-.31,.31-.45,.08-.12,.16-.23,.24-.34,.45-.64,.89-1.22,1.3-1.74,.67-.86,1.29-1.58,1.85-2.17,.18-.19,.35-.37,.51-.54,.22-.21,.42-.41,.61-.59h.01c1.6-1.49,2.46-1.76,2.46-1.76Z" style="fill:#ebebeb;"></path><path d="M603.64,475.35h-94.95c-2.49-25.7-5.18-53.71-7.54-78.74-.39-4.14-.77-8.19-1.14-12.14-.01-.06-.01-.11-.02-.17h0s0-.07,0-.1c-.13-1.49-.27-2.97-.41-4.43-.37-3.95-.72-7.77-1.06-11.45-.99-10.79-1.84-20.33-2.51-27.97l-.06-.72c-.06-.64-.11-1.27-.16-1.88-.81-9.53-1.26-15.62-1.19-16.76,.17-3.11-.59-18.46-1.56-35.71-.82-14.61-1.8-30.59-2.48-41.62-.02-.3-.04-.6-.06-.89-.02-.33-.04-.67-.06-.99-.3-4.79-.53-8.46-.65-10.4-.03-.43-.05-.77-.07-1.02-.02-.34-.03-.52-.03-.52,0,0,18.23,1.28,36.14,30.31,.47,.76,.94,1.54,1.41,2.34,.85,1.45,1.7,2.93,2.55,4.45l.96,1.74c.22,.4,.43,.8,.65,1.2,8.52,15.71,16.86,34.62,24.79,55.03,.11,.26,.21,.52,.3,.78,.1,.24,.2,.49,.29,.73,.42,1.08,.84,2.17,1.26,3.27,1.51,3.97,3.01,8,4.49,12.06,.15,.4,.3,.8,.44,1.2,9.37,25.77,18.04,53.01,25.61,78.6l.21,.69c.04,.14,.08,.29,.12,.43,5.57,18.9,10.54,36.89,14.74,52.68Z" style="fill:#ebebeb;"></path></g><path d="M437.61,251.68c-52.68,46.43-101.61,97.37-105.69,123.61-5.65,36.32,16.62,46.67,26.64,46.88,27.29,.57,78.13-109.51,95.86-151.56,17.21-40.83-5.24-29.12-16.81-18.93Z" style="fill:#ebebeb;"></path><g><path d="M510.47,247.16c49.03,38.53,97.23,105.1,97.59,142.32,.35,36.76-12.45,33.19-16.09,32.95-22.21-1.45-74.49-103.74-90.41-145.44-15.8-41.39-3.22-39.36,8.91-29.83Z" style="fill:#ebebeb;"></path><g><path d="M562.46,393.73c-2.57-4.63-5.22-9.21-7.72-13.88l-7.65-13.9c-5.05-9.3-10.17-18.55-15.07-27.92-5.08-9.27-9.95-18.66-14.79-28.06-2.43-4.69-4.82-9.41-7.12-14.17-2.4-4.72-4.58-9.53-6.8-14.34,3.38,10.05,7.68,19.77,12.15,29.38,4.49,9.61,9.38,19.01,14.3,28.4,5.1,9.29,10.2,18.58,15.62,27.68,5.43,9.1,10.98,18.13,17.07,26.81Z" style="fill:#263238;"></path><path d="M508.49,293.78c-.9-1.73-1.96-3.26-3.02-4.8-.56-.75-1.08-1.52-1.66-2.26-.58-.74-1.13-1.5-1.79-2.23,.39,1.92,1.32,3.66,2.41,5.23,1.13,1.55,2.42,2.99,4.07,4.06Z" style="fill:#263238;"></path></g></g><g><g><path d="M347.29,321.48c2.58-17.25,7.73-41.31,13.96-46.29,6.54-5.23,30.27-22.68,37.1-24.96,6.82-2.28,37.26-13.48,42.79-10.2,4.43,2.63-.98,14.29-15.46,19.75-12.73,4.8-19.31,9.33-22.95,10.86-3.71,1.56-12.74,13.43-10.37,18.75,1.4,3.14,10.44,6.9,16.11,4.41,5.68-2.49,7.2-13.66,13.71-18.86,6.51-5.2,17.89-4.44,18.51-1.35,.62,3.08-3.15,4.48-9.09,14.86-3.82,6.68-4.25,22.8-12.87,34.26-4.33,5.76-11.94,21.14-11.94,21.14l-59.49-22.36Z" style="fill:#d3766a;"></path><path d="M428.25,270.25c2-.43,4.17-1.01,5.67-2.49,.63-.63,1.12-1.41,1.31-2.29,.1-.46,.12-.97,.06-1.44-.05-.44-.17-1.1-.54-1.38-.11-.08,.06-.22,.12-.1,.13,.26,.36,.46,.51,.69,.13,.2,.23,.43,.32,.65,.17,.46,.24,.92,.23,1.41-.03,1.06-.47,2.06-1.16,2.86-1.63,1.9-4.11,2.38-6.5,2.27-.1,0-.1-.15-.01-.17Z" style="fill:#263238;"></path><g><path d="M361.25,275.2c5.58-8.56,19.8-23.97,33.78-29.16,9.45-3.51,41.66,12.6,40.65,18.78-1.01,6.18-6.54,6.14-14.72,5.08-2.98-.39-18.7-6.22-21.43-2.94-3.92,4.72-9,20.93-9,20.93l-29.29-12.69Z" style="fill:#d3766a;"></path><path d="M434.9,262.39c-3.93-6.67-12.69-10.29-21.41-13.18-.14-.04-.21,.16-.08,.21,2.22,.74,16.41,7.45,21.39,13.08,.06,.06,.14-.04,.1-.1Z" style="fill:#263238;"></path></g><g><path d="M361.25,275.2c5.58-8.56,19.8-23.97,33.78-29.16,9.45-3.51,34.86,16.94,33.85,23.12-1.01,6.18-8.96,6.59-17.71,3.44-2.83-1.02-12.28-7.82-15-4.54-3.92,4.72-13.46,16.43-13.46,16.43l-21.45-9.29Z" style="fill:#d3766a;"></path><path d="M388.2,277.23c.9-1.35,1.2-1.82,2.13-3.16,.92-1.33,1.86-2.65,2.87-3.91,.87-1.09,1.72-2.29,2.93-3.03,1.16-.71,2.56-.86,3.89-.72,3.04,.31,5.77,2.28,8.34,3.79,2.87,1.68,8.82,4.43,13.41,4,1.26-.12,2.51-.32,3.63-.94,.73-.41,1.71-.91,2.18-1.71,2.02-3.35-.42-7.23-2.93-9.98-4.68-5.13-11-8.88-17.14-11.97-1.51-.76-3.04-1.48-4.56-2.2-1.74-.82-3.55-1.61-5.54-1.65-3.18-.06-8.43,3.12-10.06,4.08-.12,.07-.21-.13-.09-.2,1.97-1.2,6.86-5.12,12-4.81,1.88,.12,3.63,1.1,5.33,1.85,1.78,.79,3.54,1.64,5.28,2.53,3.38,1.73,6.66,3.65,9.73,5.89,2.9,2.12,5.99,4.59,7.93,7.65,1.68,2.66,2.16,6.42,.46,9.17-1.43,2.32-4.43,2.85-5.81,3.01-1.37,.16-2.68,.12-4.05-.08-1.42-.21-6.6-1.77-8.78-2.67-2.77-1.14-5.26-3.04-8.12-3.94-1.37-.43-2.87-.46-4.16,.23-1.2,.64-2.2,1.84-3.13,2.8-2.11,2.18-3.51,3.59-5.25,6.1-.42,.61-.84,.41-.47-.15Z" style="fill:#263238;"></path></g><g><path d="M357.09,282.68c2.06-4.08,5.64-20.95,8.96-26.1,3.32-5.15,18.41-22.93,25.36-22.08,8.74,1.07-.54,16.73-5.19,23.18-4.65,6.44-3.99,17.48-3.99,17.48l-25.14,7.53Z" style="fill:#d3766a;"></path><path d="M392.71,246.97c-1.65,2.04-3.11,4.3-4.55,6.49-1.36,2.08-2.93,4.13-3.98,6.39-1.05,2.27-1.52,4.71-1.78,7.18-.13,1.22-.18,2.43-.2,3.65-.02,1.33,.08,2.68,.04,4.01,0,.14,.21,.16,.22,.02,.13-2.4,.58-4.88,1.02-7.24,.46-2.46,1.22-4.92,2.27-7.2,2.09-4.56,5.13-8.61,7.26-13.15,.09-.18-.18-.31-.3-.16Z" style="fill:#263238;"></path><path d="M382.32,277c-.59,4.18,.61,8.43,2.11,12.31,.78,1.96,1.69,3.86,2.74,5.7,1.07,1.84,2.33,3.59,3.57,5.19,2.48,3.25,4.67,6.58,6.25,10.27,1.59,3.68,2.57,7.66,3.23,11.76,.28-4.13-.08-8.4-1.42-12.44-1.27-4.06-3.54-7.78-6.02-11.11-2.55-3.28-4.62-6.56-6.45-10.23-1.73-3.64-3.54-7.34-4.01-11.46Z" style="fill:#263238;"></path></g></g><g><path d="M361.09,420.91c17.05-2.3,28.2-30.81,47.66-80.95,3.42-8.8-41.13-62.89-47.19-54.82-7.63,10.17-28.18,66.79-30.34,82.22-4.26,30.42,9.97,56.24,29.87,53.55Z" style="fill:#d3766a;"></path><g><path d="M398.48,367.94l-54.95-53.39s-15.61,45.95-14.15,65.21c1.46,19.26,8.17,41.21,31.36,42.42,17.36,.91,37.73-54.23,37.73-54.23Z" style="fill:#ebebeb;"></path><path d="M380.71,404.89c1.99-2.81,3.75-5.75,5.48-8.72,1.74-2.95,3.32-6,4.87-9.05,1.51-3.08,2.97-6.18,4.24-9.38,1.27-3.19,2.49-6.43,3.18-9.81-1.45,3.12-2.98,6.15-4.53,9.2l-4.61,9.14c-1.5,3.07-3.03,6.12-4.45,9.23-1.45,3.1-2.88,6.2-4.17,9.4Z" style="fill:#263238;"></path><path d="M386.64,377.24c-2.66-2.93-5.59-5.64-8.42-8.4-2.84-2.77-5.7-5.51-8.6-8.21-5.8-5.4-11.62-10.77-17.51-16.07-1.61-1.45-3.23-2.89-4.87-4.31-1.75-1.52-3.7-2.82-5.43-4.35-.14-.12-.32,.08-.19,.21,1.4,1.35,2.61,2.9,3.98,4.29,1.42,1.43,2.88,2.83,4.34,4.23,2.87,2.73,5.75,5.45,8.65,8.16,5.79,5.41,11.61,10.79,17.57,16.01,3.37,2.95,6.68,6.02,10.22,8.76,.21,.16,.45-.11,.27-.3Z" style="fill:#263238;"></path></g></g></g><g><g><path d="M487.59,234.75c-.19,2.74-10.06,21.93-22.24,23.3-3.97,.44-7.33-21.1-7.33-21.1l-.61-1.53-8.55-21.47,23.46-20.98,3.42-2.83s1.95,6.03,4.31,13.56c.11,.35,.22,.7,.34,1.07,.14,.42,.29,.82,.4,1.22,.37,1.12,.74,2.27,1.08,3.42,.27,.87,.53,1.72,.77,2.65,.27,.92,.51,1.83,.78,2.75,2.46,9.16,4.23,18.78,4.16,19.94Z" style="fill:#d3766a;"></path><path d="M480.06,203.7c-3.54,18.74-16.54,28.24-22.65,31.71l-8.55-21.47,23.46-20.98,3.42-2.83s1.95,6.03,4.31,13.56Z" style="fill:#263238;"></path></g><g><path d="M457.73,236.88l9.34,17.15,19.69-25.4,7.2,6.56s-17.62,38.75-17.95,37.13l-9.24-14.64-9.44,12.05-2.31-27.2,2.72-5.65Z" style="fill:#407BFF;"></path><path d="M455.42,256.35c-.23-4.5-.59-9.03-.61-13.54,0-.16,.24-.26,.3-.08,1.4,4.21,2.2,21.44,2.7,25.53,.01-.02,.03-.04,.04-.05,.39-.52,8.81-10.66,8.92-10.53,1.9,2.27,8.67,12.93,9.16,13.91,2.78-6.15,13.59-28.6,17.04-34.51,.1-.17,.36-.07,.29,.12-2.34,6.43-16.58,36.62-16.86,36.57-.17,.16-8.57-12.96-9.68-15.49-1.37,2.16-9.74,13.47-9.85,12.81-.75-4.46-1.21-10.23-1.44-14.74Z" style="fill:#263238;"></path></g><g><g><path d="M486.39,190.34c.89,1.13,1.58,2.42,1.98,3.82,1.8,6.33-1.21,12.69-4.88,17.67-3.95,5.32-9.39,10.1-11.43,16.57-.8,2.53-1.01,5.33,.09,7.78,1.24,2.77,3.92,4.21,6.68,5.08,2.91,.93,6.56,1.39,8.48,4.06,1.6,2.21,1.44,5.24,.6,7.72-2.2,6.42-9.29,9.59-13.6,14.41-4.62,5.14-7.59,11.61-8.49,18.47-.85,6.4,.33,13.01,3.13,18.8,1.36,2.83,3.14,5.52,5.24,7.83,2.38,2.59,5.28,4.63,7.76,7.11,2.3,2.31,4.45,5.37,4.25,8.79-.14,2.64-5.72,10.65-17.08,14.32-.81,.26-.28,1.71,.63,1.74,1.77,.08,3.53,.07,5.29-.07,14.64-1.06,28.17-9.19,35.82-21.75,4.08-6.72,6.35-14.32,6.81-22.14,.24-4.33,.14-8.74,1.11-13,.87-3.79,2.79-7.1,5.28-10.06,4.74-5.62,10.77-10.03,14.54-16.46,3.34-5.75,5.04-12.36,5.25-18.99,.4-13.88-5.61-27.12-15.81-36.43-10.06-9.17-42.14-15.9-41.65-15.27Z" style="fill:#263238;"></path><path d="M486.66,190.7c1.49,2.42,2.75,5.05,3.02,7.91,.24,2.58-.32,5.17-1.34,7.54-2.3,5.32-6.54,9.22-10.6,13.2-3.82,3.74-7.67,7.9-8.68,13.33-.43,2.3-.38,4.8,.51,6.99,1.01,2.48,3.03,4.13,5.44,5.19,4.38,1.94,10.53,2.99,12.08,8.32,1.5,5.15-2.9,9.93-6.06,13.42-7.7,8.5-18.94,18.37-16.38,31.22,1.3,6.5,5.34,12.68,9.51,17.71,3.01,3.63,6.84,8.2,5.85,13.26-.04,.19-.31,.09-.28-.09,.97-5.37-3.68-9.29-6.9-12.87-3.78-4.2-7.13-9.15-9.05-14.5-1.98-5.51-1.5-11.22,.85-16.54,2.39-5.41,6.24-9.89,10.27-14.14,2.07-2.18,4.18-4.31,6.19-6.56,1.8-2.02,3.62-4.23,4.39-6.87,.82-2.82-.2-5.43-2.53-7.16-2.28-1.69-5.04-2.38-7.63-3.45-2.31-.95-4.49-2.22-5.94-4.31-1.17-1.67-1.79-3.65-1.98-5.67-.43-4.63,1.31-9.12,4.08-12.76,3.93-5.17,9.45-8.87,13.29-14.11,1.96-2.67,3.57-5.78,3.86-9.13,.31-3.52-1.13-6.53-2.58-9.63-.19-.42,.39-.71,.63-.33Z" style="fill:#263238;"></path><path d="M534.1,205.76c10.44,9.19,14.17,23.99,11.31,37.32-1.61,7.48-5.2,14.31-10.02,20.21-4.5,5.51-9.84,10.51-13.09,16.92-3.59,7.1-2.65,14.89-2.87,22.56-.18,6.21-1.67,12.26-4.43,17.83-5.29,10.69-14.93,19.17-26.26,22.91-1.44,.48-2.9,.89-4.39,1.22-.19,.04-.25-.25-.06-.29,11.69-2.73,21.65-10.97,27.52-21.31,2.89-5.09,4.8-10.74,5.42-16.57,.77-7.2-.59-14.55,1.14-21.66,1.62-6.67,6.15-12.06,10.61-17.07,4.87-5.47,9.64-10.89,12.47-17.75,5.25-12.73,4.04-27.88-4.58-38.89-9.61-12.27-25.32-16.33-40.06-18.3-1.97-.26-3.94-.51-5.92-.75-.22-.03-.22-.37,.01-.35,15.09,1.26,31.38,3.58,43.18,13.96Z" style="fill:#263238;"></path></g><path d="M489.57,182.72c2.28,.58,4.73,3.03,4.72,4.61-.01,1.58-7.75,11.11-10.8,11.25-3.05,.14-4.14-5.38-4.14-5.38l10.22-10.48Z" style="fill:#407BFF;"></path></g><g><path d="M418.2,173.05c-9.49,39.43,13.05,49.57,21.56,51.6,7.72,1.85,34.24,7.17,47.76-31.07,13.51-38.24-1.82-55.11-19.25-60.28-17.43-5.16-40.57,.32-50.06,39.75Z" style="fill:#d3766a;"></path><g><path d="M425.8,168.77c.96,.03,1.85-.11,2.8-.19,1.07-.08,1.94-.04,2.82-.73,.47-.37,.57-1.25,.25-1.75-.74-1.15-2.08-1.38-3.38-1.33-1.41,.05-2.48,.45-3.53,1.38-1.02,.9-.22,2.59,1.05,2.62Z" style="fill:#263238;"></path><path d="M451.65,176.28c-.88-.39-1.62-.9-2.45-1.38-.93-.54-1.73-.87-2.23-1.88-.27-.54,.03-1.38,.53-1.68,1.17-.72,2.47-.34,3.62,.26,1.25,.65,2.04,1.48,2.6,2.77,.54,1.25-.92,2.43-2.08,1.91Z" style="fill:#263238;"></path><g><g><path d="M429.96,178.2c0-.11-.23,.1-.25,.21-.34,2.75-1.19,5.84-3.81,6.36-.08,.02-.1,.15,0,.16,3.09,.05,4.17-4.07,4.06-6.72Z" style="fill:#263238;"></path><path d="M427.96,174.96c-4.35-1.02-6.07,7.75-2.04,8.69,3.96,.93,5.68-7.84,2.04-8.69Z" style="fill:#263238;"></path></g><path d="M426.02,175.18c-.78,.33-1.63,1.04-2.47,.93-.97-.13-1.49-1.21-1.93-2.24-.04-.11-.13-.05-.15,.07-.38,1.67-.16,3.52,1.38,4.16,1.41,.58,2.77-.64,3.5-2.23,.14-.29,0-.81-.32-.68Z" style="fill:#263238;"></path></g><g><g><path d="M445.16,181.68c.04-.1,.18,.17,.16,.28-.66,2.69-.97,5.88,1.28,7.3,.07,.04,.03,.18-.05,.15-2.9-1.06-2.45-5.29-1.38-7.73Z" style="fill:#263238;"></path><path d="M448.18,179.37c4.42,.6,2.9,9.4-1.2,8.85-4.03-.55-2.51-9.35,1.2-8.85Z" style="fill:#263238;"></path></g><path d="M449.91,180.27c.61,.59,1.16,1.55,1.98,1.75,.95,.23,1.83-.6,2.6-1.4,.08-.08,.14,0,.12,.12-.25,1.69-1.11,3.35-2.78,3.39-1.53,.04-2.36-1.59-2.47-3.34-.02-.32,.3-.76,.55-.52Z" style="fill:#263238;"></path></g><path d="M442.6,203.7c-.71,.59-1.44,1.43-2.45,1.43-.97,0-2.06-.52-2.91-.93-.08-.04-.18,.04-.13,.13,.63,1.12,2.08,1.9,3.38,1.78,1.27-.12,1.97-1.15,2.37-2.27,.06-.16-.15-.23-.26-.15Z" style="fill:#263238;"></path><path d="M432.51,192.21s-1.13,4.02-1.4,5.95c-.02,.18,.43,.33,1.08,.46,.03,.01,.05,.03,.07,.01,3.34,1,6.93,.3,9.39-2.2,.16-.17-.06-.4-.25-.31-2.8,1.52-5.68,1.61-8.72,1.24-.06-.55,2.17-6.81,1.87-6.88-1.04-.24-3.22,.19-4.52,.39,2.12-8.43,5.57-16.46,7.55-24.89,.07-.3-.36-.45-.49-.19-4.21,8.16-6.86,17.81-9.27,26.46-.31,1.08,3.86,.18,4.68-.05Z" style="fill:#263238;"></path></g><path d="M491.46,191.66c-4.73-.09-15.77-.4-22.14-6.75-3.51-3.5-6.35-9.17-7.48-18.96-1.97-17.11-12.32-29.16-31.13-21,0,0-2.31-15.92,8.77-21.08,11.09-5.17,20.76,6.2,20.76,6.2,0,0,23.45-.17,34.25,18.55,10.8,18.72-3.03,43.06-3.03,43.06Z" style="fill:#263238;"></path><g><path d="M477.58,192.37s10.64-11.2,15.85-7.22c5.21,3.98-4.11,21.13-11.15,22.61-7.04,1.48-8.54-5.02-8.54-5.02l3.84-10.37Z" style="fill:#d3766a;"></path><path d="M490.63,190c.11,0,.11,.16,0,.18-4.96,1.19-8.08,5.15-10.48,9.39,1.65-1.52,3.69-2.18,5.76-.18,.11,.11-.04,.28-.16,.23-1.85-.7-3.29-.57-4.81,.76-1.08,.95-1.91,2.23-2.76,3.38-.28,.39-1,.05-.77-.41,.02-.03,.04-.07,.05-.1,.78-5.98,6.67-13.62,13.16-13.26Z" style="fill:#263238;"></path></g></g></g><g><g><polygon points="494.07 362.04 405.6 368.61 379.59 244.64 468.06 238.07 494.07 362.04" style="fill:#263238;"></polygon><polygon points="489.72 362.36 401.25 368.93 375.24 244.96 463.71 238.39 489.72 362.36" style="fill:#455a64;"></polygon><path d="M420.46,299.05c.77,4.72,5.24,8.26,10,7.91,4.75-.35,7.98-4.47,7.21-9.19-.77-4.72-5.24-8.26-10-7.91-4.75,.35-7.98,4.47-7.21,9.19Z" style="fill:#fff;"></path></g><g><path d="M597.07,422.36c-16.43,2.26-36.91-10.51-90.02-49.28-7.35-5.37,16.56-67.42,24.7-62.09,10.26,6.71,48.6,34.96,51.15,37.38,21.45,20.41,25.32,72.45,14.17,73.98Z" style="fill:#d3766a;"></path><g><path d="M550.72,329.76s-15.13-21.22-26.52-29.92c-15.26-11.64-33.23-15.4-40.86-16.52-15.92-2.34-56.02,3-56.5,14.81-.43,10.7,40.29,3.17,40.29,3.17,0,0-42.78,.82-40.94,13.8,1.85,12.98,48.62,1.55,48.62,1.55,0,0-43.94,1.83-39.92,14.92,3.04,9.89,45.98,1.92,45.98,1.92,0,0-37.76,1.84-35.07,12.14,2.97,11.38,43.07,6.52,43.07,6.52,11.24,25.04,27.36,32.09,39.07,35.98,2.84,.94,22.76-58.37,22.76-58.37Z" style="fill:#d3766a;"></path><g><path d="M481.9,300.07c-5.03-.09-10.12-.2-15.14,.16-5.02,.36-10.03,.9-14.99,1.73-12.17,2.03-19.48,5.21-19.01,5.06,11.18-3.48,29.12-5.05,34.15-5.41,5.01-.36,10-.97,15.01-1.34,.13,0,.1-.19-.02-.19Z" style="fill:#263238;"></path><path d="M483.54,318.17c-6.43,.17-12.81,.1-19.23,.56-6.39,.45-12.41,1.44-18.75,2.33-.49,.07-.29,.31,.2,.26,6.37-.64,12.31-.73,18.69-1.29,6.36-.56,12.74-1.37,19.11-1.7,.1,0,.08-.16-.02-.15Z" style="fill:#263238;"></path><path d="M487.74,333.45c-9.83-.24-19.7,1.33-29.34,3.1-.48,.09-.19,.37,.3,.31,9.74-1.21,17.36-2.24,29.03-3.06,.18-.01,.21-.34,0-.34Z" style="fill:#263238;"></path></g></g><g><path d="M550.72,321.32l-20.93,76.26s57.71,32.79,70.12,24.05c12.41-8.74,2.73-52.51-11.31-69.31-5.85-7-37.87-31-37.87-31Z" style="fill:#ebebeb;"></path><path d="M550.02,323.86l.82-2.51-.21,.07c5.3,4.33,10.62,8.62,15.87,13,5.28,4.33,10.51,8.73,15.51,13.34,2.48,2.31,5.01,4.62,7.13,7.19,2.14,2.59,3.99,5.42,5.66,8.35,3.29,5.9,5.47,12.42,6.77,19.14-.54-6.83-2.38-13.61-5.49-19.82-1.52-3.12-3.43-6.05-5.59-8.77-2.2-2.75-4.7-5.11-7.19-7.5-5.09-4.63-10.42-8.96-15.82-13.17-5.46-4.14-10.99-8.19-16.69-11.99l-.17-.11-.04,.18-.57,2.58Z" style="fill:#263238;"></path><path d="M563.02,340.25c-1.28,3.74-2.25,7.62-3.31,11.43-1.06,3.82-2.08,7.65-3.06,11.49-1.94,7.68-3.85,15.37-5.65,23.09-.49,2.11-.98,4.22-1.44,6.34-.49,2.27-.69,4.6-1.2,6.86-.04,.18,.23,.24,.27,.06,.51-1.88,1.29-3.69,1.84-5.55,.57-1.94,1.1-3.89,1.61-5.84,1.01-3.83,2.01-7.67,2.99-11.51,1.95-7.67,3.87-15.37,5.57-23.1,.96-4.37,2.06-8.75,2.76-13.17,.04-.26-.31-.34-.4-.09Z" style="fill:#263238;"></path><path d="M531.65,390.8c-.31,2.34-.74,4.65-1.2,6.96l-.32-.77c14.18,7.4,28.52,14.59,43.37,20.56,4.95,1.97,9.97,3.79,15.17,5.08-15.98-2.35-30.84-9.46-45.16-16.64-4.93-2.56-9.79-5.25-14.56-8.12,.85-2.38,1.69-4.76,2.69-7.08h0Z" style="fill:#263238;"></path></g></g></g></g></g></g><g id="freepik--speech-bubble--inject-673"><g><g><path d="M582.54,101.06c-2.54,24.33-24.34,41.99-48.66,39.45-9.83-1.03-18.57-5.2-25.34-11.43l-22.16,3.25,11.09-19.16c-2.69-6.54-3.82-13.83-3.04-21.33,2.54-24.33,24.34-41.99,48.66-39.45,24.33,2.54,41.99,24.34,39.45,48.66Z" style="fill:#fff;"></path><path d="M582.54,101.06c-.93,8.09-3.88,16.01-8.94,22.45-1.16,1.69-2.66,3.1-4.01,4.62-1.54,1.34-2.98,2.81-4.67,3.96-3.24,2.5-6.88,4.45-10.68,5.95-3.79,1.59-7.86,2.35-11.92,2.84-2.05,.11-4.1,.3-6.15,.12-2.06-.05-4.1-.27-6.13-.64-8.11-1.47-15.78-5.26-21.91-10.82l.52,.16-22.14,3.4-1.61,.25,.81-1.42,11.02-19.19-.05,.76c-5.37-12.64-4.16-27.7,2.73-39.48,3.43-5.9,8.22-10.98,13.87-14.77,5.65-3.8,12.2-6.18,18.9-7.09,6.71-.89,13.62-.28,20.03,1.85,6.4,2.16,12.27,5.78,17.08,10.47,9.78,9.3,14.7,23.24,13.26,36.58Zm0,0c1.35-13.35-3.67-27.21-13.45-36.38-4.86-4.59-10.74-8.06-17.08-10.08-6.35-1.99-13.15-2.46-19.7-1.48-6.54,1-12.88,3.44-18.29,7.23-5.4,3.79-9.96,8.76-13.25,14.45-3.36,5.69-5.1,12.2-5.62,18.74-.41,6.56,.66,13.2,3.12,19.3l.16,.4-.21,.36-11.15,19.12-.79-1.17,22.18-3.11,.31-.04,.22,.2c5.86,5.5,13.28,9.35,21.21,10.92,1.98,.4,3.99,.65,6.01,.73,2.02,.21,4.04,.06,6.06,0,4.01-.41,8.05-1.09,11.83-2.6,3.79-1.42,7.46-3.28,10.68-5.76,1.7-1.13,3.13-2.58,4.68-3.91,1.36-1.51,2.86-2.9,4.03-4.57,5.08-6.38,8.09-14.27,9.07-22.35Z" style="fill:#263238;"></path></g><polygon points="533.3 121.72 514.38 102.57 520.74 96.29 531.79 107.47 554.75 71.48 562.28 76.28 533.3 121.72" style="fill:#407BFF;"></polygon></g></g><g id="freepik--Table--inject-673"><path d="M10.03,475.35c197.11-.61,418.21-.62,615.32,0-197.11,.62-418.21,.61-615.32,0h0Z" style="fill:#263238;"></path></g></svg>
